<svg xmlns="http://www.w3.org/2000/svg" 
    xmlns:xlink="http://www.w3.org/1999/xlink" viewBox="0 0 283.46 283.46">
    <defs>
        <style>



.circle{
opacity:0;
-webkit-transform: scale(0.5);
transform: scale(0.5);
transform-origin:50% 50%;
}
*:hover .scale-down-center {
-webkit-animation: scale-down-center 0.5s cubic-bezier(0.250, 0.460, 0.450, 0.940) alternate both;
animation: scale-down-center 0.5s cubic-bezier(0.250, 0.460, 0.450, 0.940) alternate both;
}
@-webkit-keyframes scale-down-center {
100% {
opacity:1;
-webkit-transform: scale(1);
transform: scale(1);
transform-origin:50% 100%;
}
0% {
opacity:0;
-webkit-transform: scale(0.5);
transform: scale(0.5);
transform-origin:50% 100%;
}
}
@keyframes scale-down-center {
100% {
opacity:1;
-webkit-transform: scale(1);
transform: scale(1);
transform-origin:50% 100%;
}
0% {
opacity:0;
-webkit-transform: scale(0.5);
transform: scale(0.5);
transform-origin:50% 100%;
}
}


                                    <!-- slide Top -->
            *:hover  .slide-top {
	        -webkit-animation: slide-top 0.8s cubic-bezier(0.250, 0.460, 0.450, 0.940) infinite alternate both;
	        animation: slide-top 0.8s cubic-bezier(0.250, 0.460, 0.450, 0.940) infinite alternate both;
            }
            *:hover .slide-tl {
            -webkit-animation: slide-tl 0.8s cubic-bezier(0.250, 0.460, 0.450, 0.940) infinite alternate both;
            animation: slide-tl 0.8s cubic-bezier(0.250, 0.460, 0.450, 0.940) infinite alternate both;
            }
            @-webkit-keyframes slide-top {
            0% {
            -webkit-transform: translateY(0);
            transform: translateY(0);
            }
            100% {
            -webkit-transform: translateY(-20px);
            transform: translateY(-20px);
            }
            }
            @keyframes slide-top {
            0% {
            -webkit-transform: translateY(0);
            transform: translateY(0);
            }
            100% {
            -webkit-transform: translateY(-20px);
            transform: translateY(-20px);
            }
            }
            @-webkit-keyframes slide-tl {
  0% {
    -webkit-transform: translateY(0) translateX(0);
            transform: translateY(0) translateX(0);
  }
  100% {
    -webkit-transform: translateY(20px) translateX(20px);
            transform: translateY(20px) translateX(20px);
  }
}
@keyframes slide-tl {
  0% {
    -webkit-transform: translateY(0) translateX(0);
            transform: translateY(0) translateX(0);
  }
  100% {
    -webkit-transform: translateY(20px) translateX(20px);
            transform: translateY(20px) translateX(20px);
  }
}



            .cls-1 {
                isolation: isolate;
            }

            .cls-2 {
                fill: #fff;
            }

            .cls-3 {
                fill: #42e8e0;
            }

            .cls-4 {
                fill: #6e7798;
            }

            .cls-5 {
                fill: #43527a;
            }

            .cls-6 {
                fill: #576288;
            }

            .cls-11,
            .cls-7 {
                fill: #002554;
            }

            .cls-7 {
                opacity: 0.5;
            }

            .cls-8 {
                fill: url(#linear-gradient);
            }

            .cls-9 {
                fill: url(#linear-gradient-2);
            }

            .cls-10 {
                fill: #888fab;
            }

            .cls-12 {
                fill: url(#linear-gradient-3);
            }

            .cls-13 {
                fill: url(#linear-gradient-4);
            }

            .cls-14 {
                fill: url(#linear-gradient-5);
            }

            .cls-15 {
                fill: #374772;
            }

            .cls-16 {
                fill: #697395;
            }

            .cls-17 {
                opacity: 0.6;
                mix-blend-mode: multiply;
                fill: url(#linear-gradient-6);
            }

            .cls-18 {
                fill: url(#linear-gradient-7);
            }

            .cls-19 {
                fill: url(#linear-gradient-8);
            }

            .cls-20 {
                fill: #868da9;
            }

            .cls-21 {
                fill: url(#linear-gradient-9);
            }

        </style>
        <linearGradient id="linear-gradient" x1="31.27" y1="120.44" x2="248.23" y2="234.76" gradientUnits="userSpaceOnUse">
            <stop offset="0" stop-color="#6e7798" />
            <stop offset="1" stop-color="#18315f" />
        </linearGradient>
        <linearGradient id="linear-gradient-2" x1="16.83" y1="169.48" x2="267.18" y2="169.48" gradientUnits="userSpaceOnUse">
            <stop offset="0" stop-color="#d4d7e1" />
            <stop offset="1" stop-color="#2b3e6a" />
        </linearGradient>
        <linearGradient id="linear-gradient-3" x1="166.79" y1="107.91" x2="146.88" y2="88.34" xlink:href="#linear-gradient-2" />
        <linearGradient id="linear-gradient-4" x1="171.36" y1="102.25" x2="151.45" y2="82.67" xlink:href="#linear-gradient-2" />
        <linearGradient id="linear-gradient-5" x1="175.87" y1="96.65" x2="155.96" y2="77.08" xlink:href="#linear-gradient-2" />
        <linearGradient id="linear-gradient-6" x1="129.86" y1="124.68" x2="91.71" y2="160.68" gradientUnits="userSpaceOnUse">
            <stop offset="0.14" stop-color="#fff" />
            <stop offset="1" stop-color="#0a20cc" />
        </linearGradient>
        <linearGradient id="linear-gradient-7" x1="-603.8" y1="108.31" x2="-579.78" y2="54.47" gradientTransform="matrix(-1, 0, 0, 1, -494.03, 0)" xlink:href="#linear-gradient-2" />
        <linearGradient id="linear-gradient-8" x1="1784.93" y1="71.71" x2="1790.82" y2="141.24" gradientTransform="translate(-1643.45)" xlink:href="#linear-gradient-2" />
        <linearGradient id="linear-gradient-9" x1="1705.37" y1="-21.03" x2="1763.11" y2="169.76" gradientTransform="translate(-1643.45)" xlink:href="#linear-gradient-2" />
    </defs>
    <title>1</title>
    <g class="cls-1">
        <g id="Layer_2" data-name="Layer 2">
            <g id="Layer_1-2" data-name="Layer 1">
                <g class="circle scale-down-center">
                    <path class="cls-2" d="M141.73,253.32c-23.4,0-46.8-5.33-64.62-16C59.79,227,50.24,213.13,50.24,198.42s9.55-28.52,26.87-38.89c35.63-21.33,93.61-21.33,129.24,0,17.33,10.38,26.87,24.19,26.87,38.9s-9.54,28.52-26.87,38.89h0C188.54,248,165.13,253.32,141.73,253.32Zm0-109.09c-23.28,0-46.56,5.3-64.28,15.91C60.35,170.38,50.93,184,50.93,198.42s9.42,28,26.52,38.29c35.45,21.22,93.12,21.22,128.56,0h0c17.11-10.24,26.53-23.84,26.53-38.28s-9.42-28-26.53-38.28C188.29,149.53,165,144.23,141.73,144.23Z" />
                    <path class="cls-2" d="M141.74,283.46c-36.26,0-72.51-8.26-100.12-24.78C14.78,242.61,0,221.21,0,198.42s14.78-44.18,41.62-60.25c55.2-33,145-33,200.22,0,26.84,16.07,41.62,37.47,41.62,60.26s-14.78,44.18-41.62,60.25h0C214.25,275.2,178,283.46,141.74,283.46Zm0-169c-36.07,0-72.13,8.21-99.58,24.65C15.65,155,1.06,176.05,1.06,198.42s14.59,43.44,41.09,59.31c54.91,32.87,144.26,32.87,199.17,0h0c26.5-15.87,41.09-36.93,41.09-59.3s-14.6-43.44-41.1-59.31C213.86,122.68,177.79,114.47,141.73,114.47Z" />
                </g>
                <g class="slide-top">
                    <polygon class="cls-3" points="49.15 241.46 38.67 234.23 38.67 248.69 49.15 255.93 59.62 248.69 59.62 234.23 49.15 241.46" />
                    <polygon class="cls-4" points="49.15 255.93 38.67 248.69 38.67 234.23 49.15 241.46 49.15 255.93" />
                    <polygon class="cls-5" points="59.62 248.69 49.15 255.93 49.15 241.46 59.62 234.23 59.62 248.69" />
                    <polygon class="cls-4" points="49.15 241.46 38.67 234.23 49.15 226.99 59.62 234.23 49.15 241.46" />
                    <polygon class="cls-2" points="49.15 241.46 38.67 234.23 38.67 234.85 49.15 242.09 59.62 234.85 59.62 234.23 49.15 241.46" />
                </g>
                <g class="slide-top">
                    <polygon class="cls-3" points="264.57 264.35 255.34 257.98 255.34 270.72 264.57 277.09 273.8 270.72 273.8 257.98 264.57 264.35" />
                    <polygon class="cls-4" points="264.57 277.09 255.34 270.72 255.34 257.98 264.57 264.35 264.57 277.09" />
                    <polygon class="cls-5" points="273.8 270.72 264.57 277.09 264.57 264.35 273.8 257.98 273.8 270.72" />
                    <polygon class="cls-4" points="264.57 264.35 255.34 257.98 264.57 251.61 273.8 257.98 264.57 264.35" />
                    <polygon class="cls-2" points="264.57 264.35 255.34 257.98 255.34 258.53 264.57 264.9 273.8 258.53 273.8 257.98 264.57 264.35" />
                </g>
                <path class="cls-6" d="M175.13,271.25,3.91,153C1.43,151.32,0,149,0,146.75a5.9,5.9,0,0,1,2.79-4.87l89.78-62c4-2.78,11.11-2.44,15.76.78L279.55,198.89c2.49,1.71,3.91,4,3.91,6.28a5.9,5.9,0,0,1-2.79,4.87L190.9,272a12.13,12.13,0,0,1-6.86,1.89A16,16,0,0,1,175.13,271.25Zm-82.37-191L3,142.28a5.47,5.47,0,0,0-2.59,4.47c0,2.11,1.35,4.25,3.71,5.88L175.32,270.85c4.55,3.14,11.45,3.49,15.38.78l89.78-62a5.45,5.45,0,0,0,2.6-4.47c0-2.11-1.36-4.25-3.72-5.88L108.14,81.07a15.64,15.64,0,0,0-8.71-2.6A11.9,11.9,0,0,0,92.76,80.29Z" />
                <path class="cls-7" d="M264.46,230.82,191,281.59c-3.29,2.27-8.25,2.51-11.1.55L18.75,170.9c-2.85-2-2.49-5.4.79-7.66l73.51-50.77c3.28-2.27,8.25-2.52,11.09-.55L265.26,223.16C268.1,225.12,267.74,228.55,264.46,230.82Z" />
                <path class="cls-7" d="M264.46,219,191,269.72c-3.29,2.27-8.25,2.51-11.1.55L18.75,159c-2.85-2-2.49-5.39.79-7.66L93.05,100.6c3.28-2.27,8.25-2.52,11.09-.55L265.26,211.29C268.1,213.25,267.74,216.68,264.46,219Z" />
                <path class="cls-8" d="M267.18,198.94,252,195.79,104.14,93.68c-2.84-2-7.81-1.72-11.09.55L24.54,141.55l-7.71-1.61v9.37h0a4,4,0,0,0,1.92,3.35L179.86,263.9c2.85,2,7.81,1.72,11.1-.55l73.5-50.77a5.47,5.47,0,0,0,2.71-4.4h0Z" />
                <path class="cls-9" d="M264.46,203.27,191,254c-3.29,2.27-8.25,2.52-11.1.55L18.75,143.35c-2.85-2-2.49-5.39.79-7.66L93.05,84.92c3.28-2.27,8.25-2.51,11.09-.55L265.26,195.61C268.1,197.58,267.74,201,264.46,203.27Z" />
                <path class="cls-10" d="M264.46,202.07,191,252.85c-3.29,2.26-8.25,2.51-11.1.55L18.75,142.15a4.17,4.17,0,0,1-1.87-2.71,3.94,3.94,0,0,0,1.87,3.91L179.86,254.59c2.85,2,7.81,1.72,11.1-.55l73.5-50.77c2-1.41,3-3.27,2.66-5A5.77,5.77,0,0,1,264.46,202.07Z" />
                <polygon class="cls-11" points="264.57 195.14 179.18 254.12 19.43 143.82 104.83 84.84 264.57 195.14" />
                <path class="cls-12" d="M153.2,103.57l-6-4.37c.13-8.28-4.69-18.57-10.75-23l.14-8.26C145.94,74.78,153.41,90.73,153.2,103.57Z" />
                <path class="cls-13" d="M165.34,112.33,159.29,108c.29-17.42-9.86-39.07-22.61-48.28l.13-8.26C152.91,63,165.7,90.36,165.34,112.33Z" />
                <path class="cls-14" d="M177.33,121l-6.06-4.37c.44-26.44-15-59.32-34.32-73.3l.14-8.26C159.79,51.44,177.84,90,177.33,121Z" />
                <path class="cls-11" d="M63.12,109.94l-11.35,7.83a1.56,1.56,0,0,1-1.66.08l-.12-.08c-.42-.29-.37-.8.12-1.14l11.35-7.84a1.59,1.59,0,0,1,1.66-.08l.12.08C63.66,109.08,63.61,109.6,63.12,109.94Z" />
                <path class="cls-15" d="M192.13,235.94l-5.9-4.45L184,232.9l-1.39-1.05a4.21,4.21,0,0,0,.83-.63,1.82,1.82,0,0,0,.49-.72,1.36,1.36,0,0,0,0-.8,2,2,0,0,0-.55-.86l1.43-.91,9.1,6.87Z" />
                <path class="cls-15" d="M188.93,227a1.83,1.83,0,0,1-.09-1,2.31,2.31,0,0,1,.49-1,4,4,0,0,1,.92-.8,4.85,4.85,0,0,1,1.65-.69,5.58,5.58,0,0,1,1.55-.11,4.53,4.53,0,0,1,1.29.28,3.8,3.8,0,0,1,.91.48,2.27,2.27,0,0,1,.86,1.1,1.21,1.21,0,0,1-.24,1.16l0,0a3.79,3.79,0,0,1,2-.19,4.11,4.11,0,0,1,1.88.82,2.88,2.88,0,0,1,1,1.13,1.9,1.9,0,0,1,.13,1.14,2.5,2.5,0,0,1-.54,1.08,4.17,4.17,0,0,1-1,.9,6.1,6.1,0,0,1-1.41.67,5.67,5.67,0,0,1-1.59.3,5.41,5.41,0,0,1-1.64-.19,4.4,4.4,0,0,1-1.56-.78,2.4,2.4,0,0,1-1-1.37,1.53,1.53,0,0,1,.46-1.38h0a3.13,3.13,0,0,1-1.66.09,3.63,3.63,0,0,1-1.51-.68A2.37,2.37,0,0,1,188.93,227Zm7,3.52a3.49,3.49,0,0,0,.82.16,3.22,3.22,0,0,0,.82-.08,2.39,2.39,0,0,0,.71-.31,1.46,1.46,0,0,0,.49-.46,1,1,0,0,0,.17-.54,1.06,1.06,0,0,0-.16-.58,2.14,2.14,0,0,0-.51-.54,2.54,2.54,0,0,0-.71-.37,3,3,0,0,0-.79-.14,2.87,2.87,0,0,0-.78.08,2.18,2.18,0,0,0-.7.3,1.47,1.47,0,0,0-.74,1,1.19,1.19,0,0,0,.62,1.1A2.52,2.52,0,0,0,196,230.54Zm-3.14-3a2.52,2.52,0,0,0,1.26-.38,1.25,1.25,0,0,0,.64-.83c0-.32-.12-.62-.51-.92a2.32,2.32,0,0,0-.45-.26,2.22,2.22,0,0,0-.6-.19,2.26,2.26,0,0,0-.73,0,2.1,2.1,0,0,0-.81.33,1.48,1.48,0,0,0-.43.39.93.93,0,0,0-.19.46.7.7,0,0,0,.09.48,1.48,1.48,0,0,0,.44.48A2,2,0,0,0,192.84,227.51Z" />
                <path class="cls-15" d="M206.2,227l-5.9-4.45L198.07,224l-1.39-1a4.6,4.6,0,0,0,.83-.62,1.85,1.85,0,0,0,.49-.73,1.36,1.36,0,0,0,0-.8,2,2,0,0,0-.55-.86l1.42-.91,9.11,6.87Z" />
                <path class="cls-15" d="M203.78,219.05a3.51,3.51,0,0,1-.75-1.54,1.74,1.74,0,0,1,.25-1.25,3.22,3.22,0,0,1,1-1,4.77,4.77,0,0,1,1.5-.63,5.13,5.13,0,0,1,1.81-.07,7.68,7.68,0,0,1,2.16.64,12.82,12.82,0,0,1,2.49,1.52,10.82,10.82,0,0,1,2,1.89,3.51,3.51,0,0,1,.76,1.55,1.79,1.79,0,0,1-.26,1.25,3.35,3.35,0,0,1-1,1,4.87,4.87,0,0,1-3.29.68,7.63,7.63,0,0,1-2.16-.66,13.44,13.44,0,0,1-2.54-1.55A10.28,10.28,0,0,1,203.78,219.05Zm4.73,1.4a7.82,7.82,0,0,0,1.23.7,4.24,4.24,0,0,0,1.3.4,1.75,1.75,0,0,0,1.2-.26.85.85,0,0,0,.49-.82,2,2,0,0,0-.45-.93,6.52,6.52,0,0,0-.91-.91c-.35-.29-.66-.53-.92-.73l-.57-.42c-.22-.16-.47-.32-.73-.48s-.54-.31-.82-.45a5,5,0,0,0-.87-.31,2.8,2.8,0,0,0-.86-.06,1.76,1.76,0,0,0-.79.26,1,1,0,0,0-.44.52.93.93,0,0,0,0,.59,2.2,2.2,0,0,0,.37.63,5.34,5.34,0,0,0,.57.6c.2.19.42.37.63.54l.56.43C207.8,220,208.13,220.18,208.51,220.45Z" />
                <path class="cls-15" d="M214.33,212.34a3.56,3.56,0,0,1-.75-1.54,1.8,1.8,0,0,1,.25-1.25,3.48,3.48,0,0,1,1-1,5,5,0,0,1,1.5-.62,4.91,4.91,0,0,1,1.81-.07,7.68,7.68,0,0,1,2.16.64,12.82,12.82,0,0,1,2.49,1.52,10.51,10.51,0,0,1,2,1.89,3.51,3.51,0,0,1,.76,1.55,1.79,1.79,0,0,1-.26,1.25,3.43,3.43,0,0,1-1,1,4.86,4.86,0,0,1-1.48.61,5,5,0,0,1-1.82.07,8.08,8.08,0,0,1-2.16-.66,13.76,13.76,0,0,1-2.54-1.55A10.28,10.28,0,0,1,214.33,212.34Zm4.73,1.4a8.3,8.3,0,0,0,1.23.7,4.22,4.22,0,0,0,1.3.39,1.72,1.72,0,0,0,1.2-.25.85.85,0,0,0,.49-.82,2.08,2.08,0,0,0-.45-.94,6.47,6.47,0,0,0-.91-.9l-.91-.73-.58-.42a8.39,8.39,0,0,0-.73-.48c-.26-.16-.54-.31-.82-.45a4.12,4.12,0,0,0-.87-.31,2.78,2.78,0,0,0-.86-.06,1.68,1.68,0,0,0-.78.26.94.94,0,0,0-.45.52.93.93,0,0,0,0,.59,2,2,0,0,0,.37.62,5.43,5.43,0,0,0,.57.61c.21.19.42.37.64.54s.4.32.56.43S218.68,213.47,219.06,213.74Z" />
                <path class="cls-15" d="M221.36,207.86a3.32,3.32,0,0,1-.74-1.54,1.72,1.72,0,0,1,.25-1.24,3.14,3.14,0,0,1,1-1,4.93,4.93,0,0,1,3.31-.7,7.92,7.92,0,0,1,2.16.65,12.92,12.92,0,0,1,2.49,1.52,10.5,10.5,0,0,1,2,1.88,3.36,3.36,0,0,1,.75,1.56,1.76,1.76,0,0,1-.25,1.24,3.24,3.24,0,0,1-1,1,4.78,4.78,0,0,1-1.48.62,5.14,5.14,0,0,1-1.81.07,8.13,8.13,0,0,1-2.17-.66,13.33,13.33,0,0,1-2.54-1.56A10.27,10.27,0,0,1,221.36,207.86Zm4.74,1.4a7.77,7.77,0,0,0,1.22.71,4.6,4.6,0,0,0,1.3.39,1.73,1.73,0,0,0,1.2-.26c.37-.23.54-.5.49-.81a1.92,1.92,0,0,0-.44-.94,6.46,6.46,0,0,0-.91-.9c-.35-.29-.66-.54-.92-.73l-.57-.43c-.23-.16-.47-.32-.73-.48s-.54-.3-.83-.44a4,4,0,0,0-.86-.31,2.81,2.81,0,0,0-.86-.07,1.66,1.66,0,0,0-.79.27.87.87,0,0,0-.41,1.11,2.41,2.41,0,0,0,.37.62,5.34,5.34,0,0,0,.57.6,8.11,8.11,0,0,0,.64.55l.56.43C225.39,208.76,225.71,209,226.1,209.26Z" />
                <path class="cls-15" d="M228.4,203.39a3.51,3.51,0,0,1-.75-1.54,1.8,1.8,0,0,1,.25-1.25,3.33,3.33,0,0,1,1-1,4.77,4.77,0,0,1,1.5-.63,5.14,5.14,0,0,1,1.81-.07,7.68,7.68,0,0,1,2.16.64,12.82,12.82,0,0,1,2.49,1.52,10.51,10.51,0,0,1,2,1.89,3.51,3.51,0,0,1,.76,1.55,1.79,1.79,0,0,1-.26,1.25,3.43,3.43,0,0,1-1,1,4.86,4.86,0,0,1-1.48.61,4.76,4.76,0,0,1-1.82.07,7.63,7.63,0,0,1-2.16-.66,13.76,13.76,0,0,1-2.54-1.55A10.28,10.28,0,0,1,228.4,203.39Zm4.73,1.4a8.3,8.3,0,0,0,1.23.7,4.24,4.24,0,0,0,1.3.4,1.74,1.74,0,0,0,1.2-.26.85.85,0,0,0,.49-.82,2,2,0,0,0-.45-.93A6,6,0,0,0,236,203l-.91-.73-.58-.42c-.22-.16-.47-.32-.73-.48s-.54-.31-.82-.45a4.76,4.76,0,0,0-.87-.31,2.78,2.78,0,0,0-.86-.06,1.68,1.68,0,0,0-.78.26.94.94,0,0,0-.45.52.93.93,0,0,0,0,.59,2.2,2.2,0,0,0,.37.63,5.34,5.34,0,0,0,.57.6c.21.19.42.37.64.54s.4.32.56.43S232.75,204.52,233.13,204.79Z" />
                <path class="cls-15" d="M192.44,191.43c.43,3.69-1.32,7.31-5.29,9.83-7.27,4.62-19.21,3.8-26.68-1.83s-7.63-14-.37-18.58c4.28-2.72,10.18-3.56,15.84-2.63l1.66-4.45c-7.91-1.47-16.29-.39-22.3,3.43-9.86,6.27-9.64,17.55.49,25.2s26.34,8.76,36.2,2.49c5.55-3.53,7.9-8.64,7.1-13.79Z" />
                <polygon class="cls-15" points="174.97 178.82 176.99 172.43 184.87 177.48 174.97 178.82" />
                <path class="cls-16" d="M162.64,196.94q-2.13-1.6-2.37-2.91a2,2,0,0,1,1.1-2.16,4.79,4.79,0,0,1,3.28-.65,7.56,7.56,0,0,1,3.59,1.52,5.78,5.78,0,0,1,1.57,1.7,4.17,4.17,0,0,1,.44,2.44c-.05.86-.07,1.51-.06,1.92a2,2,0,0,0,.25,1l3.91-2.49,2.09,1.57-6.18,3.94a7.15,7.15,0,0,1-2.12-2.33,6.06,6.06,0,0,1-.53-2.84,7.61,7.61,0,0,0-.21-2.64,3,3,0,0,0-1-1.2,3.6,3.6,0,0,0-1.57-.71,1.92,1.92,0,0,0-1.42.23.82.82,0,0,0-.45,1c.1.39.57.9,1.41,1.54Z" />
                <path class="cls-16" d="M181.31,192.12l-1,.64,2.64,2-1.78,1.14-2.65-2L175,196.17l-2-1.53L169,187l2-1.29,7.47,5.64,1-.64Zm-4.62.4c-1.45-1.1-3.14-2.39-5.09-3.9l0,0,2.86,5.31Z" />
                <path class="cls-16" d="M184.24,192.41l-1.05.67L176.24,185l1-.67Z" />
                <path class="cls-16" d="M184.1,180.22q1.34,5.15,6.64,9.59L188.91,191q-5.13-4.39-6.45-9.35L178,184.47l-2.09-1.57,6.38-4.06Z" />
                <path class="cls-17" d="M163.61,168.38l.54-.47-88.59-61-25.78,17.8,91.74,62.91.78-.68C143.29,179.68,148,171.23,163.61,168.38Z" />
                <path class="cls-16" d="M188.33,169.71a3.31,3.31,0,0,0-.45.34c-12.57-4.77-27.76-4.21-37.87,2.22s-12.21,16.87-6.41,25.95a3.45,3.45,0,0,0-.54.28c-1.72,1.09-1.75,3-.08,4.27l11.21,8.46a5.82,5.82,0,0,0,6.16.31,5.3,5.3,0,0,0,.45-.34c10.2,3.87,22.13,4.23,31.67.79a3.81,3.81,0,0,0,3.41-.05l7.27-4.63c1.09-.69,1-2-.16-2.86a3.91,3.91,0,0,0-4.11-.36l-7.27,4.63a1.47,1.47,0,0,0-.76,1.4c-8.8,3.17-19.83,2.8-29.2-.86a2.84,2.84,0,0,0-1.23-2l-11.21-8.46a5.47,5.47,0,0,0-2.76-1c-5.48-8.34-3.61-18,5.7-23.91S175.5,167.49,187,172a2.82,2.82,0,0,0,1.22,2l11.21,8.46a5.82,5.82,0,0,0,6.15.31c1.72-1.09,1.76-3,.08-4.27L194.48,170A5.78,5.78,0,0,0,188.33,169.71Z" />
                <g class="slide-tl">
                    <path class="cls-18" d="M78.28,62.61a1.23,1.23,0,0,1,.57-.62l21.41-14.37a1.23,1.23,0,0,0-.57.62c-.3,1.17-1.56,19,4.48,31.54,5.75,12,21.09,25.39,23.36,26.9.41.17,1.1-.12,1.92-.68L108,120.37c-.82.55-1.5.85-1.92.68-2.26-1.52-17.6-14.88-23.36-26.9C76.72,81.57,78,63.78,78.28,62.61Z" />
                    <path class="cls-19" d="M155.45,145.68,134,160.05c4.32-2.89,6.28-9.08,6.42-9.54l21.41-14.37C161.73,136.6,159.76,142.79,155.45,145.68Z" />
                    <path class="cls-4" d="M117.86,111.53l21.41-14.36c.65.74,13.12,15,22.6,39l-21.41,14.37C131,126.48,118.51,112.28,117.86,111.53Z" />
                    <path class="cls-20" d="M63.69,16.16,85.1,1.79C89.84-1.39,96.51.61,97,.74L75.56,15.11C75.1,15,68.43,13,63.69,16.16Z" />
                    <path class="cls-4" d="M75.56,15.11,97,.74c12.67,22.19,16.28,41.52,16.47,42.54L92,57.65C91.83,56.63,88.22,37.29,75.56,15.11Z" />
                    <path class="cls-21" d="M75.56,15.11C88.22,37.29,91.83,56.63,92,57.65c-.1,0-2.07.58-5.12,1.51s-8.33,2.29-8.62,3.45-1.56,19,4.48,31.54c5.76,12,21.1,25.38,23.36,26.9,1.28.53,5.23-3.44,7.7-5.73s4-3.71,4-3.79c.65.75,13.12,15,22.6,39-.2.65-4.09,12.9-13.17,10.76a21.89,21.89,0,0,1-6.39-3.2c-12.07-8-33.13-29.94-47.47-58.52C57.23,64.13,56.49,30.42,60,21S75,14.93,75.56,15.11Z" />
                </g>
            </g>
        </g>
    </g>
</svg>
