<svg xmlns="http://www.w3.org/2000/svg" 
    xmlns:xlink="http://www.w3.org/1999/xlink" viewBox="0 0 284.46 283.46">
    <defs>
        <style>
        .circle{
            opacity:0;
            -webkit-transform: scale(0.5);
            transform: scale(0.5);
            transform-origin:50% 50%;
        }
        *:hover .scale-down-center {
	-webkit-animation: scale-down-center 0.5s cubic-bezier(0.250, 0.460, 0.450, 0.940) alternate both;
	        animation: scale-down-center 0.5s cubic-bezier(0.250, 0.460, 0.450, 0.940) alternate both;
}
@-webkit-keyframes scale-down-center {
  100% {
      opacity:1;
    -webkit-transform: scale(1);
            transform: scale(1);
            transform-origin:50% 100%;
  }
 0% {
     opacity:0;
    -webkit-transform: scale(0.5);
            transform: scale(0.5);
            transform-origin:50% 100%;
  }
}
@keyframes scale-down-center {
  100% {
      opacity:1;
    -webkit-transform: scale(1);
            transform: scale(1);
            transform-origin:50% 100%;
  }
  0% {
      opacity:0;
    -webkit-transform: scale(0.5);
            transform: scale(0.5);
            transform-origin:50% 100%;
  }
}

               *:hover  .slide-top {
	        -webkit-animation: slide-top 0.8s cubic-bezier(0.250, 0.460, 0.450, 0.940) infinite alternate both;
	        animation: slide-top 0.8s cubic-bezier(0.250, 0.460, 0.450, 0.940) infinite alternate both;
            }
            @-webkit-keyframes slide-top {
            0% {
            -webkit-transform: translateY(0);
            transform: translateY(0);
            }
            100% {
            -webkit-transform: translateY(-10px);
            transform: translateY(-10px);
            }
            }
            @keyframes slide-top {
            0% {
            -webkit-transform: translateY(0);
            transform: translateY(0);
            }
            100% {
            -webkit-transform: translateY(-10px);
            transform: translateY(-10px);
            }
            }
            *:hover  .slide-top-s {
	        -webkit-animation: slide-top-s 0.8s cubic-bezier(0.250, 0.460, 0.450, 0.940) infinite alternate both;
	        animation: slide-top-s 0.8s cubic-bezier(0.250, 0.460, 0.450, 0.940) infinite alternate both;
            }
            @-webkit-keyframes slide-top-s {
            0% {
            -webkit-transform: translateY(0);
            transform: translateY(0);
            }
            100% {
            -webkit-transform: translateY(10px);
            transform: translateY(10px);
            }
            }
            @keyframes slide-top-s {
            0% {
            -webkit-transform: translateY(0);
            transform: translateY(0);
            }
            100% {
            -webkit-transform: translateY(10px);
            transform: translateY(10px);
            }
            }
            .cls-1 {
                fill: #fff;
            }

            .cls-2 {
                fill: none;
                stroke: #fff;
                stroke-miterlimit: 10;
                stroke-width: 0.5px;
            }

            .cls-3,
            .cls-5 {
                fill: #002554;
            }

            .cls-3 {
                opacity: 0.5;
            }

            .cls-4 {
                fill: #707a9a;
            }

            .cls-6 {
                fill: url(#linear-gradient);
            }

            .cls-7 {
                fill: #354670;
            }

            .cls-8 {
                fill: #173d7a;
            }

            .cls-9 {
                fill: url(#linear-gradient-2);
            }

            .cls-10 {
                fill: url(#linear-gradient-3);
            }

            .cls-11 {
                fill: url(#linear-gradient-4);
            }

            .cls-12 {
                fill: #d4ecff;
            }

            .cls-13 {
                fill: #546086;
            }

            .cls-14 {
                fill: url(#linear-gradient-5);
            }

            .cls-15 {
                fill: #576288;
            }

            .cls-16 {
                fill: url(#linear-gradient-6);
            }

            .cls-17 {
                fill: url(#linear-gradient-7);
            }

            .cls-18 {
                fill: #626c8f;
            }

            .cls-19 {
                fill: url(#linear-gradient-8);
            }

            .cls-20 {
                fill: #d0b787;
            }

            .cls-21 {
                fill: #5b668b;
            }

            .cls-22 {
                fill: #6e7798;
            }

            .cls-23 {
                fill: #868da9;
            }

            .cls-24 {
                fill: #969cb5;
            }

            .cls-25 {
                fill: #5793ce;
            }

            .cls-26 {
                fill: #c1c4d3;
            }

        </style>
        <linearGradient id="linear-gradient" x1="-4117.26" y1="196.68" x2="-4087.88" y2="196.68" gradientTransform="matrix(-1, 0, 0, 1, -3957.61, 0)" gradientUnits="userSpaceOnUse">
            <stop offset="0" stop-color="#d4d7e1" />
            <stop offset="1" stop-color="#2b3e6a" />
        </linearGradient>
        <linearGradient id="linear-gradient-2" x1="-4148.94" y1="133.38" x2="-4055.3" y2="133.38" xlink:href="#linear-gradient" />
        <linearGradient id="linear-gradient-3" x1="-4206.98" y1="138.99" x2="-4163.64" y2="138.99" xlink:href="#linear-gradient" />
        <linearGradient id="linear-gradient-4" x1="-4233.5" y1="172.59" x2="-4171.44" y2="172.59" xlink:href="#linear-gradient" />
        <linearGradient id="linear-gradient-5" x1="-2490.63" y1="-1798.54" x2="-2467.77" y2="-1786.5" gradientTransform="matrix(-1, -0.58, -0.87, 0.5, -3939.61, -280.22)" xlink:href="#linear-gradient" />
        <linearGradient id="linear-gradient-6" x1="-4007.69" y1="151.51" x2="-3962.7" y2="151.51" xlink:href="#linear-gradient" />
        <linearGradient id="linear-gradient-7" x1="-4035.21" y1="186.39" x2="-3970.8" y2="186.39" xlink:href="#linear-gradient" />
        <linearGradient id="linear-gradient-8" x1="-4156.62" y1="264.13" x2="-4124.1" y2="264.13" xlink:href="#linear-gradient" />
    </defs>
    <title>svg</title>
    <g id="Layer_2" data-name="Layer 2">
        <g id="Layer_1-2" data-name="Layer 1">
            <g class="circle scale-down-center">
                <path class="cls-1" d="M77.11,237.32h0C59.79,227,50.24,213.13,50.24,198.43s9.55-28.52,26.87-38.9c35.64-21.33,93.61-21.33,129.24,0,17.33,10.37,26.87,24.19,26.87,38.89s-9.54,28.53-26.87,38.9c-17.82,10.67-41.21,16-64.62,16S94.92,248,77.11,237.32Zm.34-77.17C60.35,170.39,50.93,184,50.93,198.43s9.42,28,26.52,38.28h0c35.45,21.22,93.12,21.22,128.56,0,17.11-10.25,26.53-23.84,26.53-38.29s-9.42-28-26.53-38.28c-17.72-10.61-41-15.91-64.28-15.91S95.18,149.53,77.45,160.15Z" />
                <path class="cls-1" d="M41.62,258.68h0C14.78,242.61,0,221.21,0,198.43s14.78-44.19,41.62-60.26c55.21-33,145-33,200.22,0,26.84,16.07,41.62,37.47,41.62,60.25s-14.78,44.19-41.62,60.26c-27.6,16.52-63.85,24.79-100.11,24.78S69.22,275.2,41.62,258.68Zm.53-119.56C15.65,155,1.06,176.05,1.06,198.43s14.59,43.43,41.09,59.3h0c54.91,32.87,144.25,32.87,199.16,0,26.5-15.87,41.1-36.93,41.1-59.31s-14.6-43.44-41.09-59.3c-27.46-16.44-63.52-24.65-99.58-24.65S69.61,122.68,42.15,139.12Z" />
            </g>
            <line class="cls-2" x1="170.21" y1="255.56" x2="148.03" y2="230.16" />
            <ellipse class="cls-3" cx="147.74" cy="198.51" rx="19.79" ry="17.25" />
            <path class="cls-1" d="M160,264l21.1-17.46L204.73,266l-21.11,17.45Zm21.1-16.8L160.78,264l22.84,18.77L203.93,266Z" />
            <path class="cls-1" d="M204,179.72l45.55-37.65,34.93,28.73-45.54,37.65ZM249.53,143l-44.47,36.76,33.85,27.85,44.48-36.76Z" />
            <path class="cls-1" d="M106.15,205.56l47.2-39,36.21,29.78-47.21,39Zm47.2-38.1-46.09,38.1,35.09,28.86,46.09-38.1Z" />
            <path class="cls-1" d="M1,192.63l50.06-41.37,38.39,31.57L39.39,224.21Zm50.06-40.4L2.18,192.63l37.21,30.61,48.88-40.41Z" />
            <path class="cls-1" d="M128.46,225.77a2.33,2.33,0,0,0,2.87,0,1.47,1.47,0,0,0,0-2.36,2.36,2.36,0,0,0-2.87,0A1.47,1.47,0,0,0,128.46,225.77Z" />
            <path class="cls-1" d="M111.63,212.28a2.33,2.33,0,0,0,2.87,0,1.47,1.47,0,0,0,0-2.36,2.36,2.36,0,0,0-2.87,0A1.47,1.47,0,0,0,111.63,212.28Z" />
            <path class="cls-1" d="M166.89,216a2.74,2.74,0,0,0,2.69-1.42c.58-1,.33-2-.57-2.22a2.74,2.74,0,0,0-2.7,1.42C165.73,214.79,166,215.78,166.89,216Z" />
            <path class="cls-1" d="M147.52,232.62a2.71,2.71,0,0,0,2.69-1.42c.59-1,.33-2-.57-2.22A2.72,2.72,0,0,0,147,230.4C146.36,231.4,146.62,232.39,147.52,232.62Z" />
            <path class="cls-1" d="M108.26,243.42a2.33,2.33,0,0,0,2.87,0,1.47,1.47,0,0,0,0-2.36,2.36,2.36,0,0,0-2.87,0A1.47,1.47,0,0,0,108.26,243.42Z" />
            <path class="cls-1" d="M219.72,195.46a2.57,2.57,0,0,0,3.15,0,1.62,1.62,0,0,0,0-2.6,2.57,2.57,0,0,0-3.15,0A1.62,1.62,0,0,0,219.72,195.46Z" />
            <path class="cls-1" d="M64.64,203.53A2.92,2.92,0,0,0,67.49,202c.62-1.07.34-2.13-.62-2.35A2.9,2.9,0,0,0,64,201.18C63.4,202.25,63.68,203.3,64.64,203.53Z" />
            <path class="cls-1" d="M93.81,100.63a2.9,2.9,0,0,0,2.85-1.53C97.28,98,97,97,96,96.75a2.9,2.9,0,0,0-2.85,1.53C92.57,99.36,92.85,100.41,93.81,100.63Z" />
            <path class="cls-1" d="M169.73,257.25a2.44,2.44,0,0,0,2.61-1.05c.6-.89.41-1.85-.43-2.15a2.43,2.43,0,0,0-2.6,1C168.71,256,168.9,257,169.73,257.25Z" />
            <path class="cls-4" d="M134,200.42v-3.74h.78a12,12,0,0,1,3.52-4.71,17,17,0,0,1,20.78,0,12,12,0,0,1,3.52,4.71h.78v3.7h0a11.12,11.12,0,0,1-4.3,8.6,17,17,0,0,1-20.78,0A11.11,11.11,0,0,1,134,200.42Z" />
            <path class="cls-5" d="M138.28,192c5.14-4.23,13.13-4.66,18.87-1.31v19.63c-5.74,3.35-13.73,2.92-18.87-1.31a11.11,11.11,0,0,1-4.3-8.56v-3.74h.78A12,12,0,0,1,138.28,192Z" />
            <ellipse class="cls-6" cx="148.67" cy="196.68" rx="14.69" ry="12.11" />
            <path class="cls-1" d="M138.28,205.24a17,17,0,0,0,20.78,0,11.21,11.21,0,0,0,4.28-8.18,11,11,0,0,1-4.28,8.95,17,17,0,0,1-20.78,0,11,11,0,0,1-4.28-8.95A11.14,11.14,0,0,0,138.28,205.24Z" />
            <path class="cls-4" d="M139.26,196.93a1.74,1.74,0,0,0,2.09.14l9-7.32a1,1,0,0,0,.36-.74h0V162.74l-11.9,7.14,0,26V196h0A1.35,1.35,0,0,0,139.26,196.93Z" />
            <polygon class="cls-7" points="150.67 172.33 150.67 182.54 138.75 192.36 138.76 179.38 148.99 170.95 150.67 172.33" />
            <path class="cls-5" d="M138.77,169.88l0,26V196h0a1.35,1.35,0,0,0,.51.89,1.81,1.81,0,0,0,1,.42l.05-28.4Z" />
            <path class="cls-8" d="M139.13,169.08l9-7.32a1.72,1.72,0,0,1,2.09.13h0a1.09,1.09,0,0,1,.15,1.73l-8.95,7.31a1.74,1.74,0,0,1-2.1-.13h0A1.08,1.08,0,0,1,139.13,169.08Z" />
            <path class="cls-1" d="M141.35,171.1l9-7.32a1,1,0,0,0,.36-.76,1,1,0,0,1-.35.6l-8.95,7.31a1.74,1.74,0,0,1-2.1-.13h0a1.29,1.29,0,0,1-.5-1,1.22,1.22,0,0,0,.49,1.13h0A1.72,1.72,0,0,0,141.35,171.1Z" />
            <path class="cls-4" d="M98.15,117.92l87.19-71.86c.8-.66,1.53-.7,2.09-.24h0l2.73,2.25-1.66.34a10.07,10.07,0,0,1,.06,1.14v85.94c0,3.39-1.45,7.32-3.22,8.79L98.28,216l.45,2.57L96,216.37h0c-.69-.56-1.12-1.86-1.12-3.72V126.71C94.93,123.32,96.37,119.39,98.15,117.92Z" />
            <path class="cls-5" d="M96,216.37h0c-.69-.56-1.12-1.86-1.12-3.72V126.71a15.13,15.13,0,0,1,.79-4.65l58.28,48L98.28,216l.45,2.57Z" />
            <path class="cls-9" d="M100.91,218.41l87.19-71.86c1.78-1.46,3.22-5.4,3.22-8.79V51.82c0-3.38-1.44-4.94-3.22-3.47l-87.19,71.86c-1.78,1.46-3.22,5.4-3.22,8.78v85.95C97.69,218.32,99.13,219.88,100.91,218.41Z" />
            <path class="cls-1" d="M100.48,120l87.19-71.86a1.59,1.59,0,0,1,2-.32,1.84,1.84,0,0,0-1.57.52l-87.19,71.86c-1.78,1.46-3.22,5.4-3.22,8.78v85.94c0,1.95.48,3.29,1.22,3.8-1-.24-1.65-1.69-1.65-4V128.8C97.26,125.41,98.7,121.48,100.48,120Z" />
            <path class="cls-5" d="M100.64,215.56l87.73-72.3a4.57,4.57,0,0,0,1.14-3.11V52.42c0-1.19-.51-1.74-1.14-1.23L100.64,123.5a4.55,4.55,0,0,0-1.14,3.11v87.72C99.5,215.53,100,216.08,100.64,215.56Z" />
            <polygon class="cls-2" points="117.52 250.39 83.85 278.82 67.16 264.89 101.48 237.03 117.52 250.39" />
            <polygon class="cls-2" points="110.32 85 82.66 108.37 71.33 98.17 98.87 75.81 110.32 85" />
            <line class="cls-2" x1="110.22" y1="241.28" x2="129.89" y2="224.59" />
            <polyline class="cls-2" points="220.74 194.72 184.37 230.8 168.29 214.59" />
            <g class="Laptop slide-top">
                <path d="M212.022 179.319L215.527 178.465L249.801 150.813C250.196 150.563 250.647 150.445 251.1 150.473C251.553 150.501 251.99 150.674 252.359 150.973L275.208 169.566L276.999 169.132V171.65C276.998 171.832 276.957 172.011 276.878 172.171C276.8 172.33 276.688 172.464 276.551 172.562L239.208 202.688C238.812 202.938 238.361 203.057 237.908 203.028C237.455 203 237.018 202.827 236.649 202.529L212.649 182.994C212.465 182.871 212.312 182.698 212.202 182.491C212.093 182.284 212.031 182.049 212.022 181.808V179.319Z" fill="#002554"/>
<path d="M212.65 180.491L236.65 200.026C237.019 200.324 237.456 200.497 237.909 200.525C238.362 200.553 238.813 200.435 239.209 200.185L276.552 170.058C277.218 169.523 277.128 168.611 276.373 167.975L252.373 148.498C252.003 148.201 251.566 148.029 251.112 148.003C250.659 147.978 250.209 148.099 249.814 148.354L212.484 178.48C211.754 178.957 211.882 179.884 212.65 180.491Z" fill="white"/>
<path opacity="0.5" d="M212.649 180.173L236.65 199.707C237.02 200.005 237.457 200.177 237.91 200.203C238.364 200.228 238.814 200.107 239.208 199.852L276.552 169.726C276.665 169.646 276.762 169.541 276.837 169.416C276.912 169.291 276.963 169.151 276.987 169.002C277.012 169.207 276.985 169.416 276.908 169.603C276.83 169.791 276.707 169.949 276.552 170.059L239.208 200.185C238.812 200.436 238.362 200.554 237.909 200.526C237.456 200.497 237.019 200.324 236.65 200.026L212.649 180.492C212.449 180.354 212.286 180.158 212.178 179.923C212.07 179.688 212.02 179.424 212.035 179.16C212.072 179.367 212.145 179.564 212.251 179.738C212.356 179.912 212.492 180.06 212.649 180.173V180.173Z" fill="#002554"/>
<path d="M214.582 176.758L241.703 198.058L276.411 170.189L249.648 148.426L214.582 176.758Z" fill="#002554"/>
<path d="M226.262 187.917C226.594 187.491 226.394 186.679 225.817 186.103C225.239 185.527 224.502 185.405 224.17 185.83C223.838 186.256 224.038 187.068 224.615 187.644C225.193 188.22 225.93 188.342 226.262 187.917Z" stroke="white" stroke-width="0.5" stroke-miterlimit="10"/>
<path d="M226.382 187.746C226.713 187.32 226.514 186.508 225.936 185.932C225.359 185.356 224.621 185.234 224.29 185.66C223.958 186.086 224.157 186.898 224.735 187.474C225.313 188.05 226.05 188.172 226.382 187.746Z" fill="#C1C4D3"/>
            </g>
            <g class="phone slide-top">
                <path class="cls-3" d="M70.2,264.71l12.94,10.67a1.59,1.59,0,0,0,2,.11l28.37-23.37a1,1,0,0,0-.14-1.61l-12.94-10.67a1.62,1.62,0,0,0-2-.12L70.06,263.1A1,1,0,0,0,70.2,264.71Z" />
                <path class="cls-13" d="M70.61,261l2.57-.64,25.08-20.67a1.56,1.56,0,0,1,1.88.12l11.61,9.57,1.31-.32v1.9h0a.85.85,0,0,1-.32.67L85.42,274.1a1.56,1.56,0,0,1-1.89-.11L71.07,263.71a1.13,1.13,0,0,1-.46-.89h0Z" />
                <path class="cls-14" d="M71.07,261.83l12.46,10.28a1.57,1.57,0,0,0,1.89.11l27.32-22.52a1,1,0,0,0-.14-1.55l-12.46-10.28a1.54,1.54,0,0,0-1.88-.11L70.93,260.28A1,1,0,0,0,71.07,261.83Z" />
                <path class="cls-1" d="M71.07,261.59l12.46,10.27a1.56,1.56,0,0,0,1.89.11l27.32-22.51a.88.88,0,0,0,.31-.55.86.86,0,0,1-.31.79L85.42,272.22a1.57,1.57,0,0,1-1.89-.11L71.07,261.83a1.11,1.11,0,0,1-.45-1A1.16,1.16,0,0,0,71.07,261.59Z" />
                <polygon class="cls-5" points="71.05 260.18 85.53 272.12 112.62 249.79 98.14 237.86 71.05 260.18" />
                <path class="cls-15" d="M104.5,242.53l1.92,1.59a.26.26,0,0,0,.29,0h0a.16.16,0,0,0,0-.24l-1.93-1.58a.23.23,0,0,0-.28,0l0,0A.15.15,0,0,0,104.5,242.53Z" />
            </g>
            <g class="Laptop slide-top">
                <path class="cls-3" d="M48.91,160.4,77.6,187.12,41.52,217.34s-2.23,1-3.39,0-29-25.75-29-25.75Z" />
                <path class="cls-5" d="M5.16,141.79,40.22,112.9a1,1,0,0,1,1.18-.21h0l.07,0h0l1.27.69-1.14.8s0,0,0,.08l6.19,40.22c.29,1.85-.29,4-1.28,4.84l-34.21,28.2.12,2.07-1.38-.77a2.87,2.87,0,0,1-1-2l-6.2-40.22C3.6,144.78,4.17,142.61,5.16,141.79Z" />
                <path class="cls-4" d="M5.16,141.79,40.22,112.9a1,1,0,0,1,1.18-.21h0l.07,0h0l1.27.69-1.14.8s0,0,0,.08l4.24,27.57L28.72,160.94,4.05,143.79A4,4,0,0,1,5.16,141.79Z" />
                <path class="cls-7" d="M6.48,147.5l-2.67-1.63a5.93,5.93,0,0,1,1.08-3.81l4.23,2.54Z" />
                <path class="cls-16" d="M13.67,189.43l35.06-28.89c1-.82,1.56-3,1.27-4.85l-6.19-40.21c-.29-1.85-1.32-2.7-2.31-1.88L6.44,142.49c-1,.82-1.56,3-1.28,4.84l6.2,40.22C11.64,189.4,12.68,190.25,13.67,189.43Z" />
                <path class="cls-1" d="M6.1,142.32l35.06-28.9a1,1,0,0,1,1.38-.08,1.09,1.09,0,0,0-1,.26L6.44,142.49c-1,.82-1.56,3-1.28,4.84l6.2,40.22a3,3,0,0,0,.93,2c-.59-.18-1.09-.95-1.27-2.14L4.83,147.16C4.54,145.3,5.11,143.13,6.1,142.32Z" />
                <path class="cls-1" d="M14.43,186.67l33-27.16c.91-.75,1.43-2.73,1.17-4.43L42.86,118c-.26-1.7-1.21-2.47-2.12-1.73l-33,27.16c-.9.75-1.43,2.74-1.17,4.43L12.31,185C12.57,186.65,13.52,187.42,14.43,186.67Z" />
                <path class="cls-5" d="M14.43,186.67l33-27.16c.91-.75,1.43-2.73,1.17-4.43L42.86,118c-.26-1.7-1.21-2.47-2.12-1.73l-33,27.16c-.9.75-1.43,2.74-1.17,4.43L12.31,185C12.57,186.65,13.52,187.42,14.43,186.67Z" />
                <path class="cls-7" d="M14.14,186.5l33-27.16c.91-.75,1.43-2.73,1.17-4.43l-5.71-37.06a2.81,2.81,0,0,0-.83-1.79c.52.19,1,.89,1.12,2l5.71,37.06c.26,1.7-.26,3.68-1.17,4.43l-33,27.16a1,1,0,0,1-1.29.06A1,1,0,0,0,14.14,186.5Z" />
                <path class="cls-5" d="M13.19,190.69l4.79-.91,30.93-25.49a3.17,3.17,0,0,1,3.87.23L74.7,182.58l2.9-.55v2.35h0a1.76,1.76,0,0,1-.66,1.45L41.87,214.72a3.17,3.17,0,0,1-3.87-.23L14.13,194.82a2.36,2.36,0,0,1-.94-1.85h0Z" />
                <path class="cls-4" d="M36.43,174.58l2.2-1.81H62.79l11.91,9.81,2.9-.55v2.35h0a1.76,1.76,0,0,1-.66,1.45L41.87,214.72a2.72,2.72,0,0,1-2,.53Z" />
                <path class="cls-7" d="M76.31,182.27,77.6,182v2.35h0a1.76,1.76,0,0,1-.66,1.45l-.62.51Z" />
                <path class="cls-7" d="M41.52,215a3.27,3.27,0,0,1-3.29-.29v-5.23h3.29Z" />
                <path class="cls-17" d="M41.87,212.38l35.06-28.9c1-.81.86-2.24-.28-3.19L52.78,160.63a3.17,3.17,0,0,0-3.87-.23L13.85,189.29a2,2,0,0,0,.28,3.19L38,212.15A3.2,3.2,0,0,0,41.87,212.38Z" />
                <path class="cls-1" d="M14.13,191.62,38,211.29a3.19,3.19,0,0,0,3.87.23l35.06-28.89a1.79,1.79,0,0,0,.61-1,1.77,1.77,0,0,1-.61,1.82l-35.06,28.9a3.2,3.2,0,0,1-3.87-.23L14.13,192.48a2.24,2.24,0,0,1-.89-2.23A2.5,2.5,0,0,0,14.13,191.62Z" />
                <path class="cls-5" d="M62,173.92l1.58-1.31a.25.25,0,0,0,0-.41l-1.87-1.54a.41.41,0,0,0-.5,0l-1.59,1.31a.26.26,0,0,0,0,.41l1.87,1.54A.42.42,0,0,0,62,173.92Z" />
                <path class="cls-5" d="M59.57,175.94l1.58-1.31a.25.25,0,0,0,0-.41l-1.87-1.54a.41.41,0,0,0-.5,0L57.16,174a.25.25,0,0,0,0,.4l1.87,1.55A.42.42,0,0,0,59.57,175.94Z" />
                <path class="cls-5" d="M57.12,178l1.58-1.31a.25.25,0,0,0,0-.41L56.8,174.7a.41.41,0,0,0-.5,0L54.71,176a.26.26,0,0,0,0,.41l1.87,1.55A.42.42,0,0,0,57.12,178Z" />
                <path class="cls-5" d="M53.73,176.29,55.32,175a.26.26,0,0,0,0-.41l-1.57-1.29a.41.41,0,0,0-.5,0l-1.58,1.3a.26.26,0,0,0,0,.41l1.57,1.3A.42.42,0,0,0,53.73,176.29Z" />
                <path class="cls-5" d="M51.28,178.31,52.87,177a.26.26,0,0,0,0-.41l-1.57-1.29a.39.39,0,0,0-.5,0l-1.58,1.3a.26.26,0,0,0,0,.41l1.57,1.3A.42.42,0,0,0,51.28,178.31Z" />
                <path class="cls-5" d="M48.83,180.33,50.42,179a.26.26,0,0,0,0-.41l-1.57-1.3a.41.41,0,0,0-.5,0l-1.58,1.3a.26.26,0,0,0,0,.41l1.58,1.3A.41.41,0,0,0,48.83,180.33Z" />
                <path class="cls-5" d="M46.38,182.35,48,181a.26.26,0,0,0,0-.41l-1.57-1.3a.42.42,0,0,0-.5,0l-1.58,1.31a.26.26,0,0,0,0,.41l1.58,1.3A.41.41,0,0,0,46.38,182.35Z" />
                <path class="cls-5" d="M43.93,184.36l1.59-1.3a.26.26,0,0,0,0-.41l-1.57-1.3a.41.41,0,0,0-.49,0l-1.59,1.31a.26.26,0,0,0,0,.41l1.58,1.29A.38.38,0,0,0,43.93,184.36Z" />
                <path class="cls-5" d="M41.48,186.38l1.59-1.3a.26.26,0,0,0,0-.41l-1.57-1.3a.41.41,0,0,0-.49,0l-1.59,1.31a.26.26,0,0,0,0,.41L41,186.35A.39.39,0,0,0,41.48,186.38Z" />
                <path class="cls-5" d="M39,188.4l1.59-1.31c.13-.1.11-.28,0-.4L39,185.39a.41.41,0,0,0-.49,0l-1.59,1.31a.26.26,0,0,0,0,.41l1.57,1.29A.39.39,0,0,0,39,188.4Z" />
                <path class="cls-5" d="M36.58,190.42l1.59-1.31c.13-.1.11-.28,0-.41l-1.58-1.29a.39.39,0,0,0-.49,0l-1.59,1.31c-.13.1-.11.28,0,.41l1.57,1.29A.39.39,0,0,0,36.58,190.42Z" />
                <path class="cls-5" d="M34.14,192.44l1.58-1.31a.26.26,0,0,0,0-.41l-1.58-1.29a.39.39,0,0,0-.49,0L32,190.71c-.13.1-.11.28,0,.4l1.57,1.3A.42.42,0,0,0,34.14,192.44Z" />
                <path class="cls-5" d="M31.69,194.46l1.58-1.31a.26.26,0,0,0,0-.41l-1.58-1.29a.39.39,0,0,0-.49,0l-1.59,1.3a.26.26,0,0,0,0,.41l1.57,1.3A.42.42,0,0,0,31.69,194.46Z" />
                <path class="cls-5" d="M50.12,175.33l1.59-1.3a.26.26,0,0,0,0-.41l-1.57-1.3a.42.42,0,0,0-.5,0L48,173.6a.26.26,0,0,0,0,.41l1.58,1.29A.38.38,0,0,0,50.12,175.33Z" />
                <path class="cls-5" d="M52.61,173.28l1.58-1.3a.25.25,0,0,0,0-.41l-1.57-1.3a.42.42,0,0,0-.5,0l-1.59,1.31a.26.26,0,0,0,0,.41l1.57,1.29A.39.39,0,0,0,52.61,173.28Z" />
                <path class="cls-5" d="M55.1,171.23l3.41-2.81a.25.25,0,0,0,0-.41l-1.57-1.3a.42.42,0,0,0-.5,0L53,169.5a.26.26,0,0,0,0,.41l1.57,1.29A.41.41,0,0,0,55.1,171.23Z" />
                <path class="cls-5" d="M53.36,168.74l2.77-2.29a.26.26,0,0,0,0-.41l-1.57-1.29a.39.39,0,0,0-.49,0L51.25,167a.26.26,0,0,0,0,.41l1.57,1.3A.42.42,0,0,0,53.36,168.74Z" />
                <path class="cls-5" d="M47.67,177.35,49.26,176c.13-.1.11-.28,0-.4l-1.57-1.3a.42.42,0,0,0-.5,0l-1.58,1.31a.26.26,0,0,0,0,.41l1.58,1.29A.39.39,0,0,0,47.67,177.35Z" />
                <path class="cls-5" d="M45.22,179.37l1.59-1.31c.13-.1.11-.28,0-.41l-1.57-1.29a.39.39,0,0,0-.49,0l-1.59,1.31c-.13.1-.11.28,0,.41l1.58,1.29A.39.39,0,0,0,45.22,179.37Z" />
                <path class="cls-5" d="M42.77,181.39l1.59-1.31a.26.26,0,0,0,0-.41l-1.57-1.29a.39.39,0,0,0-.49,0l-1.59,1.31c-.13.1-.11.28,0,.4l1.57,1.3A.41.41,0,0,0,42.77,181.39Z" />
                <path class="cls-5" d="M40.32,183.41l1.59-1.31a.26.26,0,0,0,0-.41L40.3,180.4a.39.39,0,0,0-.49,0l-1.59,1.3a.26.26,0,0,0,0,.41l1.57,1.3A.41.41,0,0,0,40.32,183.41Z" />
                <path class="cls-5" d="M37.87,185.43l1.59-1.31a.26.26,0,0,0,0-.41l-1.58-1.29a.38.38,0,0,0-.49,0l-1.59,1.3a.26.26,0,0,0,0,.41l1.57,1.3A.41.41,0,0,0,37.87,185.43Z" />
                <path class="cls-5" d="M35.43,187.45,37,186.14a.26.26,0,0,0,0-.41l-1.58-1.3a.41.41,0,0,0-.49,0l-1.59,1.31a.26.26,0,0,0,0,.41l1.57,1.3A.42.42,0,0,0,35.43,187.45Z" />
                <path class="cls-5" d="M33,189.46l1.58-1.3a.26.26,0,0,0,0-.41L33,186.45a.41.41,0,0,0-.49,0l-1.59,1.31a.26.26,0,0,0,0,.41l1.57,1.3A.41.41,0,0,0,33,189.46Z" />
                <path class="cls-5" d="M30.53,191.48l1.58-1.3a.26.26,0,0,0,0-.41l-1.57-1.3a.42.42,0,0,0-.5,0l-1.59,1.31a.26.26,0,0,0,0,.41L30,191.45A.39.39,0,0,0,30.53,191.48Z" />
                <path class="cls-5" d="M28.08,193.5l1.58-1.3a.26.26,0,0,0,0-.41l-1.57-1.3a.42.42,0,0,0-.5,0L26,191.77a.26.26,0,0,0,0,.41l1.57,1.29A.41.41,0,0,0,28.08,193.5Z" />
                <path class="cls-5" d="M23.72,197.09l3.46-2.85a.26.26,0,0,0,0-.41l-1.57-1.3a.41.41,0,0,0-.5,0l-3.46,2.85a.26.26,0,0,0,0,.41l1.58,1.29A.39.39,0,0,0,23.72,197.09Z" />
                <path class="cls-5" d="M19,193.16l2.92-2.41a.25.25,0,0,0,0-.41l-1.57-1.29a.41.41,0,0,0-.5,0l-2.92,2.41a.26.26,0,0,0,0,.41l1.57,1.29A.39.39,0,0,0,19,193.16Z" />
                <path class="cls-5" d="M43.38,177,45,175.65a.26.26,0,0,0,0-.41l-1.57-1.3a.39.39,0,0,0-.49,0l-1.59,1.3a.26.26,0,0,0,0,.41l1.58,1.3A.41.41,0,0,0,43.38,177Z" />
                <path class="cls-5" d="M45.89,174.89l1.59-1.31a.26.26,0,0,0,0-.41l-1.57-1.29a.38.38,0,0,0-.49,0l-1.59,1.3a.26.26,0,0,0,0,.41l1.58,1.3A.41.41,0,0,0,45.89,174.89Z" />
                <path class="cls-5" d="M48.4,172.82,50,171.51a.26.26,0,0,0,0-.41l-1.57-1.29a.39.39,0,0,0-.49,0l-1.59,1.3a.26.26,0,0,0,0,.41l1.57,1.3A.41.41,0,0,0,48.4,172.82Z" />
                <path class="cls-5" d="M50.91,170.75l1.59-1.31a.26.26,0,0,0,0-.41l-1.57-1.29a.39.39,0,0,0-.49,0L48.81,169c-.13.1-.11.28,0,.41l1.57,1.29A.41.41,0,0,0,50.91,170.75Z" />
                <path class="cls-5" d="M40.93,179l1.59-1.31a.26.26,0,0,0,0-.41L40.91,176a.41.41,0,0,0-.49,0l-1.59,1.31a.26.26,0,0,0,0,.41l1.57,1.3A.41.41,0,0,0,40.93,179Z" />
                <path class="cls-5" d="M38.48,181l1.59-1.3a.26.26,0,0,0,0-.41L38.46,178a.41.41,0,0,0-.49,0l-1.59,1.31a.26.26,0,0,0,0,.41L38,181A.39.39,0,0,0,38.48,181Z" />
                <path class="cls-5" d="M36,183l1.59-1.3a.26.26,0,0,0,0-.41L36,180a.41.41,0,0,0-.49,0l-1.59,1.31a.26.26,0,0,0,0,.41L35.54,183A.38.38,0,0,0,36,183Z" />
                <path class="cls-5" d="M33.59,185l1.58-1.3a.26.26,0,0,0,0-.41L33.56,182a.41.41,0,0,0-.49,0l-1.59,1.31a.26.26,0,0,0,0,.41L33.09,185A.41.41,0,0,0,33.59,185Z" />
                <path class="cls-5" d="M31.14,187.05l1.58-1.31c.13-.1.11-.28,0-.41L31.11,184a.39.39,0,0,0-.49,0L29,185.32a.26.26,0,0,0,0,.41L30.64,187A.41.41,0,0,0,31.14,187.05Z" />
                <path class="cls-5" d="M28.69,189.07l1.58-1.31a.26.26,0,0,0,0-.41l-1.57-1.29a.41.41,0,0,0-.5,0l-1.59,1.31c-.13.1-.11.28,0,.41L28.19,189A.42.42,0,0,0,28.69,189.07Z" />
                <path class="cls-5" d="M26.24,191.09l1.58-1.31a.26.26,0,0,0,0-.41l-1.57-1.29a.41.41,0,0,0-.5,0l-1.59,1.3a.26.26,0,0,0,0,.41l1.57,1.3A.42.42,0,0,0,26.24,191.09Z" />
                <path class="cls-5" d="M23.79,193.11l1.58-1.31a.26.26,0,0,0,0-.41l-1.57-1.29a.39.39,0,0,0-.5,0l-1.59,1.3a.26.26,0,0,0,0,.41l1.57,1.3A.42.42,0,0,0,23.79,193.11Z" />
                <path class="cls-5" d="M21.34,195.13l1.58-1.31a.25.25,0,0,0,0-.41l-1.57-1.3a.42.42,0,0,0-.5,0l-1.59,1.31a.26.26,0,0,0,0,.41l1.57,1.3A.42.42,0,0,0,21.34,195.13Z" />
                <path class="cls-5" d="M44.67,172l1.59-1.3a.26.26,0,0,0,0-.41L44.65,169a.42.42,0,0,0-.5,0l-1.58,1.31a.26.26,0,0,0,0,.41l1.58,1.29A.38.38,0,0,0,44.67,172Z" />
                <path class="cls-5" d="M47.11,170l1.59-1.3a.26.26,0,0,0,0-.41l-1.57-1.3a.42.42,0,0,0-.5,0L45,168.22a.25.25,0,0,0,0,.41l1.57,1.3A.41.41,0,0,0,47.11,170Z" />
                <path class="cls-5" d="M49.55,168l1.58-1.31a.26.26,0,0,0,0-.41l-1.57-1.3a.42.42,0,0,0-.5,0l-1.59,1.31a.26.26,0,0,0,0,.41l1.57,1.3A.42.42,0,0,0,49.55,168Z" />
                <path class="cls-5" d="M52,165.94l1.59-1.31a.26.26,0,0,0,0-.41L52,162.93a.38.38,0,0,0-.49,0l-1.59,1.3a.26.26,0,0,0,0,.41l1.57,1.3A.41.41,0,0,0,52,165.94Z" />
                <path class="cls-5" d="M49.48,163.87l1.58-1.31a.25.25,0,0,0,0-.41l-.52-.42a.41.41,0,0,0-.5,0L48.43,163a.25.25,0,0,0,0,.41l.52.43A.41.41,0,0,0,49.48,163.87Z" />
                <path class="cls-5" d="M46.3,166.49l1.58-1.3a.25.25,0,0,0,0-.41l-.52-.43a.41.41,0,0,0-.5,0l-1.58,1.31a.25.25,0,0,0,0,.41l.52.42A.41.41,0,0,0,46.3,166.49Z" />
                <path class="cls-5" d="M43.87,168.49l1.59-1.3a.26.26,0,0,0,0-.41l-.52-.43a.41.41,0,0,0-.5,0l-1.58,1.31c-.13.1-.11.28,0,.41l.52.42A.39.39,0,0,0,43.87,168.49Z" />
                <path class="cls-5" d="M41.44,170.49l1.59-1.3a.26.26,0,0,0,0-.41l-.52-.43a.39.39,0,0,0-.49,0l-1.59,1.31a.26.26,0,0,0,0,.41l.52.42A.38.38,0,0,0,41.44,170.49Z" />
                <path class="cls-5" d="M39,172.49l1.58-1.3a.26.26,0,0,0,0-.41l-.52-.43a.41.41,0,0,0-.5,0L38,171.63a.26.26,0,0,0,0,.41l.52.42A.39.39,0,0,0,39,172.49Z" />
                <path class="cls-5" d="M25.47,183.66l1.58-1.31a.25.25,0,0,0,0-.4l-.52-.43a.41.41,0,0,0-.5,0l-1.59,1.31a.25.25,0,0,0,0,.4l.52.43A.41.41,0,0,0,25.47,183.66Z" />
                <path class="cls-5" d="M23,185.66l1.59-1.3a.26.26,0,0,0,0-.41l-.52-.43a.41.41,0,0,0-.5,0L22,184.8c-.13.1-.11.28,0,.41l.52.42A.41.41,0,0,0,23,185.66Z" />
                <path class="cls-5" d="M20.61,187.66l1.59-1.3a.26.26,0,0,0,0-.41l-.52-.43a.39.39,0,0,0-.49,0l-1.59,1.31c-.13.1-.11.28,0,.41l.52.42A.39.39,0,0,0,20.61,187.66Z" />
                <path class="cls-5" d="M18.18,189.66l1.59-1.3a.26.26,0,0,0,0-.41l-.52-.43a.41.41,0,0,0-.5,0l-1.59,1.31a.26.26,0,0,0,0,.41l.52.42A.38.38,0,0,0,18.18,189.66Z" />
                <path class="cls-5" d="M42.22,174l1.59-1.3a.26.26,0,0,0,0-.41L42.2,171a.41.41,0,0,0-.49,0l-1.59,1.31a.26.26,0,0,0,0,.41L41.73,174A.39.39,0,0,0,42.22,174Z" />
                <path class="cls-5" d="M39.77,176l1.59-1.31c.13-.1.11-.28,0-.41L39.75,173a.39.39,0,0,0-.49,0l-1.59,1.31a.26.26,0,0,0,0,.41L39.28,176A.39.39,0,0,0,39.77,176Z" />
                <path class="cls-5" d="M37.32,178l1.59-1.31a.26.26,0,0,0,0-.41L37.3,175a.39.39,0,0,0-.49,0l-1.59,1.31c-.13.1-.11.28,0,.41L36.83,178A.39.39,0,0,0,37.32,178Z" />
                <path class="cls-5" d="M34.88,180l1.58-1.31a.26.26,0,0,0,0-.41L34.85,177a.39.39,0,0,0-.49,0l-1.59,1.3a.26.26,0,0,0,0,.41l1.57,1.3A.42.42,0,0,0,34.88,180Z" />
                <path class="cls-5" d="M32.43,182.06,34,180.75a.26.26,0,0,0,0-.41l-1.58-1.29a.38.38,0,0,0-.49,0l-1.59,1.3a.26.26,0,0,0,0,.41l1.57,1.3A.42.42,0,0,0,32.43,182.06Z" />
                <path class="cls-5" d="M30,184.08l1.58-1.31a.26.26,0,0,0,0-.41L30,181.06a.42.42,0,0,0-.5,0l-1.59,1.31a.26.26,0,0,0,0,.41l1.57,1.3A.42.42,0,0,0,30,184.08Z" />
                <path class="cls-5" d="M27.53,186.1l1.58-1.31a.26.26,0,0,0,0-.41l-1.57-1.3a.42.42,0,0,0-.5,0l-1.59,1.31a.26.26,0,0,0,0,.41l1.57,1.3A.42.42,0,0,0,27.53,186.1Z" />
                <path class="cls-5" d="M25.08,188.11l1.58-1.3a.26.26,0,0,0,0-.41l-1.57-1.3a.42.42,0,0,0-.5,0L23,186.38a.26.26,0,0,0,0,.41l1.57,1.29A.39.39,0,0,0,25.08,188.11Z" />
                <path class="cls-5" d="M22.63,190.13l1.58-1.3a.25.25,0,0,0,0-.41l-1.57-1.3a.42.42,0,0,0-.5,0l-1.59,1.31a.26.26,0,0,0,0,.41l1.57,1.29A.41.41,0,0,0,22.63,190.13Z" />
                <path class="cls-5" d="M56.23,174.23l4.67-3.85a.26.26,0,0,0,0-.41l-1.57-1.29a.41.41,0,0,0-.5,0l-4.67,3.85a.26.26,0,0,0,0,.41l1.57,1.29A.41.41,0,0,0,56.23,174.23Z" />
                <path class="cls-5" d="M26.14,199l4.67-3.85a.26.26,0,0,0,0-.41l-1.57-1.29a.41.41,0,0,0-.5,0L24,197.3a.26.26,0,0,0,0,.41L25.64,199A.39.39,0,0,0,26.14,199Z" />
                <path class="cls-5" d="M35.93,195.42l1.59-1.31a.26.26,0,0,0,0-.41l-1.87-1.54a.41.41,0,0,0-.5,0l-1.58,1.31a.25.25,0,0,0,0,.41l1.87,1.54A.42.42,0,0,0,35.93,195.42Z" />
                <path class="cls-5" d="M53.72,180.76l2.54-2.09a.26.26,0,0,0,0-.41l-1.87-1.54a.39.39,0,0,0-.5,0l-2.54,2.09a.26.26,0,0,0,0,.41l1.87,1.54A.42.42,0,0,0,53.72,180.76Z" />
                <path class="cls-5" d="M38.29,193.47l2.54-2.09a.26.26,0,0,0,0-.41l-1.87-1.54a.42.42,0,0,0-.5,0l-2.53,2.09a.25.25,0,0,0,0,.41l1.87,1.54A.39.39,0,0,0,38.29,193.47Z" />
                <path class="cls-5" d="M50.18,183.67l2.54-2.09a.26.26,0,0,0,0-.41l-1.88-1.54a.39.39,0,0,0-.49,0l-2.54,2.09a.26.26,0,0,0,0,.41l1.87,1.54A.39.39,0,0,0,50.18,183.67Z" />
                <path class="cls-5" d="M50.3,179.61l-11,9.09a.25.25,0,0,0,0,.41l1.91,1.57a.39.39,0,0,0,.5,0l11-9.09Z" />
                <path class="cls-5" d="M29.09,199.08l-1.77,1.46c-.11.08-.09.23,0,.33l.76.63a.35.35,0,0,0,.41,0l1.77-1.46a.22.22,0,0,0,0-.34l-.77-.63A.32.32,0,0,0,29.09,199.08Z" />
                <path class="cls-5" d="M31.55,197l-1.76,1.46a.21.21,0,0,0,0,.34l.76.63a.33.33,0,0,0,.41,0L32.76,198a.21.21,0,0,0,0-.33l-.77-.63A.35.35,0,0,0,31.55,197Z" />
                <path class="cls-5" d="M34,195l-1.76,1.45a.21.21,0,0,0,0,.34l.76.63a.33.33,0,0,0,.41,0L35.21,196a.22.22,0,0,0,0-.34l-.77-.63A.33.33,0,0,0,34,195Z" />
                <path class="cls-5" d="M30.2,195.93l-1.76,1.46a.2.2,0,0,0,0,.33l.77.63a.35.35,0,0,0,.41,0l1.76-1.46a.21.21,0,0,0,0-.34l-.77-.63A.33.33,0,0,0,30.2,195.93Z" />
                <polygon class="cls-12" points="35.13 134.98 39.11 131.7 38.94 130.47 34.96 133.75 35.13 134.98" />
                <polygon class="cls-1" points="35.56 137.82 39.54 134.54 39.37 133.32 35.39 136.6 35.56 137.82" />
                <polygon class="cls-12" points="16 177.29 19.99 174.01 19.82 172.79 15.84 176.07 16 177.29" />
                <polygon class="cls-12" points="36.42 143.52 40.41 140.23 40.24 139.01 36.25 142.29 36.42 143.52" />
            </g>
            <g class="lock slide-top">
                <path class="cls-3" d="M199,265.46l1.09,1.86L185,280.38s-.71,1.11-2.6,0-16.28-13.47-16.28-13.47a2.55,2.55,0,0,1,1.06-3.29s-5.21-4.82-5.57-5.42c-.14-.25-1.46-1.69,1-4.32s9.76-7.33,9.76-7.33l7.3,6-2.23.7-4.13-3.5a1,1,0,0,0-1.57.08c-.87.86-7.56,6.91-7.56,6.91l6,5.81Z" />
                <path class="cls-18" d="M169.79,263.64l2.05-1.69-7.56-6.24a.67.67,0,0,1,0-1.07l7.73-6.36a1,1,0,0,1,1.29,0l7.57,6.23,2-1.69-7.57-6.23a4.4,4.4,0,0,0-5.39,0L162.23,253a2.77,2.77,0,0,0,0,4.45Z" />
                <path class="cls-19" d="M166.48,264.38a6,6,0,0,1,1.49-4.06L181.67,249c.37-.31.71-.33,1-.12h0L199,262.48l-15.82,17-16.12-13.36-.14-.11h0A2.48,2.48,0,0,1,166.48,264.38Z" />
                <path class="cls-7" d="M183.18,279.5l-16.12-13.36-.14-.11h0a2.48,2.48,0,0,1-.44-1.64,7.26,7.26,0,0,1,.4-2.26l18.38,15.14Z" />
                <path class="cls-18" d="M184.21,279.44l13.7-11.3a5.88,5.88,0,0,0,1.49-4.06h0c0-1.56-.66-2.28-1.49-1.6l-13.7,11.29a6,6,0,0,0-1.49,4.06h0C182.72,279.4,183.39,280.12,184.21,279.44Z" />
                <path class="cls-1" d="M184.05,273.66l13.7-11.29c.38-.31.72-.33,1-.1a.79.79,0,0,0-.82.21l-13.7,11.29a6,6,0,0,0-1.49,4.06h0a2.3,2.3,0,0,0,.51,1.71c-.41-.18-.67-.83-.67-1.82h0A5.92,5.92,0,0,1,184.05,273.66Z" />
                <path class="cls-4" d="M186.26,275.63l1.65-1.36a1.2,1.2,0,0,0,.3-.81h0c0-.31-.14-.45-.3-.32l-1.65,1.36a1.2,1.2,0,0,0-.29.81h0C186,275.62,186.1,275.76,186.26,275.63Z" />
                <path class="cls-7" d="M184.16,259.77a.8.8,0,0,1,0-1.29,1.29,1.29,0,0,1,1.57,0,.81.81,0,0,1,0,1.29A1.29,1.29,0,0,1,184.16,259.77Z" />
                <path class="cls-1" d="M181.77,261.69a.8.8,0,0,1,0-1.29,1.29,1.29,0,0,1,1.57,0,.82.82,0,0,1,0,1.3A1.28,1.28,0,0,1,181.77,261.69Z" />
                <path class="cls-1" d="M179.38,263.62a.81.81,0,0,1,0-1.3,1.26,1.26,0,0,1,1.56,0,.8.8,0,0,1,0,1.29A1.28,1.28,0,0,1,179.38,263.62Z" />
            </g>
            <path class="cls-20" d="M161.64,123.1l-.11-.87a1.46,1.46,0,0,0-1.34-1.47,1.83,1.83,0,0,1,.55,1.25c.21,2.11-1.63,5.48-4.09,7.54-1.55,1.28-3,1.75-3.87,1.4.11,1.19,3,3,7.19-2.78a12.31,12.31,0,0,0,1.24-2.25A5.86,5.86,0,0,0,161.64,123.1Z" />
            <path class="cls-1" d="M151.89,133.54a5.16,5.16,0,0,1,.25-1.91,6.66,6.66,0,0,0-.88,3.31l.07.91c.07,1,.42,1.58.87,1.73a2.15,2.15,0,0,0,1.45,0c4.58-1.5,6.74-7.53,6.62-8.73a13,13,0,0,1-3.54,4.77C154.26,135.7,152.1,135.65,151.89,133.54Z" />
            <path class="cls-1" d="M158.07,126.05a11.23,11.23,0,0,0,1.21-2.15,5.8,5.8,0,0,0,.43-2.77l-.09-.89a1.87,1.87,0,0,0-1.4-1.74,1.84,1.84,0,0,0-1,0,5.85,5.85,0,0,0-2.58,1.38,11.72,11.72,0,0,0-2.57,3h0v0a10,10,0,0,0-.61,1.16,7.54,7.54,0,0,0-.79,3.66,2.68,2.68,0,0,0,.51,1.37C152.89,131.36,156.48,128.22,158.07,126.05Zm-3.3-5.78c2-1.67,3.76-1.64,3.92,0s-1.33,4.43-3.33,6.1-3.76,1.64-3.93,0S152.76,121.94,154.77,120.27Z" />
            <path class="cls-1" d="M142.85,139.54l-.6.5a1.5,1.5,0,0,0-.39.77l-.88,3.72-.31-3.17L140,142l.68,7.12.72-.6-.18-1.84a1.92,1.92,0,0,1,0-.63h0a.88.88,0,0,1,.28-.52c.12-.07.24,0,.33.12l.64,1.14c.19.34.46.41.72.2l.42-.35-1.71-3.15Z" />
            <path class="cls-1" d="M145.89,142a3,3,0,0,1-.82,2c-.59.49-1.08-.09-1.21-1.45a3.79,3.79,0,0,1,.78-3.09c.52-.43.84,0,1,.28v0l.07-.09a2.06,2.06,0,0,0,.25-1,1,1,0,0,0-.25-.8.91.91,0,0,0-1.18.16c-1,.84-1.59,3-1.39,5.13s1.08,3.11,2.11,2.25a5.33,5.33,0,0,0,1.38-3.53v-.08l-.74.2Z" />
            <path class="cls-1" d="M148.8,138.16a3.48,3.48,0,0,0,.28-1.81c-.1-1-.62-1.48-1.21-1l-1,.83a1.49,1.49,0,0,0-.3,1.12l.61,6.31,1.41-1.17a3.65,3.65,0,0,0,1-3.07c-.1-1-.46-1.28-.79-1.22m-.77.13-.55.46-.13-1.29a.48.48,0,0,1,.11-.37l.41-.35c.26-.22.47-.06.51.42a1.31,1.31,0,0,1-.35,1.13m-.44,1.63.64-.53c.31-.26.54-.06.6.51a1.54,1.54,0,0,1-.42,1.32l-.64.53Z" />
            <path class="cls-1" d="M144,129.63l.05.47.56-.46,0-.46-.34.28v0a.66.66,0,0,1,.14-.53l.16-.14,0-.46-.16.14A1.55,1.55,0,0,0,144,129.63Z" />
            <path class="cls-1" d="M135.21,141.94c0,.47.27.71.49.52a1.56,1.56,0,0,0,.33-1.21c0-.47-.27-.71-.49-.52A1.6,1.6,0,0,0,135.21,141.94Z" />
            <path class="cls-1" d="M143.26,130.69a1.15,1.15,0,0,0,.24-.88c0-.35-.2-.52-.36-.39a1.17,1.17,0,0,0-.24.89C142.93,130.66,143.1,130.83,143.26,130.69Z" />
            <path class="cls-1" d="M142.55,131.28a1.11,1.11,0,0,0,.24-.88c0-.35-.19-.52-.36-.39a1.17,1.17,0,0,0-.24.89C142.23,131.25,142.39,131.42,142.55,131.28Z" />
            <path class="cls-1" d="M144.71,130.48a2.1,2.1,0,0,0-.45,1.52l.25,2.58a1.17,1.17,0,0,1-.22.73l-.55.46-.4-4.15a2.08,2.08,0,0,0-.44,1.54l.29,3.06-1,.87-.15-1.5c-.1-1.07-.59-2.37-1.51-1.6s-1.11,2.63-1,3.69c0,.16.12,1.52-.57,2.09l-.49.41-.61-6.32a2.09,2.09,0,0,0-.44,1.6l.61,6.33,1-.87a3.06,3.06,0,0,0,.89-1.77.65.65,0,0,0,1.08.13l1.05-.87.21-.17,2.43-2a2.16,2.16,0,0,0,.41-1.58h0l-.4-4.15Zm-3.1,7.06-.71.59c-.67.56-.83-.66-.86-.9s-.1-1.54.57-2.09.83.66.85.9Z" />
            <path class="cls-1" d="M145.81,127.2l0,0a2.15,2.15,0,0,0-.4,1.54l.42,4.41.55-.45Z" />
            <path class="cls-1" d="M146.54,127.81l.42,4.31a1.56,1.56,0,0,1-.33,1.24l-.76.63h0c.06.58.31.89.58.75l.29-.24a3.66,3.66,0,0,0,.77-2.84l-.53-5.45,0,0A2.2,2.2,0,0,0,146.54,127.81Z" />
            <path class="cls-1" d="M148.17,125.23a2.14,2.14,0,0,0-.4,1.5l.62,6.41.54-.46-.72-7.48Z" />
            <path class="cls-1" d="M136.61,140.83c0,.23.19,2.21-.82,3s-1.23-1.1-1.25-1.32-.19-2.21.82-3.05l.47-.39,0-.12c-.07-.54-.33-.8-.6-.6-1.21,1.06-1.33,3.47-1.22,4.62s.65,3.06,1.91,2,1.37-3.5,1.26-4.65l-.32-3.34-.55.45Z" />
            <polyline class="cls-2" points="66.24 202.1 91.76 228.55 113.06 211.25" />
            <g class="Cloud slide-top-s">
                <path class="cls-21" d="M100.14,87.9c.19,0,.34-.22.34-.48V60.33c0-.27-.15-.48-.34-.48s-.33.21-.33.48V87.42C99.81,87.68,100,87.9,100.14,87.9Z" />
                <rect class="cls-22" x="98.5" y="58.62" width="3.3" height="10.16" transform="translate(200.29 127.4) rotate(-180)" />
                <path class="cls-22" d="M99,69.74a1.91,1.91,0,0,0,2.33,0,1.2,1.2,0,0,0,0-1.92,1.91,1.91,0,0,0-2.33,0A1.2,1.2,0,0,0,99,69.74Z" />
                <rect class="cls-22" x="97.47" y="44.46" width="5.34" height="15.93" transform="translate(200.29 104.86) rotate(-180)" />
                <path class="cls-21" d="M101.79,60.29v3.44a3.1,3.1,0,0,1-3.29,0V60.29A3.1,3.1,0,0,1,101.79,60.29Z" />
                <path class="cls-22" d="M98.26,62A3.08,3.08,0,0,0,102,62a1.93,1.93,0,0,0,0-3.11,3.08,3.08,0,0,0-3.77,0A1.93,1.93,0,0,0,98.26,62Z" />
                <path class="cls-21" d="M81.64,102.76c.18,0,.33-.21.33-.47V75.19c0-.26-.15-.47-.33-.47s-.34.21-.34.47v27.1C81.3,102.55,81.45,102.76,81.64,102.76Z" />
                <rect class="cls-22" x="79.99" y="73.49" width="3.3" height="10.16" transform="translate(163.27 157.13) rotate(-180)" />
                <path class="cls-22" d="M80.47,84.61a1.91,1.91,0,0,0,2.33,0,1.19,1.19,0,0,0,0-1.92,1.88,1.88,0,0,0-2.33,0A1.2,1.2,0,0,0,80.47,84.61Z" />
                <rect class="cls-21" x="78.96" y="59.33" width="5.34" height="15.93" transform="translate(163.27 134.59) rotate(-180)" />
                <path class="cls-21" d="M83.28,75.16V78.6a3.1,3.1,0,0,1-3.29,0V75.16A3.1,3.1,0,0,1,83.28,75.16Z" />
                <path class="cls-22" d="M79.75,76.82a3.09,3.09,0,0,0,3.78,0,1.94,1.94,0,0,0,0-3.11,3.09,3.09,0,0,0-3.78,0A1.93,1.93,0,0,0,79.75,76.82Z" />
                <polygon class="cls-22" points="63.65 85.77 56.48 79.74 63.3 67.59 65.1 71.77 63.65 85.77" />
                <path class="cls-22" d="M115.66,19.05,104.23,9.66s.43,9.37.43,9.39,6.57,2.9,6.57,2.9Z" />
                <path class="cls-23" d="M61.65,55.2a5.94,5.94,0,0,1,2.48-1.31c1.15-8.65,5.37-17.83,10.39-22a8.32,8.32,0,0,1,4.26-2.05c.68-10.49,5.79-22.4,12-27.51C94-.32,97-.64,99.11,1h0l.11.09.16.13,6.75,5.69-2.24,2.52c2,1.26,3.28,4.48,3.28,9.24,0,8.77-4.32,19.45-9.64,23.84L61.65,79.06c-4,3.3-7.24.63-7.24-6S57.66,58.49,61.65,55.2Z" />
                <path class="cls-22" d="M106.84,14.79,91.36,1.89c3-2.24,5.72-2.42,7.75-.89h0l.11.09.16.13,6.75,5.69-2.24,2.52C105.29,10.3,106.33,12.14,106.84,14.79Z" />
                <path class="cls-22" d="M78.26,52.76,67,43.3c1.93-4.78,4.6-8.95,7.55-11.39a13.64,13.64,0,0,1,1.16-.85L90,43.05Z" />
                <path class="cls-21" d="M103,8l-5,4.15L88.7,4.35a19.35,19.35,0,0,1,2.07-2A11.16,11.16,0,0,1,94,.42Z" />
                <path class="cls-21" d="M68.21,40.52l9,7.58-3.13,5L65.91,46.2A44,44,0,0,1,68.21,40.52Z" />
                <path class="cls-24" d="M68.73,61.15a5.94,5.94,0,0,1,2.48-1.31c1.15-8.65,5.36-17.83,10.39-22a8.32,8.32,0,0,1,4.26-2c.68-10.48,5.79-22.4,12-27.51,6.67-5.49,12.07-1,12.07,10,0,.38,0,.75,0,1.13,4.88-3.23,8.69.41,8.69,8.65,0,8.78-4.32,19.45-9.64,23.84L68.73,85c-4,3.29-7.24.62-7.24-6S64.73,64.45,68.73,61.15Z" />
                <path class="cls-1" d="M109.9,19.38c0-.38,0-.75,0-1.13v0c2.69-1.5,5-.85,6.46,1.55C114.8,17.91,112.51,17.65,109.9,19.38Z" />
                <path class="cls-1" d="M68.14,60.33A5.94,5.94,0,0,1,70.62,59C71.77,50.37,76,41.19,81,37.05A8.27,8.27,0,0,1,85.27,35c.68-10.48,5.79-22.4,12-27.51,4.15-3.42,7.82-3,10,.49-2.21-2.7-5.6-2.8-9.4.33-6.2,5.11-11.31,17-12,27.51a8.32,8.32,0,0,0-4.26,2c-5,4.15-9.24,13.33-10.39,22a5.94,5.94,0,0,0-2.48,1.31c-4,3.3-7.24,11.31-7.24,17.9a11.15,11.15,0,0,0,1.16,5.5c-1.09-1.19-1.75-3.36-1.75-6.32C60.9,71.64,64.15,63.63,68.14,60.33Z" />
                <path class="cls-5" d="M110.75,22l-3,2,.15-4.75c0-.34,0-.67,0-1,0-4.24-.9-7.31-2.53-8.66s-3.94-.91-6.51,1.21c-5.54,4.56-10.36,15.66-11,25.28l-.16,2.42-1.7.19a6.67,6.67,0,0,0-3.4,1.67c-4.39,3.63-8.36,12-9.42,20l-.26,2-1.41.31a4.48,4.48,0,0,0-1.78,1c-3.37,2.78-6.23,9.83-6.23,15.4,0,2.08.41,3.61,1.11,4.19s1.84.32,3.1-.72l40.22-33.15c4.67-3.85,8.63-13.62,8.63-21.34,0-3-.63-5.33-1.72-6.32a2.3,2.3,0,0,0-1.6-.61A4.66,4.66,0,0,0,110.75,22Z" />
                <polygon class="cls-21" points="90.68 57.98 89.62 57.22 90.67 56.09 90.68 57.98" />
                <polygon class="cls-25" points="93.87 37.52 92.84 36.78 92.82 37.55 93.87 37.52" />
                <polygon class="cls-21" points="87.66 53.2 86.58 52.42 88.65 49.62 87.66 53.2" />
                <path class="cls-22" d="M89.93,57.17,95,53a1.77,1.77,0,0,0,.46-1.21v-8.3l-6,5,0,8.3C89.47,57.19,89.68,57.38,89.93,57.17Z" />
                <path class="cls-22" d="M92.85,36.79l5.42,5c.23.21,0,1-.3,1.29l-5.54,4.66-5.54,4.66c-.35.29-.54-.18-.31-.78L92,37.53C92.2,36.92,92.61,36.57,92.85,36.79Z" />
                <path class="cls-26" d="M91,57.94l5-4.22a1.73,1.73,0,0,0,.46-1.21l0-8.3-5.94,5v8.3C90.55,58,90.75,58.16,91,57.94Z" />
                <path class="cls-26" d="M93.93,37.56l5.42,5c.23.21,0,1-.31,1.3L93.5,48.49,88,53.15c-.34.3-.53-.18-.3-.77L93,38.3C93.27,37.7,93.69,37.34,93.93,37.56Z" />
                <path class="cls-26" d="M100.65,67c0,.47.23.65.51.42a1.81,1.81,0,0,0,.52-1.27c0-.46-.23-.65-.52-.42A1.85,1.85,0,0,0,100.65,67Z" />
                <path class="cls-26" d="M82.1,82.1c0,.47.23.66.51.42a1.8,1.8,0,0,0,.52-1.26c0-.47-.23-.66-.52-.43A1.87,1.87,0,0,0,82.1,82.1Z" />
            </g>
            <line class="cls-2" x1="94.93" y1="98.69" x2="109.64" y2="109.49" />
        </g>
    </g>
</svg>
