<svg xmlns="http://www.w3.org/2000/svg" 
    xmlns:xlink="http://www.w3.org/1999/xlink" viewBox="0 0 283.46 283.46">
    <defs>
        <style>



.circle{
opacity:0;
-webkit-transform: scale(0.5);
transform: scale(0.5);
transform-origin:50% 50%;
}
*:hover .scale-down-center {
-webkit-animation: scale-down-center 0.5s cubic-bezier(0.250, 0.460, 0.450, 0.940) alternate both;
animation: scale-down-center 0.5s cubic-bezier(0.250, 0.460, 0.450, 0.940) alternate both;
}
@-webkit-keyframes scale-down-center {
100% {
opacity:1;
-webkit-transform: scale(1);
transform: scale(1);
transform-origin:50% 100%;
}
0% {
opacity:0;
-webkit-transform: scale(0.5);
transform: scale(0.5);
transform-origin:50% 100%;
}
}
@keyframes scale-down-center {
100% {
opacity:1;
-webkit-transform: scale(1);
transform: scale(1);
transform-origin:50% 100%;
}
0% {
opacity:0;
-webkit-transform: scale(0.5);
transform: scale(0.5);
transform-origin:50% 100%;
}
}





        
        *:hover  .slide-top {
	        -webkit-animation: slide-top 0.8s cubic-bezier(0.250, 0.460, 0.450, 0.940) infinite alternate both;
	        animation: slide-top 0.8s cubic-bezier(0.250, 0.460, 0.450, 0.940) infinite alternate both;
            }
            *:hover .slide-tl {
            -webkit-animation: slide-tl 0.8s cubic-bezier(0.250, 0.460, 0.450, 0.940) infinite alternate both;
            animation: slide-tl 0.8s cubic-bezier(0.250, 0.460, 0.450, 0.940) infinite alternate both;
            }
            @-webkit-keyframes slide-top {
            0% {
            -webkit-transform: translateY(0);
            transform: translateY(0);
            }
            100% {
            -webkit-transform: translateY(20px);
            transform: translateY(20px);
            }
            }
            @keyframes slide-top {
            0% {
            -webkit-transform: translateY(0);
            transform: translateY(0);
            }
            100% {
            -webkit-transform: translateY(20px);
            transform: translateY(20px);
            }
            }
        *:hover .slide-tl {
        -webkit-animation: slide-tl 0.8s cubic-bezier(0.250, 0.460, 0.450, 0.940) infinite alternate both;
        animation: slide-tl 0.8s cubic-bezier(0.250, 0.460, 0.450, 0.940) infinite alternate both;
        }
        @-webkit-keyframes slide-tl {
        0% {
        -webkit-transform: translateY(0) translateX(0);
        transform: translateY(0) translateX(0);
        }
        100% {
        -webkit-transform: translateY(20px) translateX(20px);
        transform: translateY(20px) translateX(20px);
        }
        }
        @keyframes slide-tl {
        0% {
        -webkit-transform: translateY(0) translateX(0);
        transform: translateY(0) translateX(0);
        }
        100% {
        -webkit-transform: translateY(20px) translateX(20px);
        transform: translateY(20px) translateX(20px);
        }
        }

            .cls-1,
            .cls-19 {
                fill: #fff;
            }

            .cls-2 {
                opacity: 0.1;
            }

            .cls-3 {
                fill: #42e8e0;
            }

            .cls-4 {
                fill: #6e7798;
            }

            .cls-5 {
                fill: #43527a;
            }

            .cls-6 {
                fill: #03002d;
            }

            .cls-15,
            .cls-6 {
                opacity: 0.2;
            }

            .cls-10,
            .cls-7 {
                fill: #002554;
            }

            .cls-7 {
                opacity: 0.5;
            }

            .cls-8 {
                fill: url(#linear-gradient);
            }

            .cls-9 {
                fill: url(#linear-gradient-2);
            }

            .cls-11 {
                fill: #546086;
            }

            .cls-12 {
                fill: #fafafa;
            }

            .cls-13 {
                fill: #00dfbf;
            }

            .cls-14 {
                fill: #a1a6bc;
            }

            .cls-16 {
                fill: #868da9;
            }

            .cls-17 {
                fill: #dcdee6;
            }

            .cls-18 {
                fill: #f0f0f0;
            }

            .cls-19 {
                opacity: 0.4;
            }

            .cls-20 {
                fill: #5b668b;
            }

            .cls-21 {
                fill: #375a64;
            }

            .cls-22 {
                fill: #b7bbcc;
            }

        </style>
        <linearGradient id="linear-gradient" x1="22.09" y1="128.71" x2="259.77" y2="253.94" gradientUnits="userSpaceOnUse">
            <stop offset="0" stop-color="#6e7798" />
            <stop offset="1" stop-color="#18315f" />
        </linearGradient>
        <linearGradient id="linear-gradient-2" y1="186.97" x2="283.46" y2="186.97" gradientUnits="userSpaceOnUse">
            <stop offset="0" stop-color="#d4d7e1" />
            <stop offset="1" stop-color="#2b3e6a" />
        </linearGradient>
    </defs>
    <title>3</title>
    <g id="Layer_2" data-name="Layer 2">
        <g id="Layer_1-2" data-name="Layer 1">
            <g class="circle scale-down-center">
                <path class="cls-1" d="M141.73,253.32c-23.4,0-46.8-5.33-64.62-16C59.79,227,50.24,213.13,50.24,198.42s9.55-28.52,26.87-38.89c35.63-21.33,93.61-21.33,129.24,0,17.33,10.38,26.87,24.19,26.87,38.9s-9.54,28.52-26.87,38.89h0C188.54,248,165.13,253.32,141.73,253.32Zm0-109.09c-23.28,0-46.56,5.3-64.28,15.91C60.35,170.38,50.93,184,50.93,198.42s9.42,28,26.52,38.29c35.45,21.22,93.12,21.22,128.56,0h0c17.11-10.24,26.53-23.84,26.53-38.28s-9.42-28-26.53-38.28C188.29,149.53,165,144.23,141.73,144.23Z" />
                <path class="cls-1" d="M141.74,283.46c-36.26,0-72.51-8.26-100.12-24.78C14.78,242.61,0,221.21,0,198.42s14.78-44.18,41.62-60.25c55.2-33,145-33,200.22,0,26.84,16.07,41.62,37.47,41.62,60.26s-14.78,44.18-41.62,60.25h0C214.25,275.2,178,283.46,141.74,283.46Zm0-169c-36.07,0-72.13,8.21-99.58,24.65C15.65,155,1.06,176.05,1.06,198.42s14.59,43.44,41.09,59.31c54.91,32.87,144.26,32.87,199.17,0h0c26.5-15.87,41.09-36.93,41.09-59.3s-14.6-43.44-41.1-59.31C213.86,122.68,177.79,114.47,141.73,114.47Z" />
            </g>
            <g class="box slide-top">
                <polygon class="cls-3" points="141.73 242.27 131.03 236.14 131.03 248.39 141.73 254.51 152.44 248.39 152.44 236.14 141.73 242.27" />
                <polygon class="cls-4" points="141.73 254.51 131.03 248.39 131.03 236.14 141.73 242.27 141.73 254.51" />
                <polygon class="cls-5" points="152.44 248.39 141.73 254.51 141.73 242.27 152.44 236.14 152.44 248.39" />
                <polygon class="cls-4" points="141.73 242.27 131.03 236.14 141.73 230.02 152.44 236.14 141.73 242.27" />
                <polygon class="cls-1" points="141.73 242.27 131.03 236.14 131.03 236.67 141.73 242.8 152.44 236.67 152.44 236.14 141.73 242.27" />
            </g>
            <path class="cls-7" d="M280.39,238.9l-83.23,43c-3.72,1.92-9.34,2.12-12.56.46L2.17,188.17c-3.22-1.66-2.81-4.57.91-6.49l83.22-43c3.72-1.92,9.35-2.12,12.56-.46l182.43,94.17C284.51,234.07,284.11,237,280.39,238.9Z" />
            <path class="cls-7" d="M280.39,228.85l-83.23,43c-3.72,1.92-9.34,2.13-12.56.46L2.17,178.12c-3.22-1.66-2.81-4.56.91-6.48l83.22-43c3.72-1.92,9.35-2.13,12.56-.47l182.43,94.17C284.51,224,284.11,226.93,280.39,228.85Z" />
            <path class="cls-8" d="M283.46,211.91l-17.14-2.67L98.86,122.8c-3.21-1.66-8.84-1.46-12.56.46L8.73,163.32,0,162v7.94H0c0,1.06.7,2.07,2.16,2.83L184.6,266.9c3.22,1.66,8.84,1.46,12.56-.46l83.23-43c2.06-1.06,3.1-2.43,3.07-3.72h0Z" />
            <path class="cls-9" d="M280.39,215.58l-83.23,43c-3.72,1.92-9.34,2.13-12.56.46L2.17,164.85c-3.22-1.66-2.81-4.57.91-6.48l83.22-43c3.72-1.92,9.35-2.12,12.56-.46l182.43,94.17C284.51,210.75,284.11,213.66,280.39,215.58Z" />
            <path class="cls-1" d="M280.39,214.56l-83.23,43c-3.72,1.92-9.34,2.13-12.56.47L2.17,163.84a3.73,3.73,0,0,1-2.11-2.3c-.25,1.23.43,2.44,2.11,3.31L184.6,259c3.22,1.67,8.84,1.46,12.56-.46l83.23-43c2.31-1.2,3.34-2.77,3-4.19C283.17,212.51,282.16,213.65,280.39,214.56Z" />
            <polygon class="cls-10" points="280.51 208.69 183.82 258.62 2.95 165.25 99.64 115.32 280.51 208.69" />
            <path class="cls-10" d="M57.16,134.87,44.32,141.5a2.38,2.38,0,0,1-1.88.07l-.13-.07c-.49-.25-.43-.69.13-1l12.84-6.63a2.32,2.32,0,0,1,1.89-.07l.13.06C57.78,134.14,57.72,134.58,57.16,134.87Z" />
            <path class="cls-11" d="M23.28,165.38l-.87-.45c-.19-.1-.19-.25,0-.35l.1-.05a.81.81,0,0,1,.68,0l.88.45c.19.1.19.26,0,.35l-.1,0A.81.81,0,0,1,23.28,165.38Z" />
            <path class="cls-11" d="M24.84,164.58l-1.51-.78c-.19-.1-.19-.26,0-.35l.09,0a.81.81,0,0,1,.68,0l1.52.78c.18.09.18.25,0,.35l-.1.05A.81.81,0,0,1,24.84,164.58Z" />
            <path class="cls-11" d="M26.4,163.77l-2.15-1.1c-.19-.1-.19-.26,0-.36l.09-.05a.92.92,0,0,1,.69,0l2.14,1.11c.19.1.19.26,0,.35l-.09.05A.81.81,0,0,1,26.4,163.77Z" />
            <path class="cls-11" d="M28,163l-3.7-1.91c-.19-.1-.19-.26,0-.36l.09,0a.92.92,0,0,1,.69,0l3.7,1.92c.19.09.19.25,0,.35l-.09.05A.83.83,0,0,1,28,163Z" />
            <path class="cls-11" d="M32.42,160.92a.28.28,0,0,1-.17,0l-.54-.28-1.75.9a.27.27,0,0,1-.26,0l-.19-.1-.09-.06a.19.19,0,0,1,0-.08l-.1-2a.2.2,0,0,1,0-.09s.05,0,.1-.07l.25-.12a.6.6,0,0,1,.2-.07.41.41,0,0,1,.18.05l1.9,1,.39-.2a.41.41,0,0,1,.19-.06.31.31,0,0,1,.18,0l.13.06s.08.06.08.09-.05.06-.12.1l-.38.2.54.28c.06,0,.08.06.08.09s0,.06-.13.1l-.29.15A.41.41,0,0,1,32.42,160.92Zm-1.06-.62L30,159.6l.08,1.36Z" />
            <path class="cls-11" d="M34.17,159.68a3.45,3.45,0,0,1-1.77-.38c-.54-.28-.78-.59-.74-.91s.39-.66,1-1a5.25,5.25,0,0,1,.77-.33,3.69,3.69,0,0,1,.73-.18h.11s0,0,0,0l.08.21a0,0,0,0,1,0,.05l-.1,0a3.86,3.86,0,0,0-1.07.36c-.42.22-.65.44-.68.67s.16.45.58.67a2.46,2.46,0,0,0,1.28.3,2.88,2.88,0,0,0,1.26-.33l.4-.24a1.48,1.48,0,0,0,.25-.22l-.88-.46-.73.38a.41.41,0,0,1-.19.06.41.41,0,0,1-.18-.05l-.13-.06c-.06,0-.08-.06-.08-.09s0-.06.12-.1l1.16-.6a.53.53,0,0,1,.23-.06.54.54,0,0,1,.21.05l1.26.65.09.07s0,0,0,.07a2.64,2.64,0,0,1-1.1.85A4.48,4.48,0,0,1,34.17,159.68Z" />
            <path class="cls-11" d="M58.41,144.46l2.06,1.07a.68.68,0,0,0,.56,0l2.07-1.07c.16-.08.16-.21,0-.29L61,143.11a.68.68,0,0,0-.56,0l-2.07,1.06C58.26,144.25,58.26,144.38,58.41,144.46Z" />
            <path class="cls-11" d="M59.84,143a1.93,1.93,0,0,0-.89-.18,1.89,1.89,0,0,0-.88.18c-.4.2-.4.53,0,.73l.71.37.52-.09-.71-.37c-.29-.15-.29-.4,0-.55A.8.8,0,0,1,59,143a.81.81,0,0,1,.37.09l.71.36.52-.09Z" />
            <path class="cls-11" d="M97.43,123.59a2.22,2.22,0,0,0-1,.2l-5.23,2.7c-.46.23-.46.6,0,.83l1.91,1a2.22,2.22,0,0,0,1,.2,2.52,2.52,0,0,0,.48,0,1.7,1.7,0,0,0,.51-.16l5.24-2.7c.45-.23.45-.6,0-.83l-1.91-1A2.21,2.21,0,0,0,97.43,123.59Zm-3.33,4.72a.92.92,0,0,1-.43-.11l-1.9-1c-.33-.17-.33-.46,0-.63l5.23-2.7a.66.66,0,0,1,.27-.09l.16,0a.91.91,0,0,1,.42.11l1.9,1c.34.17.34.46,0,.63l-5.23,2.7A.91.91,0,0,1,94.1,128.31Z" />
            <path class="cls-11" d="M94.25,128l-.07,0-1.72-.89c-.24-.12-.24-.34,0-.47l4.71-2.43.1,0,.07,0,1.72.89c.24.12.24.34,0,.47l-4.71,2.43Z" />
            <path class="cls-11" d="M98.69,123.66a1.48,1.48,0,0,1,1.06.18l.35.19c.39.2.56.45.37.55l-.33.2-1.79-.94Z" />
            <path class="cls-11" d="M68.75,169.69a9.42,9.42,0,0,0,3.69-.91c2.13-1.1,2.69-2.61-.7-4.5A3.79,3.79,0,0,1,69.51,167c-2.91,1.5-6.22,1.89-8.89.51s-1.73-3.4,1.18-4.9a13.65,13.65,0,0,1,12.34,0c5,2.56,3.84,5.26.34,7.07a15.05,15.05,0,0,1-6,1.59ZM70,163.46a7.69,7.69,0,0,0-6.4,0c-1.39.72-1.68,1.76-.14,2.55a5.32,5.32,0,0,0,5-.21A2.42,2.42,0,0,0,70,163.46Z" />
            <path class="cls-11" d="M76.1,158.54a4.25,4.25,0,0,1,3.53-.22c.9.47.71,1.25-.41,1.83a4.34,4.34,0,0,1-3.57.23C74.75,159.91,75,159.12,76.1,158.54Zm6.84,3.53a4.23,4.23,0,0,1,3.54-.21c.9.46.71,1.25-.41,1.83a4.34,4.34,0,0,1-3.57.22C81.6,163.45,81.82,162.65,82.94,162.07Z" />
            <path class="cls-11" d="M84.12,157.8c-4.3-2.22-4.3-4.53-.78-6.35a13.35,13.35,0,0,1,12.31.4c4.31,2.22,4.43,4.6.91,6.42A13.58,13.58,0,0,1,84.12,157.8Zm8.6-4.43c-3.61-1.86-5.92-1.85-7.58-1s-1.68,2.05,1.92,3.91,6.07,1.89,7.7,1.05S96.32,155.23,92.72,153.37Z" />
            <path class="cls-11" d="M97.82,150.73c-4.31-2.22-4.31-4.54-.78-6.35a13.35,13.35,0,0,1,12.31.4c4.31,2.22,4.43,4.6.9,6.42A13.55,13.55,0,0,1,97.82,150.73Zm8.6-4.43c-3.61-1.86-5.93-1.85-7.58-1s-1.69,2.05,1.92,3.91,6.06,1.89,7.69,1.05S110,148.16,106.42,146.3Z" />
            <path class="cls-11" d="M75.74,186.88l68.92-35.58a6.45,6.45,0,0,1,5.27,0l17.62,9.09c1.45.75,1.46,2,0,2.72L98.64,198.69a6.45,6.45,0,0,1-5.27,0L75.74,189.6C74.28,188.85,74.28,187.63,75.74,186.88Z" />
            <path class="cls-12" d="M83.12,188.08l12.33,6.36a2.73,2.73,0,0,0,2.27,0l18.17-9.38c.63-.32.63-.85,0-1.17l-12.33-6.36a2.73,2.73,0,0,0-2.27,0l-18.17,9.38C82.49,187.23,82.49,187.76,83.12,188.08Z" />
            <polygon class="cls-11" points="101.73 185.02 116.36 184.5 101.79 184.31 102.38 177.28 99.99 185.95 82.65 187.49 96.81 186.89 96.46 194.68 97.55 186.86 101.59 186.69 101.73 185.02" />
            <path class="cls-12" d="M109.42,174.18,127.23,165a3.5,3.5,0,0,1,2.87,0c.77.4.74,1.06-.07,1.48l-17.81,9.16a3.48,3.48,0,0,1-2.86,0C108.58,175.26,108.61,174.6,109.42,174.18Z" />
            <path class="cls-12" d="M114.9,177,151,158.36a3.5,3.5,0,0,1,2.87,0c.78.4.75,1.06-.06,1.48l-36.1,18.65a3.52,3.52,0,0,1-2.86,0C114.06,178.09,114.09,177.43,114.9,177Z" />
            <path class="cls-12" d="M120.38,179.84l36.09-18.65a3.5,3.5,0,0,1,2.87,0c.78.4.75,1.06-.06,1.48l-36.1,18.64a3.5,3.5,0,0,1-2.87,0C119.54,180.92,119.57,180.26,120.38,179.84Z" />
            <g id="Envelope">
                <path class="cls-13" d="M79.37,74.27l98-50.61,3.92,2a3.59,3.59,0,0,1,1.85,2.86V93.21a3.61,3.61,0,0,1-1.85,2.86L87,144.78a4.56,4.56,0,0,1-3.69,0l-2.07-1.08a3.59,3.59,0,0,1-1.85-2.85Z" />
                <path class="cls-4" d="M79.37,74.27l98-50.61,3.92,2a3.59,3.59,0,0,1,1.85,2.86V93.21a3.61,3.61,0,0,1-1.85,2.86L87,144.78a4.56,4.56,0,0,1-3.69,0l-2.07-1.08a3.59,3.59,0,0,1-1.85-2.85Z" />
                <path class="cls-4" d="M130.89,3.76a2.08,2.08,0,0,0-.5.48l-48.28,63a6.88,6.88,0,0,0-.9,1.8l-1.5-.77q.18-.5.39-1l0,0c.07-.13.13-.26.21-.38l0-.06a2.81,2.81,0,0,1,.26-.38l48.27-63a1.48,1.48,0,0,1,.24-.26,1.71,1.71,0,0,1,.26-.21Z" />
                <path class="cls-14" d="M177.26,17.77a3,3,0,0,0-.41-.18L133.69,3.29a3.24,3.24,0,0,0-2.8.47L129.39,3a3.27,3.27,0,0,1,2.81-.48l43.15,14.3a2.44,2.44,0,0,1,.41.18Z" />
                <path class="cls-13" d="M129.13,3.2a1.71,1.71,0,0,1,.26-.21A1.71,1.71,0,0,0,129.13,3.2Z" />
                <polygon class="cls-15" points="129.39 2.99 129.39 2.99 129.39 2.99 129.39 2.99" />
                <path class="cls-15" d="M128.89,3.46a1.48,1.48,0,0,1,.24-.26A1.48,1.48,0,0,0,128.89,3.46Z" />
                <path class="cls-16" d="M130.38,4.23l-48.27,63a6.9,6.9,0,0,0-1.24,3.6v4.19l98-50.62V20.25a3.08,3.08,0,0,0-2.07-2.66L133.7,3.29A3.18,3.18,0,0,0,130.38,4.23Z" />
                <path class="cls-17" d="M91.54,136l-3.15-1.62h0l0,0h0a1.65,1.65,0,0,1-.75-1.54V45.16a4.74,4.74,0,0,1,.88-2.51l3.2,1.65a4.58,4.58,0,0,0-.88,2.52v87.62A1.65,1.65,0,0,0,91.54,136Z" />
                <path class="cls-18" d="M93.5,42.63,172.26,2c1.49-.77,2.7-.14,2.7,1.4V91a5.27,5.27,0,0,1-2.7,4.19L93.51,135.83c-1.5.77-2.71.15-2.71-1.4V46.82A5.27,5.27,0,0,1,93.5,42.63Z" />
                <path class="cls-12" d="M171,.17l3.08,1.59a2.15,2.15,0,0,0-1.8.23L93.5,42.64a4.88,4.88,0,0,0-1.82,1.66l-3.2-1.65A5.18,5.18,0,0,1,90.3,41L169.05.33A2.09,2.09,0,0,1,171,.17Z" />
                <path class="cls-17" d="M99.64,47.22l65.5-33.81c.88-.46,1.59-.13,1.59.72a3,3,0,0,1-1.59,2.36L99.64,50.3c-.87.46-1.59.13-1.59-.72A3,3,0,0,1,99.64,47.22Z" />
                <path class="cls-17" d="M99.64,53.36l65.5-33.81c.88-.45,1.59-.13,1.59.72a3,3,0,0,1-1.59,2.37L99.64,56.45c-.87.45-1.59.13-1.59-.72A3.06,3.06,0,0,1,99.64,53.36Z" />
                <path class="cls-17" d="M99.64,59.51l65.5-33.81c.88-.46,1.59-.13,1.59.72a3,3,0,0,1-1.59,2.36L99.64,62.59c-.87.46-1.59.13-1.59-.72A3,3,0,0,1,99.64,59.51Z" />
                <path class="cls-17" d="M99.64,65.65l65.5-33.81c.88-.45,1.59-.13,1.59.72a3,3,0,0,1-1.59,2.37L99.64,68.74c-.87.45-1.59.13-1.59-.72A3.06,3.06,0,0,1,99.64,65.65Z" />
                <path class="cls-17" d="M99.64,71.8,165.14,38c.88-.46,1.59-.13,1.59.72a3,3,0,0,1-1.59,2.36L99.64,74.88c-.87.46-1.59.13-1.59-.72A3,3,0,0,1,99.64,71.8Z" />
                <path class="cls-17" d="M99.64,77.94l65.5-33.81c.88-.45,1.59-.13,1.59.72a3,3,0,0,1-1.59,2.37L99.64,81c-.87.45-1.59.13-1.59-.72A3.06,3.06,0,0,1,99.64,77.94Z" />
                <path class="cls-17" d="M99.64,84.09l65.5-33.81c.88-.46,1.59-.13,1.59.72a3,3,0,0,1-1.59,2.36L99.64,87.17c-.87.46-1.59.13-1.59-.72A3,3,0,0,1,99.64,84.09Z" />
                <path class="cls-17" d="M99.64,90.23l65.5-33.81c.88-.45,1.59-.13,1.59.72a3,3,0,0,1-1.59,2.37L99.64,93.32c-.87.45-1.59.13-1.59-.72A3.06,3.06,0,0,1,99.64,90.23Z" />
                <path class="cls-13" d="M180.7,94.07a.64.64,0,0,1-.1.13L139.74,78a7.49,7.49,0,0,0-8.83,2.43L87.23,143.1l-1.62.83h0a1.46,1.46,0,0,1-1.25.12l44.92-64.45a7.52,7.52,0,0,1,8.84-2.44Z" />
                <path class="cls-19" d="M126.89,86.13l.1-.08L87.23,143.1l-1.62.83h0a1.51,1.51,0,0,1-1.25.13l41-58.79Z" />
                <path class="cls-14" d="M180.7,94.07a.64.64,0,0,1-.1.13L139.74,78a7.49,7.49,0,0,0-8.83,2.43l-1.62-.84a7.52,7.52,0,0,1,8.82-2.42Z" />
                <path class="cls-14" d="M183.15,28.12h0c-.09-.47-.37-.6-.73-.38a2,2,0,0,0-.47.44l-.21.25L141.42,78.62l-6,7.5a3.62,3.62,0,0,1-3.31,1.11l-5.2-1.1L87.22,77.69a2.24,2.24,0,0,0-.81,0,1.32,1.32,0,0,0-.3.09l1.09-.57,38.25,8.13,5.2,1.11A3.64,3.64,0,0,0,134,85.31l6-7.5L180.5,27.37A1.51,1.51,0,0,1,181,27l-3.51-1.8,1.47-.76,2.43,1.25A3.75,3.75,0,0,1,183.15,28.12Z" />
                <path class="cls-19" d="M141.42,78.62l-6,7.5a3.67,3.67,0,0,1-3.32,1.11l-5.19-1.1.1-.08.25-.36,3.4.73A3.64,3.64,0,0,0,134,85.3l6-7.41Z" />
                <path class="cls-20" d="M181.34,25.68l-2.42-1.25-1.47.75L181,27h0a1.42,1.42,0,0,0-.46.38L140,77.81l-.06.07h0l1.5.73,40.32-50.19.21-.26a2,2,0,0,1,.47-.43c.36-.22.64-.09.72.38h0A3.73,3.73,0,0,0,181.34,25.68Z" />
                <path class="cls-20" d="M88,78.74l-8.65-4.47v66.58a3.59,3.59,0,0,0,1.85,2.85l2.07,1.08a4.56,4.56,0,0,0,3.69,0l1-.54Z" />
                <path class="cls-21" d="M181.74,28.43v64a3.08,3.08,0,0,1-.57,1.67,3.7,3.7,0,0,1-1.08,1.08l-.07,0-.12.07L85.54,144h0a1.38,1.38,0,0,1-.36.15,2.66,2.66,0,0,1,0-.3V79.15a1.57,1.57,0,0,1,2.08-1.46l39.67,8.44,5.2,1.1a3.62,3.62,0,0,0,3.31-1.11l6-7.5Z" />
                <path class="cls-4" d="M183.19,28.54V93.21a3.16,3.16,0,0,1-.57,1.67A3.83,3.83,0,0,1,181.54,96l-.08,0-.11.08L87,144.77h0a1.44,1.44,0,0,1-1.25.13,1,1,0,0,1-.56-.79,2.66,2.66,0,0,1,0-.3V79.15a1.57,1.57,0,0,1,2.08-1.46l39.67,8.44,5.2,1.1a3.62,3.62,0,0,0,3.31-1.11l6-7.5,40.32-50.19.21-.25C182.63,27.33,183.19,27.49,183.19,28.54Z" />
                <path class="cls-13" d="M181.34,96.07l.13-.07.07,0a3.83,3.83,0,0,0,1.08-1.08,3.24,3.24,0,0,0,.57-1.64L141.42,78.62l28,23.62Z" />
                <path class="cls-4" d="M181.34,96.07l.13-.07.07,0a3.83,3.83,0,0,0,1.08-1.08,3.24,3.24,0,0,0,.57-1.64L141.42,78.62l28,23.62Z" />
                <path class="cls-13" d="M85.14,143.82a1.11,1.11,0,0,0,.58,1.09,1.44,1.44,0,0,0,1.25-.13h0L119.47,128l7.42-41.87L85.14,142.75Z" />
                <path class="cls-20" d="M130.89,80.42,85.71,144.91a1.12,1.12,0,0,1-.57-1.09v-1.07l39.86-57,.31-.44,4-5.67s0,0,0,0Z" />
                <path class="cls-16" d="M182.62,94.88A3.83,3.83,0,0,1,181.54,96l-.07,0L87,144.77h0a1.44,1.44,0,0,1-1.25.13l45.18-64.5A7.58,7.58,0,0,1,139.78,78Z" />
                <path class="cls-4" d="M182.61,94.88A3.59,3.59,0,0,1,181.53,96l-.06,0L87,144.77h0a1.49,1.49,0,0,1-1.26.13L87,143.12l92.85-47.94.07,0a3.41,3.41,0,0,0,1-1Z" />
                <path class="cls-20" d="M79.71,68.29l1.5.77a6,6,0,0,0-.34,1.8V75l-1.5-.77V70.08A6,6,0,0,1,79.71,68.29Z" />
                <polygon class="cls-13" points="88.58 77.48 87.2 77.18 86.11 77.75 84.59 76.97 80.86 75.05 82.31 74.28 88.58 77.48" />
                <path class="cls-20" d="M88.59,77.48h0l-6.27-3.19-1.45.77L84.59,77l1.52.78h0a1.47,1.47,0,0,1,.28-.08,2.23,2.23,0,0,1,.81,0l3.05.65L125,85.72l.31-.44Z" />
            </g>
            <g id="Notification" class="slide-tl">
                <path class="cls-14" d="M200.63,80.06l-7-3.62h0l-.06,0h0c-3-1.54-7.22-1.31-11.84,1.08-9.31,4.8-16.86,16.49-16.86,26.1,0,4.8,1.88,8.17,4.92,9.75h0l6.36,3.26,1.49-2.23a18.59,18.59,0,0,0,4.83-1.68c9.31-4.81,16.86-16.49,16.86-26.1a14.27,14.27,0,0,0-.53-3.85Z" />
                <path class="cls-20" d="M165.51,98.54a21.39,21.39,0,0,0-.64,5.06c0,4.8,1.88,8.17,4.92,9.75h0l6.36,3.26,1.49-2.23a18.59,18.59,0,0,0,4.83-1.68,26.85,26.85,0,0,0,4.6-3Z" />
                <path class="cls-22" d="M188.36,80.92c-9.31,4.8-16.86,16.49-16.86,26.1s7.55,13.51,16.86,8.7,16.86-16.49,16.86-26.1S197.67,76.11,188.36,80.92Z" />
                <path class="cls-17" d="M195,94.3V90.61c0-4.22-2.86-6.15-6.4-4.33h0c-3.53,1.82-6.4,6.72-6.4,10.93v3.3a12.05,12.05,0,0,1-2.15,6.45h0a3.34,3.34,0,0,0-.52,1.69h0c0,1.06.72,1.55,1.61,1.09L196.09,102a3.37,3.37,0,0,0,1.62-2.75h0a1.28,1.28,0,0,0-.48-1.12h0C195.89,97.62,195,96.29,195,94.3Z" />
                <path class="cls-17" d="M191.69,105.45a6.39,6.39,0,0,1-3.07,5.24c-1.7.88-3.07,0-3.07-2.07Z" />
            </g>
        </g>
    </g>
</svg>
