<svg xmlns="http://www.w3.org/2000/svg" 
    xmlns:xlink="http://www.w3.org/1999/xlink" viewBox="0 0 283.46 283.46">
    <defs>
        <style>
            *:hover .slide-top {
                -webkit-animation: slide-top 0.8s cubic-bezier(0.250, 0.460, 0.450, 0.940) infinite alternate both;
                animation: slide-top 0.8s cubic-bezier(0.250, 0.460, 0.450, 0.940) infinite alternate both;
            }
            @-webkit-keyframes slide-top {
                0% {
                    -webkit-transform: translateY(0);
                    transform: translateY(0);
                }

                100% {
                    -webkit-transform: translateY(5px);
                    transform: translateY(5px);
                }
            }

            @keyframes slide-top {
                0% {
                    -webkit-transform: translateY(0);
                    transform: translateY(0);
                }

                100% {
                    -webkit-transform: translateY(5px);
                    transform: translateY(5px);
                }
            }


            .circle {
                opacity: 0;
                -webkit-transform: scale(0.5);
                transform: scale(0.5);
                transform-origin: 50% 50%;
            }

            *:hover .scale-down-center {
                -webkit-animation: scale-down-center 0.5s cubic-bezier(0.250, 0.460, 0.450, 0.940) alternate both;
                animation: scale-down-center 0.5s cubic-bezier(0.250, 0.460, 0.450, 0.940) alternate both;
            }

            @-webkit-keyframes scale-down-center {
                100% {
                    opacity: 1;
                    -webkit-transform: scale(1);
                    transform: scale(1);
                    transform-origin: 50% 100%;
                }

                0% {
                    opacity: 0;
                    -webkit-transform: scale(0.5);
                    transform: scale(0.5);
                    transform-origin: 50% 100%;
                }
            }

            @keyframes scale-down-center {
                100% {
                    opacity: 1;
                    -webkit-transform: scale(1);
                    transform: scale(1);
                    transform-origin: 50% 100%;
                }

                0% {
                    opacity: 0;
                    -webkit-transform: scale(0.5);
                    transform: scale(0.5);
                    transform-origin: 50% 100%;
                }
            }



            .cls-1 {
                fill: #fff;
            }

            .cls-2,
            .cls-6 {
                fill: #002554;
            }

            .cls-2 {
                opacity: 0.5;
            }

            .cls-3 {
                fill: url(#linear-gradient);
            }

            .cls-4 {
                fill: #546086;
            }

            .cls-5 {
                fill: #9198b1;
            }

            .cls-7 {
                fill: #18315f;
            }

            .cls-8 {
                fill: url(#linear-gradient-2);
            }

            .cls-9 {
                fill: url(#linear-gradient-3);
            }

            .cls-10 {
                fill: url(#linear-gradient-4);
            }

            .cls-11 {
                fill: #d64128;
            }

            .cls-12 {
                fill: #606b8e;
            }

            .cls-13 {
                fill: #2d406b;
            }

            .cls-14 {
                isolation: isolate;
            }

            .cls-15 {
                fill: #7c84a2;
            }

            .cls-16 {
                fill: #1b9971;
            }

            .cls-17 {
                fill: #213764;
            }

            .cls-18 {
                fill: #4c5980;
            }

            .cls-19 {
                fill: #de2a48;
            }

            .cls-20 {
                fill: #525e84;
            }

            .cls-21 {
                fill: #999fb7;
            }

            .cls-22 {
                fill: #f29b06;
            }

            .cls-23 {
                fill: #4f5c82;
            }

            .cls-24 {
                fill: #329fba;
            }

            .cls-25 {
                fill: #3382e0;
            }

            .cls-26 {
                fill: url(#linear-gradient-5);
            }

            .cls-27 {
                fill: #868da9;
            }

            .cls-28 {
                fill: #5b668b;
            }

            .cls-29 {
                fill: url(#linear-gradient-6);
            }

            .cls-30 {
                fill: url(#linear-gradient-7);
            }

            .cls-31 {
                fill: url(#linear-gradient-8);
            }

            .cls-32 {
                fill: url(#linear-gradient-9);
            }

            .cls-33 {
                fill: url(#linear-gradient-10);
            }

            .cls-34 {
                fill: url(#linear-gradient-11);
            }

            .cls-35 {
                fill: url(#linear-gradient-12);
            }

            .cls-36 {
                fill: url(#linear-gradient-13);
            }

            .cls-37 {
                fill: url(#linear-gradient-14);
            }

            .cls-38 {
                fill: url(#linear-gradient-15);
            }

            .cls-39 {
                fill: url(#linear-gradient-16);
            }

            .cls-40 {
                fill: url(#linear-gradient-17);
            }

            .cls-41 {
                fill: url(#linear-gradient-18);
            }

            .cls-42 {
                fill: url(#linear-gradient-19);
            }

            .cls-43 {
                fill: url(#linear-gradient-20);
            }

            .cls-44 {
                fill: #d0b787;
            }

            .cls-45 {
                fill: url(#linear-gradient-21);
            }

            .cls-46 {
                fill: #9ea3ba;
            }

        </style>
        <linearGradient id="linear-gradient" x1="1680.06" y1="75.15" x2="1931.61" y2="207.7" gradientTransform="matrix(-1, 0, 0, 1, 1950.45, 0)" gradientUnits="userSpaceOnUse">
            <stop offset="0" stop-color="#6e7798" />
            <stop offset="1" stop-color="#18315f" />
        </linearGradient>
        <linearGradient id="linear-gradient-2" x1="1091.24" y1="69.87" x2="1147.47" y2="145.78" gradientTransform="translate(-977.24)" xlink:href="#linear-gradient" />
        <linearGradient id="linear-gradient-3" x1="1110.47" y1="64.03" x2="1163.98" y2="136.27" gradientTransform="translate(-977.24)" xlink:href="#linear-gradient" />
        <linearGradient id="linear-gradient-4" x1="1101.29" y1="67.59" x2="1154.8" y2="139.83" gradientTransform="translate(-977.24)" xlink:href="#linear-gradient" />
        <linearGradient id="linear-gradient-5" x1="1022.69" y1="91.84" x2="1168.79" y2="91.84" gradientTransform="translate(-977.24)" gradientUnits="userSpaceOnUse">
            <stop offset="0" stop-color="#d4d7e1" />
            <stop offset="1" stop-color="#2b3e6a" />
        </linearGradient>
        <linearGradient id="linear-gradient-6" x1="1055.43" y1="63.73" x2="1108.95" y2="104.65" gradientTransform="translate(-977.24)" xlink:href="#linear-gradient" />
        <linearGradient id="linear-gradient-7" x1="1051.07" y1="70" x2="1105.5" y2="111.62" gradientTransform="translate(-977.24)" xlink:href="#linear-gradient" />
        <linearGradient id="linear-gradient-8" x1="1060.14" y1="54.28" x2="1114.04" y2="95.5" gradientTransform="translate(-977.24)" xlink:href="#linear-gradient" />
        <linearGradient id="linear-gradient-9" x1="1054.66" y1="69.76" x2="1101" y2="105.2" gradientTransform="translate(-977.24)" xlink:href="#linear-gradient" />
        <linearGradient id="linear-gradient-10" x1="1054.25" y1="70.21" x2="1103.33" y2="107.75" gradientTransform="translate(-977.24)" xlink:href="#linear-gradient" />
        <linearGradient id="linear-gradient-11" x1="1056.93" y1="73" x2="1103.21" y2="108.39" gradientTransform="translate(-977.24)" xlink:href="#linear-gradient" />
        <linearGradient id="linear-gradient-12" x1="1069.89" y1="48.44" x2="1116.45" y2="84.04" gradientTransform="translate(-977.24)" xlink:href="#linear-gradient" />
        <linearGradient id="linear-gradient-13" x1="1060.92" y1="52.74" x2="1111.98" y2="91.78" gradientTransform="translate(-977.24)" xlink:href="#linear-gradient" />
        <linearGradient id="linear-gradient-14" x1="1066.95" y1="45.71" x2="1118.01" y2="84.75" gradientTransform="translate(-977.24)" xlink:href="#linear-gradient" />
        <linearGradient id="linear-gradient-15" x1="1066.9" y1="45.49" x2="1117.95" y2="84.53" gradientTransform="translate(-977.24)" xlink:href="#linear-gradient" />
        <linearGradient id="linear-gradient-16" x1="1063.44" y1="51.26" x2="1114.79" y2="90.52" gradientTransform="translate(-977.24)" xlink:href="#linear-gradient" />
        <linearGradient id="linear-gradient-17" x1="1073.44" y1="57.36" x2="1112.01" y2="86.86" gradientTransform="translate(-977.24)" xlink:href="#linear-gradient" />
        <linearGradient id="linear-gradient-18" x1="1068.95" y1="56.87" x2="1112.57" y2="90.22" gradientTransform="translate(-977.24)" xlink:href="#linear-gradient" />
        <linearGradient id="linear-gradient-19" x1="1075.11" y1="62.01" x2="1112.32" y2="90.46" gradientTransform="translate(-977.24)" xlink:href="#linear-gradient" />
        <linearGradient id="linear-gradient-20" x1="1060.88" y1="52.86" x2="1109.57" y2="90.09" gradientTransform="translate(-977.24)" xlink:href="#linear-gradient" />
        <linearGradient id="linear-gradient-21" x1="1143.35" y1="70.81" x2="1191.12" y2="70.81" xlink:href="#linear-gradient-5" />
    </defs>
    <title>5</title>
    <g id="Layer_2" data-name="Layer 2">
        <g id="Layer_1-2" data-name="Layer 1">
            <g class="circle scale-down-center">
                <path class="cls-1" d="M141.73,253.32c-23.4,0-46.8-5.33-64.62-16C59.79,227,50.24,213.13,50.24,198.42s9.55-28.52,26.87-38.89c35.63-21.33,93.61-21.33,129.24,0,17.33,10.38,26.87,24.19,26.87,38.9s-9.54,28.52-26.87,38.89h0C188.54,248,165.13,253.32,141.73,253.32Zm0-109.09c-23.28,0-46.56,5.3-64.28,15.91C60.35,170.38,50.93,184,50.93,198.42s9.42,28,26.52,38.29c35.45,21.22,93.12,21.22,128.56,0h0c17.11-10.24,26.53-23.84,26.53-38.28s-9.42-28-26.53-38.28C188.29,149.53,165,144.23,141.73,144.23Z" />
                <path class="cls-1" d="M141.74,283.46c-36.26,0-72.51-8.26-100.12-24.78C14.78,242.61,0,221.21,0,198.42s14.78-44.18,41.62-60.25c55.2-33,145-33,200.22,0,26.84,16.07,41.62,37.47,41.62,60.26s-14.78,44.18-41.62,60.25h0C214.25,275.2,178,283.46,141.74,283.46Zm0-169c-36.07,0-72.13,8.21-99.58,24.65C15.65,155,1.06,176.05,1.06,198.42s14.59,43.44,41.09,59.31c54.91,32.87,144.26,32.87,199.17,0h0c26.5-15.87,41.09-36.93,41.09-59.3s-14.6-43.44-41.1-59.31C213.86,122.68,177.79,114.47,141.73,114.47Z" />
            </g>
            <path class="cls-2" d="M3.08,212.79,86.3,281c3.72,3,9.35,3.37,12.56.74L281.29,132.35c3.22-2.64,2.82-7.24-.9-10.29L197.16,53.9c-3.72-3-9.34-3.37-12.56-.73L2.17,202.5C-1,205.14-.64,209.74,3.08,212.79Z" />
            <path class="cls-3" d="M0,170l17.15-4.23L184.6,28.68c3.22-2.63,8.84-2.3,12.56.74L274.73,93l8.73-2.16v12.58h0a5.69,5.69,0,0,1-2.17,4.49L98.86,257.2c-3.21,2.64-8.84,2.31-12.56-.74L3.08,188.3A7.64,7.64,0,0,1,0,182.39H0Z" />
            <path class="cls-4" d="M3.08,175.81,86.3,244c3.72,3,9.35,3.37,12.56.74L281.29,95.37c3.22-2.64,2.82-7.24-.9-10.29L197.16,16.93c-3.72-3-9.34-3.38-12.56-.74L2.17,165.53C-1,168.16-.64,172.76,3.08,175.81Z" />
            <path class="cls-5" d="M3.08,174.2,86.3,242.36c3.72,3,9.35,3.37,12.56.74L281.29,93.76a5.68,5.68,0,0,0,2.11-3.64,5.65,5.65,0,0,1-2.11,5.25L98.86,244.71C95.65,247.34,90,247,86.3,244L3.08,175.81a7.38,7.38,0,0,1-3-6.64A7.93,7.93,0,0,0,3.08,174.2Z" />
            <polygon class="cls-6" points="2.95 164.89 99.64 244.07 280.51 96 183.82 16.82 2.95 164.89" />
            <polygon class="cls-7" points="251 114.01 242.78 120.77 147.94 43.19 156.2 36.4 251 114.01" />
            <polygon class="cls-7" points="89.14 171.57 71.74 185.9 47.2 165.72 64.7 151.55 89.14 171.57" />
            <polygon class="cls-7" points="182.18 78.41 160.02 96.64 125.59 68.38 147.87 50.31 182.18 78.41" />
            <polygon class="cls-7" points="61.96 149.32 44.57 163.65 26.94 149.14 44.45 134.97 61.96 149.32" />
            <polygon class="cls-7" points="130.65 205.55 113.25 219.88 95.63 205.37 113.14 191.2 130.65 205.55" />
            <polygon class="cls-7" points="233.84 121.32 211.88 139.42 189.62 121.09 211.73 103.2 233.84 121.32" />
            <polygon class="cls-7" points="208.23 100.36 186.26 118.45 164.01 100.12 186.12 82.23 208.23 100.36" />
            <polygon class="cls-8" points="159.86 108.14 148.2 117.82 106.79 83.79 118.62 74.36 159.86 108.14" />
            <polygon class="cls-7" points="187.56 159.37 138.87 199.37 52.32 128.38 101.18 88.64 187.56 159.37" />
            <polygon class="cls-9" points="205 145.09 193.35 154.78 181.34 144.81 193.17 135.39 205 145.09" />
            <polygon class="cls-7" points="189.73 132.59 178.07 142.27 166.07 132.31 177.9 122.88 189.73 132.59" />
            <polygon class="cls-10" points="174.98 120.52 163.32 130.2 151.32 120.24 163.15 110.81 174.98 120.52" />
            <polygon class="cls-7" points="110.2 188.45 92.93 202.71 75.2 188.08 92.61 174.03 110.2 188.45" />
            <path class="cls-6" d="M226.3,47.82l12.84,10.51a1.56,1.56,0,0,0,1.89.11l.13-.1a1,1,0,0,0-.14-1.55L228.18,46.28a1.54,1.54,0,0,0-1.88-.11l-.13.11A1,1,0,0,0,226.3,47.82Z" />
            <g class="slide-top">
                <polygon class="cls-11" points="241.55 27.24 217.82 46.79 217.83 56.97 241.53 37.56 241.55 27.24" />
                <polygon class="cls-12" points="241.55 27.24 217.82 46.79 193.78 26.99 217.66 7.67 241.55 27.24" />
                <polygon class="cls-13" points="193.78 26.99 217.82 46.79 217.83 56.97 193.79 37.31 193.78 26.99" />
                <polygon class="cls-6" points="241.55 27.24 217.82 46.79 217.83 56.97 241.53 37.56 241.55 27.24" />
                <g class="cls-14">
                    <path class="cls-15" d="M220,23.49a1.76,1.76,0,0,1,0,2.83,2.82,2.82,0,0,1-3.44,0,1.76,1.76,0,0,1,0-2.83A2.84,2.84,0,0,1,220,23.49Z" />
                    <path class="cls-15" d="M225.38,29.23a9.32,9.32,0,0,1-6,2.81L210,33a1.45,1.45,0,0,1-1.06-.3,1,1,0,0,1-.38-.88L209.6,24A7,7,0,0,1,213,19.09a10.16,10.16,0,0,1,6.67-1.38,9.57,9.57,0,0,1,4.88,2,6.82,6.82,0,0,1,2.49,4A6.21,6.21,0,0,1,225.38,29.23Zm-6.27.7a6.53,6.53,0,0,0,4.21-2,4.4,4.4,0,0,0,1.18-3.88,4.79,4.79,0,0,0-1.76-2.83,6.82,6.82,0,0,0-3.45-1.44,7.28,7.28,0,0,0-4.72,1,4.93,4.93,0,0,0-2.4,3.47l-.91,6.45,7.85-.77" />
                </g>
            </g>
            <g class="slide-top">
                <polygon class="cls-16" points="185.51 30.45 161.78 50 161.79 60.17 185.49 40.77 185.51 30.45" />
                <polygon class="cls-13" points="185.51 30.45 161.78 50 124.61 19.32 148.49 0 185.51 30.45" />
                <polygon class="cls-12" points="124.61 19.32 161.78 50 161.79 60.17 124.62 29.65 124.61 19.32" />
                <polygon class="cls-17" points="185.51 30.45 161.78 50 161.79 60.17 185.49 40.77 185.51 30.45" />
                <path class="cls-18" d="M156.61,22.9a5.88,5.88,0,0,1,2.11,6.37,1.32,1.32,0,0,1-1.54.74,1.39,1.39,0,0,1-.56-.27.91.91,0,0,1-.33-1,4,4,0,0,0-1.45-4.38,6.4,6.4,0,0,0-5.34-1.17,1.45,1.45,0,0,1-1.21-.27,1,1,0,0,1-.33-.46,1,1,0,0,1,.89-1.26A9.33,9.33,0,0,1,156.61,22.9Z" />
                <path class="cls-18" d="M152,26.69a1.58,1.58,0,0,1,0,2.55,2.54,2.54,0,0,1-3.11,0,1.58,1.58,0,0,1,0-2.55A2.55,2.55,0,0,1,152,26.69Z" />
                <path class="cls-18" d="M161.15,19.16a9.39,9.39,0,0,1,3.36,10.18,1.3,1.3,0,0,1-1.54.73,1.28,1.28,0,0,1-.56-.27.9.9,0,0,1-.33-1,7.56,7.56,0,0,0-2.7-8.19,12,12,0,0,0-10-2.19,1.46,1.46,0,0,1-1.22-.26,1,1,0,0,1,.56-1.73A14.94,14.94,0,0,1,161.15,19.16Z" />
            </g>
            <g class="slide-top">
                <polygon class="cls-19" points="107.98 146.7 89.32 162.1 89.34 172.28 107.97 157.03 107.98 146.7" />
                <polygon class="cls-13" points="107.98 146.7 89.32 162.1 70.17 146.3 88.98 131.13 107.98 146.7" />
                <polygon class="cls-12" points="70.17 146.3 89.32 162.1 89.34 172.28 70.18 156.62 70.17 146.3" />
                <polygon class="cls-17" points="107.98 146.7 89.32 162.1 89.34 172.28 107.97 157.03 107.98 146.7" />
                <path class="cls-20" d="M97,147.44a.75.75,0,0,1,0,1.2L90.47,154a1.19,1.19,0,0,1-1.46,0l-10.09-8.26a.75.75,0,0,1,0-1.21l6.56-5.4a1.22,1.22,0,0,1,1.47,0l2.38,1.95,1.16-1a1.13,1.13,0,0,1,.74-.26,1.1,1.1,0,0,1,.74.24l3.87,3.17a.75.75,0,0,1,0,1.2l-1.21,1Zm-7.3,4.8,5.1-4.2-2.4-2a.75.75,0,0,1,0-1.2l1.21-1-2.38-1.95-1.17,1a1.15,1.15,0,0,1-.73.27,1.16,1.16,0,0,1-.74-.25l-2.41-2-5.1,4.21,8.62,7.05" />
                <path class="cls-20" d="M89.48,145.37a1.38,1.38,0,0,1,0,2.21,2.19,2.19,0,0,1-2.68,0,1.38,1.38,0,0,1,0-2.21A2.21,2.21,0,0,1,89.48,145.37Z" />
            </g>
            <rect class="cls-21" x="138.51" y="205.91" width="0.88" height="1.24" />
            <path class="cls-21" d="M139.39,203.39h-.88v-2.52h.88Zm0-5h-.88v-2.52h.88Zm0-5h-.88v-2.52h.88Zm0-5h-.88v-2.52h.88Zm0-5h-.88v-2.52h.88Zm0-5h-.88v-2.53h.88Zm0-5.05h-.88v-2.52h.88Zm0-5h-.88v-2.52h.88Zm0-5h-.88v-2.52h.88Zm0-5h-.88V155.5h.88Z" />
            <rect class="cls-21" x="138.51" y="151.73" width="0.88" height="1.24" />
            <polygon class="cls-21" points="37.64 152.95 36.76 152.94 36.77 151.69 37.65 151.71 37.64 152.95" />
            <path class="cls-21" d="M37.55,164.45h-.88l0-2.88.88,0Zm0-5.75h-.87l0-2.88.88,0Z" />
            <polygon class="cls-21" points="37.51 168.57 36.63 168.56 36.65 167.32 37.52 167.33 37.51 168.57" />
            <polygon class="cls-21" points="18.49 137.29 17.61 137.29 17.62 136.04 18.49 136.05 18.49 137.29" />
            <path class="cls-21" d="M18.48,148.77H17.6V145.9h.88Zm0-5.74h-.87v-2.87h.88Z" />
            <polygon class="cls-21" points="18.47 152.88 17.59 152.88 17.59 151.64 18.47 151.64 18.47 152.88" />
            <polygon class="cls-21" points="55.41 137.69 55.4 136.45 56.28 136.45 56.28 137.69 55.41 137.69" />
            <path class="cls-21" d="M55.42,149v-2.83h.87V149Zm0-5.66v-2.83h.88v2.83Z" />
            <polygon class="cls-21" points="55.43 153.09 55.42 151.84 56.3 151.84 56.3 153.08 55.43 153.09" />
            <polygon class="cls-21" points="111.72 229.31 110.84 229.31 110.84 228.07 111.72 228.07 111.72 229.31" />
            <path class="cls-21" d="M111.72,225.34h-.87v-2.73h.88Zm0-5.46h-.88v-2.73h.88Zm0-5.46h-.88v-2.74h.88Zm0-5.46h-.88v-2.73h.88Z" />
            <polygon class="cls-21" points="111.76 203.5 110.88 203.49 110.89 202.25 111.76 202.25 111.76 203.5" />
            <polygon class="cls-21" points="129.63 213.83 129.62 212.59 130.5 212.58 130.51 213.82 129.63 213.83" />
            <path class="cls-21" d="M129.61,209.88v-2.7h.88v2.71Zm0-5.4v-2.71h.87l0,2.71Zm0-5.41,0-2.71h.88v2.71Zm0-5.41V191h.88v2.7Z" />
            <polygon class="cls-21" points="129.52 188.25 129.51 187 130.39 187 130.4 188.24 129.52 188.25" />
            <polygon class="cls-21" points="91.8 213.63 91.79 212.39 92.67 212.38 92.67 213.63 91.8 213.63" />
            <path class="cls-21" d="M91.79,209.66v-2.73h.88v2.73Zm0-5.45v-2.73h.87v2.73Zm0-5.46V196h.88v2.73Zm0-5.45v-2.73h.87v2.73Z" />
            <polygon class="cls-21" points="91.73 187.84 91.73 186.6 92.6 186.59 92.61 187.84 91.73 187.84" />
            <rect class="cls-21" x="88.7" y="209.7" width="1.24" height="0.88" transform="translate(-120.93 299.18) rotate(-89.92)" />
            <path class="cls-21" d="M89.76,207.11h-.87v-2.4h.87Zm0-4.8h-.88v-2.4h.88Zm0-4.79h-.88v-2.4h.88Zm0-4.8h-.88v-2.4h.88Zm0-4.8h-.88v-2.4h.88Zm0-4.8H88.9v-2.4h.87Zm0-4.8H88.9v-2.4h.88Z" />
            <rect class="cls-21" x="88.9" y="172.28" width="0.88" height="1.24" />
            <rect class="cls-21" x="69.74" y="156.62" width="0.88" height="1.24" />
            <path class="cls-21" d="M70.61,191.32h-.88v-2.39h.88Zm0-4.78h-.88v-2.39h.88Zm0-4.78h-.88v-2.39h.88Zm0-4.78h-.88v-2.39h.88Zm0-4.78h-.87v-2.39h.87Zm0-4.78h-.87V165h.87Zm0-4.78h-.88v-2.39h.88Z" />
            <polygon class="cls-21" points="70.6 194.95 69.73 194.95 69.73 193.71 70.6 193.71 70.6 194.95" />
            <polygon class="cls-21" points="107.54 195.36 107.54 194.11 108.42 194.11 108.42 195.36 107.54 195.36" />
            <path class="cls-21" d="M107.54,191.72v-2.38h.88v2.39Zm0-4.77v-2.39h.88v2.39Zm0-4.78v-2.39h.87v2.39Zm0-4.78V175h.87v2.39Zm0-4.78v-2.39h.88v2.39Zm0-4.78v-2.39h.88v2.39Zm0-4.78v-2.39h.88v2.39Z" />
            <rect class="cls-21" x="107.53" y="157.03" width="0.88" height="1.24" />
            <g class="slide-top">
                <polygon class="cls-22" points="129.97 176.68 111.31 192.08 111.32 202.25 129.95 187 129.97 176.68" />
                <polygon class="cls-12" points="129.97 176.68 111.31 192.08 92.15 176.27 110.96 161.1 129.97 176.68" />
                <polygon class="cls-23" points="92.15 176.27 111.31 192.08 111.32 202.25 92.17 186.6 92.15 176.27" />
                <polygon class="cls-17" points="129.97 176.68 111.31 192.08 111.32 202.25 129.95 187 129.97 176.68" />
                <path class="cls-15" d="M120.56,177.24a.63.63,0,0,1,0,1l-6.79,5.6a1,1,0,0,1-1.24,0l-10.46-8.56a.64.64,0,0,1,0-1l6.79-5.59a1,1,0,0,1,1.24,0Zm-3.3,1.71,1.45-1.2-9.21-7.54-1.45,1.2.56,7.1,8.65.44m-4.11,3.38,2.74-2.25-5.86-.3,3.12,2.55m-9.21-7.54,3.12,2.56-.38-4.81-2.74,2.25" />
            </g>
            <rect class="cls-21" x="45.02" y="85.44" width="0.88" height="1.24" />
            <path class="cls-21" d="M45.88,126.72H45v-2.5h.88Zm0-5H45v-2.5h.88Zm0-5H45v-2.5h.88Zm0-5H45v-2.5h.88Zm0-5H45v-2.5h.87Zm0-5H45v-2.5h.87Zm0-5H45v-2.5h.88Zm0-5H45V89.18h.88Z" />
            <rect class="cls-21" x="45.01" y="129.22" width="0.88" height="1.24" />
            <g class="slide-top">
                <polygon class="cls-24" points="55.86 126.13 37.2 141.53 37.21 151.7 55.84 136.45 55.86 126.13" />
                <polygon class="cls-12" points="55.86 126.13 37.2 141.53 18.04 125.72 36.85 110.55 55.86 126.13" />
                <polygon class="cls-13" points="18.04 125.72 37.2 141.53 37.21 151.7 18.05 136.04 18.04 125.72" />
                <polygon class="cls-6" points="55.86 126.13 37.2 141.53 37.21 151.7 55.84 136.45 55.86 126.13" />
                <g class="cls-14">
                    <path class="cls-15" d="M38,124.25a.73.73,0,0,1,0,1.17,1.16,1.16,0,0,1-1.43,0,.73.73,0,0,1,0-1.17A1.16,1.16,0,0,1,38,124.25Z" />
                    <path class="cls-15" d="M46.07,125.52a.72.72,0,0,1,0,1.16l-6.7,5.52a1.17,1.17,0,0,1-1.42,0l-1.07-.88-1.3,1.07a1.18,1.18,0,0,1-1,.19,1.23,1.23,0,0,1-.36-.19.75.75,0,0,1-.29-.53l-.28-3.23-5.24-4.28a.73.73,0,0,1,0-1.17l6.71-5.52a1.16,1.16,0,0,1,1.41,0Zm-7.41,4.94L44,126.1l-8.18-6.69-5.29,4.36,4.79,3.92a.75.75,0,0,1,.29.52l.16,1.74.44-.37a1.17,1.17,0,0,1,1.42,0l1.08.88" />
                    <path class="cls-15" d="M36.05,122.61a.73.73,0,0,1,0,1.18,1.19,1.19,0,0,1-1.43,0,.74.74,0,0,1,0-1.18A1.2,1.2,0,0,1,36.05,122.61Z" />
                    <path class="cls-15" d="M40,125.88a.74.74,0,0,1,0,1.18,1.2,1.2,0,0,1-1.44,0,.74.74,0,0,1,0-1.18A1.19,1.19,0,0,1,40,125.88Z" />
                </g>
            </g>
            <rect class="cls-21" x="217.39" y="56.97" width="0.88" height="1.24" />
            <path class="cls-21" d="M218.26,138.63h-.88v-2.51h.88Zm0-5h-.88v-2.51h.88Zm0-5h-.88v-2.52h.88Zm0-5h-.88V121h.88Zm0-5h-.88V116h.88Zm0-5h-.88V111h.87Zm0-5h-.87V106h.87Zm0-5h-.87v-2.52h.87Zm0-5h-.87V95.91h.87Zm0-5h-.87V90.88h.88Zm0-5h-.88V85.85h.88Zm0-5h-.88V80.83h.88Zm0-5h-.88V75.8h.88Zm0-5h-.88V70.77h.88Zm0-5h-.88V65.75h.88Zm0-5h-.88V60.72h.88Z" />
            <rect class="cls-21" x="217.38" y="141.14" width="0.88" height="1.24" />
            <rect class="cls-21" x="241.11" y="121.59" width="0.88" height="1.24" />
            <path class="cls-21" d="M241.11,119.08v-2.5H242v2.5Zm0-5v-2.51H242v2.51Zm0-5v-2.51H242v2.51Zm0-5v-2.51H242V104Zm0-5V96.51H242V99Zm0-5V91.49H242V94Zm0-5V86.47H242V89Zm0-5V81.45H242V84Zm0-5V76.44H242V79Zm0-5V71.42H242v2.51Zm0-5V66.4H242v2.51Zm0-5v-2.5H242v2.5Zm0-5V56.37H242v2.51Zm0-5V51.35H242v2.51Zm0-5V46.33H242v2.51Zm0-5V41.32H242v2.51Z" />
            <rect class="cls-21" x="241.09" y="37.56" width="0.88" height="1.24" />
            <rect class="cls-21" x="189.54" y="100.73" width="1.24" height="0.88" transform="translate(88.72 291.19) rotate(-89.92)" />
            <path class="cls-21" d="M190.59,116.11h-.88v-2.39h.87Zm0-4.77h-.87V109h.88Zm0-4.78h-.88v-2.38h.88Z" />
            <rect class="cls-21" x="189.53" y="118.68" width="1.24" height="0.88" transform="matrix(0, -1, 1, 0, 70.77, 309.09)" />
            <polygon class="cls-21" points="213.43 82.39 213.42 81.15 214.3 81.15 214.3 82.39 213.43 82.39" />
            <path class="cls-21" d="M213.44,96.58V94.21h.88v2.37Zm0-4.73V89.48h.88v2.37Zm0-4.73V84.76h.87v2.37Z" />
            <rect class="cls-21" x="213.44" y="98.94" width="0.88" height="1.24" />
            <rect class="cls-21" x="165.5" y="81.08" width="1.24" height="0.88" transform="translate(84.37 247.52) rotate(-89.92)" />
            <path class="cls-21" d="M166.55,96.32h-.88V94h.88Zm0-4.72h-.88V89.23h.87Zm0-4.73h-.87V84.5h.88Z" />
            <polygon class="cls-21" points="166.54 99.93 165.67 99.93 165.67 98.69 166.54 98.69 166.54 99.93" />
            <rect class="cls-21" x="161.36" y="60.17" width="0.88" height="1.24" />
            <path class="cls-21" d="M162.23,92.35h-.87V89.78h.87Zm0-5.15h-.87V84.62h.87Zm0-5.16h-.87V79.46h.87Zm0-5.15h-.87V74.31h.87Zm0-5.16h-.87V69.15h.87Zm0-5.16h-.87V64h.87Z" />
            <rect class="cls-21" x="161.36" y="94.93" width="0.88" height="1.24" />
            <polygon class="cls-21" points="185.06 42.02 185.06 40.78 185.93 40.77 185.94 42.01 185.06 42.02" />
            <path class="cls-21" d="M185.27,72.68l0-2.55h.88l0,2.55Zm0-5.11V65h.87l0,2.55Zm0-5.11,0-2.55h.88l0,2.55Zm0-5.11,0-2.55H186v2.55Zm0-5.11,0-2.55H186l0,2.55Zm0-5.11,0-2.55H186v2.55Z" />
            <polygon class="cls-21" points="185.29 76.48 185.29 75.24 186.16 75.23 186.17 76.47 185.29 76.48" />
            <rect class="cls-21" x="124.18" y="29.65" width="0.88" height="1.24" />
            <path class="cls-21" d="M125.05,61.82h-.88V59.24h.88Zm0-5.16h-.88V54.08h.88Zm0-5.15h-.87V48.93h.87Zm0-5.16h-.87V43.78h.88Zm0-5.15h-.88V38.62h.88Zm0-5.16h-.88V33.47h.88Z" />
            <rect class="cls-21" x="124.17" y="64.39" width="0.88" height="1.24" />
            <polygon class="cls-21" points="197.35 151.79 197.34 150.54 198.22 150.54 198.22 151.78 197.35 151.79" />
            <polygon class="cls-21" points="197.35 155.75 197.35 153.77 198.23 153.77 198.23 155.75 197.35 155.75" />
            <polygon class="cls-21" points="197.36 158.98 197.36 157.74 198.24 157.73 198.24 158.98 197.36 158.98" />
            <polygon class="cls-21" points="209.94 141.31 209.94 140.07 210.81 140.06 210.82 141.31 209.94 141.31" />
            <polygon class="cls-21" points="209.95 145.29 209.94 143.3 210.82 143.3 210.82 145.28 209.95 145.29" />
            <polygon class="cls-21" points="209.95 148.52 209.95 147.28 210.83 147.27 210.83 148.52 209.95 148.52" />
            <polygon class="cls-21" points="185.28 140.97 184.4 140.97 184.41 139.73 185.28 139.73 185.28 140.97" />
            <polygon class="cls-21" points="185.27 144.97 184.4 144.97 184.4 142.97 185.28 142.97 185.27 144.97" />
            <polygon class="cls-21" points="185.27 148.22 184.39 148.21 184.39 146.97 185.27 146.97 185.27 148.22" />
            <g class="slide-top">
                <polygon class="cls-25" points="191.55 108.34 138.92 151.74 138.94 161.91 191.53 118.67 191.55 108.34" />

                <polygon class="cls-26" points="191.55 108.34 138.92 151.74 45.45 75.11 98.22 31.95 191.55 108.34" />
                <polygon class="cls-27" points="45.45 75.11 138.94 151.74 138.94 161.91 45.46 85.44 45.45 75.11" />
                <polygon class="cls-28" points="191.55 108.34 138.94 151.74 138.94 161.91 191.55 118.67 191.55 108.34" />
            </g>
            <rect class="cls-21" x="193.35" y="37.31" width="0.88" height="1.24" />
            <path class="cls-21" d="M194.21,118.83h-.87v-2.51h.87Zm0-5h-.87V111.3h.87Zm0-5h-.88v-2.51h.88Zm0-5h-.88v-2.51h.88Zm0-5h-.88V96.25h.88Zm0-5h-.88v-2.5h.88Zm0-5h-.88V86.22h.88Zm0-5h-.88V81.2h.88Zm0-5h-.88V76.18h.88Zm0-5h-.88V71.17h.88Zm0-5h-.87V66.15h.87Zm0-5h-.87V61.13h.87Zm0-5h-.87V56.11h.87Zm0-5h-.87V51.1h.88Zm0-5h-.88V46.08h.88Zm0-5h-.88V41.06h.88Z" />
            <rect class="cls-21" x="193.34" y="121.34" width="0.88" height="1.24" />
            <rect class="cls-21" x="191.1" y="118.67" width="0.88" height="1.24" />
            <path class="cls-21" d="M191.11,160.18v-2.52H192v2.52Zm0-5v-2.52H192v2.52Zm0-5V147.6H192v2.51Zm0-5v-2.52H192v2.52Zm0-5v-2.52H192v2.52Zm0-5V132.5H192V135Zm0-5v-2.52H192V130Zm0-5v-2.52H192V125Z" />
            <rect class="cls-21" x="191.11" y="162.7" width="0.88" height="1.24" />
            <g class="slide-top">
                <path class="cls-29" d="M156.69,123.37l1.52-1.36c1.68-1.52,1.81-3.69,1.07-6.22a4.72,4.72,0,0,1-1.65,3.31c-3.72,3.11-12.43.78-19.45-5.21-4.38-3.74-7.07-8-7.56-11.48-2.11,1.77-1.81,13.72,14.39,21.17a19.7,19.7,0,0,0,5.83,1.58A7.52,7.52,0,0,0,156.69,123.37Z" />
                <path class="cls-30" d="M124.59,102.39a6.64,6.64,0,0,1,3.94-1.36c-3-.65-5.56-.56-7.38.85l-1.63,1.26a5.26,5.26,0,0,0-2.17,4.93,13.08,13.08,0,0,0,1.81,4.94c8.65,13.76,22.8,14.13,24.91,12.37-4.08-.45-9.13-2.76-13.51-6.51C123.54,112.88,120.87,105.51,124.59,102.39Z" />
                <path class="cls-31" d="M146.6,114.68a18.84,18.84,0,0,0,5.58,1.62,7.51,7.51,0,0,0,5.8-1.71l1.55-1.34c1.79-1.54,2-4,1.51-6.73a10.31,10.31,0,0,0-1.32-3.26,23.72,23.72,0,0,0-5.88-7.16,27.77,27.77,0,0,0-9-5.24h0l-.06,0a16.31,16.31,0,0,0-3-.71c-3.24-.51-6.1,0-7.92,1.52A6.21,6.21,0,0,0,132,95C130,103.27,140.48,111.78,146.6,114.68Zm6.7-17.81c5.7,4.86,7.9,10.84,4.9,13.34s-10,.59-15.74-4.27-7.9-10.84-4.9-13.35S147.6,92,153.3,96.87Z" />

                <path class="cls-32" d="M101.78,78.69l-1.71-1.46a2.38,2.38,0,0,0-1.95-.43L90,78.09l5.61-4.69-2-1.74L81,82.16l2,1.74,3.25-2.72a2.46,2.46,0,0,1,1.24-.56h0a1.53,1.53,0,0,1,1.34.37A1.13,1.13,0,0,1,89,82.22L87.7,85.7a2.28,2.28,0,0,0,.56,2.67l1.18,1L93.2,80Z" />
                <path class="cls-33" d="M101,91.82a4.57,4.57,0,0,1-4.74-.51c-1.69-1.44-1.21-3.76,1.18-5.76s5.13-2.37,6.83-.92a3,3,0,0,1,.72,3.66l0,.08.27.11a2.58,2.58,0,0,0,2.25-.31,2.25,2.25,0,0,0,1.2-1.78,4.85,4.85,0,0,0-1.8-3.8c-2.88-2.45-7.69-2-11.45,1.2s-4.51,7.21-1.58,9.7c2.07,1.77,5.3,2,8.44.63l.14-.06-1.31-2.28Z" />
                <path class="cls-34" d="M112,97.22a4.54,4.54,0,0,0,3.78-1.11c1.85-1.56,2-3.81.32-5.24l-2.85-2.43a2.06,2.06,0,0,0-2.49.26L99.57,98l4,3.42a5.24,5.24,0,0,0,7.06-.14c1.74-1.46,1.84-3,1.32-4.08m-1.24-2.44-1.56-1.33,2.28-1.92a.7.7,0,0,1,.84-.08l1.16,1a1.34,1.34,0,0,1-.12,2.23,1.93,1.93,0,0,1-2.6.11m-3.62.39,1.81,1.54c.88.75.8,1.78-.2,2.61a2.22,2.22,0,0,1-3,.1l-1.81-1.55Z" />
                <path class="cls-35" d="M122,71.28l-.85.71,1.6,1.36.81-.68-1-.83,0,0c.11-.09.7-.54,1.2-.12l.45.39.81-.68-.45-.39A2.11,2.11,0,0,0,122,71.28Z" />
                <path class="cls-36" d="M87.54,55.58c-.84.71-1,1.72-.36,2.27a2.2,2.2,0,0,0,2.69-.28c.84-.7,1-1.72.36-2.27A2.21,2.21,0,0,0,87.54,55.58Z" />
                <path class="cls-37" d="M119,69.9a1.61,1.61,0,0,0,2-.2c.62-.52.74-1.26.26-1.67a1.61,1.61,0,0,0-2,.21C118.65,68.75,118.54,69.5,119,69.9Z" />
                <path class="cls-38" d="M117,68.18a1.62,1.62,0,0,0,2-.2c.61-.52.73-1.26.26-1.67a1.61,1.61,0,0,0-2,.21C116.64,67,116.52,67.78,117,68.18Z" />
                <path class="cls-39" d="M121.23,74.55a2.89,2.89,0,0,0-3.43.25l-4.54,3.8a1.59,1.59,0,0,1-1.66.09L110,77.36l7.32-6.12a2.89,2.89,0,0,0-3.46.27L108.48,76l-3-2.52,2.64-2.21c1.88-1.57,3.72-4.72,1.1-7s-6.37-.71-8.25.86c-.27.23-2.7,2.16-4.66.49L95,64.49l11.16-9.33a2.93,2.93,0,0,0-3.57.36L91.37,64.87l3,2.52a5.11,5.11,0,0,0,4.48,1,3.37,3.37,0,0,0,1.11,3.79l3,2.55.59.5,6.93,5.91a3,3,0,0,0,3.49-.45h0l7.32-6.12ZM104,72.18l-2-1.72c-1.89-1.62.19-3.57.62-3.93s2.77-2.11,4.67-.49-.19,3.57-.62,3.93Z" />
                <path class="cls-40" d="M128.83,74.51l-.1-.09a3,3,0,0,0-3.42.4l-7.79,6.52,1.55,1.32Z" />
                <path class="cls-41" d="M128.62,77.7,121,84.06c-.48.39-1.71,1.2-2.77.3l-2.15-1.83h0c-1,.86-1.29,2.07-.67,2.83l.81.69c2,1.72,4.9.55,6.34-.66l9.62-8-.1-.09A3,3,0,0,0,128.62,77.7Z" />
                <path class="cls-42" d="M135.57,80.25a3,3,0,0,0-3.35.35L120.9,90.06l1.56,1.33,13.21-11Z" />
                <path class="cls-43" d="M91.41,59.06c-.4.33-4,3.16-6.81.71s.52-5.42.9-5.75,4-3.16,6.82-.71l1.31,1.12.22-.19c.91-.88,1.08-2,.37-2.73C90.67,48.63,86,51,84,52.69s-5,5.74-1.39,8.78,8.36.62,10.4-1.09l5.9-4.93L97.3,54.13Z" />
                <path class="cls-44" d="M156.69,122l1.52-1.37c1.68-1.52,1.81-3.69,1.07-6.22a4.68,4.68,0,0,1-1.65,3.31c-3.72,3.11-12.43.78-19.45-5.21-4.38-3.74-7.07-8-7.56-11.47-2.11,1.76-1.81,13.72,14.39,21.16a19.7,19.7,0,0,0,5.83,1.58A7.51,7.51,0,0,0,156.69,122Z" />
                <path class="cls-1" d="M124.59,101a6.64,6.64,0,0,1,3.94-1.36c-3-.65-5.56-.56-7.38.85l-1.63,1.27a5.23,5.23,0,0,0-2.17,4.92,13.06,13.06,0,0,0,1.81,5c8.65,13.76,22.8,14.12,24.91,12.36-4.08-.45-9.13-2.76-13.51-6.5C123.54,111.54,120.87,104.16,124.59,101Z" />
                <path class="cls-1" d="M146.6,113.33a18.54,18.54,0,0,0,5.58,1.62,7.47,7.47,0,0,0,5.8-1.71l1.55-1.33c1.79-1.54,2-4.06,1.51-6.74a10.41,10.41,0,0,0-1.32-3.26,23.72,23.72,0,0,0-5.88-7.16,27.73,27.73,0,0,0-9-5.23h0l-.06,0a17.19,17.19,0,0,0-3-.71c-3.24-.51-6.1-.05-7.92,1.52A6.25,6.25,0,0,0,132,93.62C130,101.92,140.48,110.44,146.6,113.33Zm6.7-17.81c5.7,4.87,7.9,10.84,4.9,13.35s-10,.59-15.74-4.28-7.9-10.84-4.9-13.34S147.6,90.66,153.3,95.52Z" />
                <path class="cls-1" d="M101.78,77.35l-1.71-1.46a2.42,2.42,0,0,0-1.95-.44L90,76.74l5.61-4.69-2-1.73L81,80.82l2,1.73,3.25-2.72a2.46,2.46,0,0,1,1.24-.56h0a1.56,1.56,0,0,1,1.34.37A1.13,1.13,0,0,1,89,80.87L87.7,84.35A2.27,2.27,0,0,0,88.26,87l1.18,1,3.76-9.41Z" />
                <path class="cls-1" d="M101,90.47A4.54,4.54,0,0,1,96.23,90C94.54,88.52,95,86.2,97.41,84.2s5.13-2.37,6.83-.92a3,3,0,0,1,.72,3.66l0,.08.27.11a2.57,2.57,0,0,0,2.25-.3,2.26,2.26,0,0,0,1.2-1.79,4.82,4.82,0,0,0-1.8-3.79c-2.88-2.46-7.69-2-11.45,1.19s-4.51,7.21-1.58,9.7c2.07,1.77,5.3,2,8.44.63l.14-.06-1.31-2.28Z" />
                <path class="cls-1" d="M112,95.87a4.51,4.51,0,0,0,3.78-1.11c1.85-1.56,2-3.81.32-5.24L113.2,87.1a2,2,0,0,0-2.49.26L99.57,96.68l4,3.41a5.23,5.23,0,0,0,7.06-.14c1.74-1.45,1.84-3,1.32-4.08m-1.24-2.43-1.56-1.34,2.28-1.91a.69.69,0,0,1,.84-.09l1.16,1a1.33,1.33,0,0,1-.12,2.22,1.93,1.93,0,0,1-2.6.12m-3.62.38,1.81,1.55c.88.75.8,1.77-.2,2.61a2.23,2.23,0,0,1-3,.09l-1.81-1.54Z" />
                <path class="cls-1" d="M122,69.93l-.85.71,1.6,1.36.81-.68-1-.83,0,0c.11-.09.7-.54,1.2-.12l.45.39.81-.68-.45-.39A2.13,2.13,0,0,0,122,69.93Z" />
                <path class="cls-1" d="M87.54,54.24c-.84.7-1,1.72-.36,2.27a2.22,2.22,0,0,0,2.69-.28c.84-.71,1-1.72.36-2.27A2.2,2.2,0,0,0,87.54,54.24Z" />
                <path class="cls-1" d="M119,68.56a1.61,1.61,0,0,0,2-.21c.62-.52.74-1.26.26-1.66a1.6,1.6,0,0,0-2,.2C118.65,67.41,118.54,68.15,119,68.56Z" />
                <path class="cls-1" d="M117,66.84a1.63,1.63,0,0,0,2-.21c.61-.52.73-1.26.26-1.66a1.61,1.61,0,0,0-2,.2C116.64,65.69,116.52,66.43,117,66.84Z" />
                <path class="cls-1" d="M121.23,73.21a2.9,2.9,0,0,0-3.43.24l-4.54,3.8a1.57,1.57,0,0,1-1.66.09L110,76l7.32-6.12a2.92,2.92,0,0,0-3.46.27l-5.41,4.52-3-2.52L108.17,70c1.88-1.57,3.72-4.72,1.1-7s-6.37-.71-8.25.86c-.27.23-2.7,2.16-4.66.49L95,63.14l11.16-9.33a2.94,2.94,0,0,0-3.57.36L91.37,63.52l3,2.52a5,5,0,0,0,4.48,1,3.37,3.37,0,0,0,1.11,3.79l3,2.55.59.5,6.93,5.92a3,3,0,0,0,3.49-.46h0l7.32-6.12h0ZM104,70.84l-2-1.73c-1.89-1.62.19-3.56.62-3.93s2.77-2.11,4.67-.49-.19,3.57-.62,3.94Z" />
                <path class="cls-1" d="M128.83,73.16l-.1-.08a3,3,0,0,0-3.42.4L117.52,80l1.55,1.33Z" />
                <path class="cls-1" d="M128.62,76.35,121,82.72c-.48.39-1.71,1.19-2.77.29l-2.15-1.83,0,0c-1,.86-1.29,2.06-.67,2.82l.81.69c2,1.72,4.9.55,6.34-.66l9.62-8-.1-.08A3,3,0,0,0,128.62,76.35Z" />
                <path class="cls-1" d="M135.57,78.91a3,3,0,0,0-3.35.34L120.9,88.72,122.46,90,135.67,79Z" />
                <path class="cls-1" d="M91.41,57.71c-.4.33-4,3.16-6.81.71s.52-5.42.9-5.75,4-3.16,6.82-.71l1.31,1.12.22-.18c.91-.88,1.08-2,.37-2.74C90.67,47.28,86,49.66,84,51.35s-5,5.73-1.39,8.77S90.92,60.74,93,59l5.9-4.93L97.3,52.78Z" />
            </g>
            <g class="slide-top">
                <polygon class="cls-22" points="213.88 70.82 190.15 90.37 190.16 100.55 213.86 81.15 213.88 70.82" />
                <polygon class="cls-45" points="213.88 70.82 190.15 90.37 166.11 70.57 189.99 51.25 213.88 70.82" />
                <polygon class="cls-12" points="166.11 70.57 190.15 90.37 190.16 100.55 166.12 80.89 166.11 70.57" />
                <polygon class="cls-17" points="213.88 70.82 190.15 90.37 190.16 100.55 213.86 81.15 213.88 70.82" />
                <path class="cls-46" d="M197.56,63.69a7.77,7.77,0,0,1,.05,12.48,12.48,12.48,0,0,1-15.19,0,7.75,7.75,0,0,1,0-12.46A12.48,12.48,0,0,1,197.56,63.69Zm-13.38,11a9.57,9.57,0,0,0,11.66,0,6,6,0,0,0,0-9.58,9.57,9.57,0,0,0-11.66,0,6,6,0,0,0,0,9.58" />
                <path class="cls-46" d="M191.29,66.39a.71.71,0,0,1,.23.34l1.56,4.83c.17.55-.43,1-1.09.9L186.1,71.2a.87.87,0,0,1-.41-.19.66.66,0,0,1,0-1.05L190,66.39A1,1,0,0,1,191.29,66.39Z" />
            </g>
            <g class="slide-top">
                <polygon class="cls-16" points="210.39 129.74 197.77 140.37 197.78 150.54 210.38 140.07 210.39 129.74" />
                <polygon class="cls-13" points="210.39 129.74 197.77 140.37 184.83 129.41 197.61 119.01 210.39 129.74" />
                <polygon class="cls-17" points="184.83 129.41 197.77 140.37 197.78 150.54 184.84 139.73 184.83 129.41" />
                <polygon class="cls-12" points="210.39 129.74 197.77 140.37 197.78 150.54 210.38 140.07 210.39 129.74" />
                <path class="cls-20" d="M198.41,128.92a.82.82,0,0,1,0,1.31,1.32,1.32,0,0,1-1.6,0,.82.82,0,0,1,0-1.31A1.29,1.29,0,0,1,198.41,128.92Z" />
                <path class="cls-20" d="M200.45,133.76a.49.49,0,0,1-.43.51l-1.59.36a.7.7,0,0,1-.57-.13.57.57,0,0,1-.13-.14l-.6-1.1a5.17,5.17,0,0,1-1.32-.29l-1.19.7a.68.68,0,0,1-.76,0l-1.17-1a.42.42,0,0,1-.06-.62l.85-1a3.68,3.68,0,0,1-.36-1.09l-1.33-.49a.77.77,0,0,1-.18-.1.42.42,0,0,1-.15-.47l.42-1.31a.57.57,0,0,1,.62-.35l1.46.12a4.44,4.44,0,0,1,.44-.43,5.49,5.49,0,0,1,.53-.37l-.16-1.19a.49.49,0,0,1,.43-.52l1.6-.35a.71.71,0,0,1,.57.13.53.53,0,0,1,.12.14l.6,1.1a5.35,5.35,0,0,1,1.33.29l1.17-.71a.7.7,0,0,1,.77.06l1.17,1a.43.43,0,0,1,.06.63l-.85,1a3.24,3.24,0,0,1,.35,1.09l1.34.49a.52.52,0,0,1,.18.1.46.46,0,0,1,.16.47l-.43,1.3a.59.59,0,0,1-.63.36l-1.45-.12a4.57,4.57,0,0,1-.45.43,3.41,3.41,0,0,1-.52.36Zm-1.85-.18.62-.13-.14-1.08a.48.48,0,0,1,.28-.46,3.48,3.48,0,0,0,.62-.4,2.34,2.34,0,0,0,.48-.51.64.64,0,0,1,.56-.22l1.31.1.17-.51-1.21-.44a.59.59,0,0,1-.17-.1.4.4,0,0,1-.17-.33,2.47,2.47,0,0,0-.41-1.24.4.4,0,0,1,0-.51l.76-.87-.46-.38-1.06.63a.71.71,0,0,1-.62,0,3.86,3.86,0,0,0-1.51-.33.7.7,0,0,1-.41-.15.53.53,0,0,1-.12-.14l-.54-1-.62.13.14,1.08a.48.48,0,0,1-.28.46,3.48,3.48,0,0,0-.62.4,2.53,2.53,0,0,0-.48.5.64.64,0,0,1-.56.23l-1.31-.11-.16.51,1.2.45a.56.56,0,0,1,.17.09.48.48,0,0,1,.18.34,2.31,2.31,0,0,0,.4,1.23.42.42,0,0,1,0,.52l-.77.87.46.38,1.06-.63a.68.68,0,0,1,.62,0,3.84,3.84,0,0,0,1.52.33.77.77,0,0,1,.4.14.57.57,0,0,1,.12.15l.54,1" />
            </g>
        </g>
    </g>
</svg>
