<svg width="100" height="100" viewBox="0 0 100 100" fill="none" xmlns="http://www.w3.org/2000/svg">
<path d="M90.6754 79.0367L85.7801 73.7385C91.8105 64.4068 94.1556 54.0255 92.2805 42.8144C90.8574 33.8477 86.531 25.5953 79.9648 19.3227C72.4993 12.0902 63.4988 7.96168 53.0632 7.23694C42.6276 6.51219 33.257 9.27122 24.7415 15.3391L19.6162 10.4058C35.7772 -2.66958 62.8238 -4.73385 82.2749 11.8153C103.711 30.0489 104.681 59.7235 90.6754 79.0367Z" fill="white"/>
<path d="M14.4111 26.0404C8.87764 34.2578 6.36063 44.1366 7.28764 53.9987C8.21464 63.8608 12.5285 73.098 19.4964 80.1413C26.66 87.5335 36.3024 92.0207 46.573 92.7419C57.0736 93.5716 66.6592 90.8176 75.2847 84.6697L80.415 89.613C63.499 103.178 35.2523 104.803 15.7162 86.3841C-4.005 67.8057 -4.005 39.1857 9.26579 21.1071L14.4111 26.0404Z" fill="white"/>
<path d="M44.8033 55.2051H43.8483C40.138 55.2051 36.4278 55.2051 32.7126 55.2051C29.8674 55.2051 27.7873 53.2557 27.4823 50.3418C27.4028 49.094 27.7724 47.8589 28.5244 46.8597C29.2763 45.8605 30.3611 45.1632 31.5825 44.8937C32.0201 44.8195 32.4643 44.7927 32.9076 44.8137C36.5678 44.8137 40.228 44.8137 43.9083 44.8137H44.7933C44.7933 44.5188 44.8283 44.3139 44.8283 44.119C44.8283 40.3053 44.8283 36.4916 44.8283 32.678C44.8067 31.9821 44.9252 31.289 45.1767 30.6398C45.4282 29.9905 45.8076 29.3984 46.2924 28.8986C46.7772 28.3987 47.3575 28.0013 47.9989 27.7299C48.6402 27.4585 49.3296 27.3186 50.0261 27.3186C50.7226 27.3186 51.412 27.4585 52.0534 27.7299C52.6948 28.0013 53.2751 28.3987 53.7599 28.8986C54.2447 29.3984 54.6241 29.9905 54.8756 30.6398C55.1271 31.289 55.2455 31.9821 55.2239 32.678C55.2239 36.3867 55.2239 40.1004 55.2239 43.8091V44.8087H56.144C59.8292 44.8087 63.5144 44.8087 67.1996 44.8087C68.2133 44.7534 69.2198 45.0079 70.0853 45.5382C70.9508 46.0685 71.6343 46.8496 72.0449 47.7777C72.4282 48.5795 72.5998 49.466 72.5435 50.3529C72.4871 51.2398 72.2047 52.0975 71.7231 52.8445C71.2415 53.5914 70.5766 54.2028 69.7919 54.6203C69.0071 55.0379 68.1285 55.2478 67.2396 55.23C63.2944 55.2001 59.3492 55.23 55.2989 55.23C55.2989 55.5549 55.2289 55.8748 55.2289 56.1997C55.2289 59.8584 55.1539 63.5171 55.2289 67.1958C55.2506 68.3756 54.8792 69.5291 54.1731 70.4746C53.467 71.4202 52.4664 72.1042 51.3287 72.419C50.1829 72.7284 48.9654 72.6327 47.8821 72.1482C46.7988 71.6637 45.9161 70.82 45.3833 69.7599C45.0213 69.0135 44.8316 68.1953 44.8283 67.3658C44.7733 63.6571 44.8283 59.9434 44.8283 56.2347L44.8033 55.2051Z" fill="white"/>
</svg>
