<svg xmlns="http://www.w3.org/2000/svg" viewBox="0 0 23.28 25.86"><defs><style>.cls-1{fill:#002554;}</style></defs><title>register</title><g id="Layer_2" data-name="Layer 2"><g id="Layer_1-2" data-name="Layer 1"><path class="cls-1" d="M14.57.1a.41.41,0,0,1,0-.1,1.26,1.26,0,0,1,.75.17,7.12,7.12,0,0,1,.78.53A25.82,25.82,0,0,1,18.63,3l.47.55a1.57,1.57,0,0,1,.31,1.28h-3.7A.82.82,0,0,1,15,4.48a2.24,2.24,0,0,1-.46-1.31C14.56,2.15,14.57,1.13,14.57.1Z"/><path class="cls-1" d="M21.43,19.67c-1.58,1.58-3.17,3.16-4.74,4.75a3.41,3.41,0,0,1-1.56,1c-.53.16-1.07.31-1.61.44-.34.09-.5-.06-.45-.41a7.8,7.8,0,0,1,.26-1.06,10.68,10.68,0,0,1,.42-1.2,1.82,1.82,0,0,1,.36-.51l5.21-5.21.06-.06,2.16,2.17Z"/><path class="cls-1" d="M23.19,17.86c-.22.29-.47.56-.74.86l-2.17-2.24c.15-.13.34-.29.51-.46a1,1,0,0,1,1.48-.11,2,2,0,0,1,1,1.52A.7.7,0,0,1,23.19,17.86Z"/><path class="cls-1" d="M19.24,6.46H15.66a2.33,2.33,0,0,1-1.86-.84,3.56,3.56,0,0,1-.86-2.4c0-1,0-2,0-3V0H3.06a2.32,2.32,0,0,0-.58.08A3.2,3.2,0,0,0,1.06,1,3.31,3.31,0,0,0,0,3.34q0,8.79,0,17.58a2.51,2.51,0,0,0,.23,1,4.26,4.26,0,0,0,1.63,1.81,3.23,3.23,0,0,0,1.79.52c2.22,0,4.43,0,6.65,0a.35.35,0,0,0,.29-.12l4.7-4.89.08-.09a2,2,0,0,1-.95.2H5l-.29,0A1.59,1.59,0,0,1,3.41,17a1.57,1.57,0,0,1,1.49-.88h9.68A1.62,1.62,0,0,1,16,18.46l0,.11.08-.07c1.09-1.13,2.19-2.26,3.27-3.4a.34.34,0,0,0,.09-.24q0-4.11,0-8.22V6.46ZM16,12a1.55,1.55,0,0,1-1.41.94H4.9a1.54,1.54,0,0,1-1.49-.87A1.61,1.61,0,0,1,4.75,9.7c.71,0,1.42,0,2.12,0h7.62a1.63,1.63,0,0,1,1.33.62A1.53,1.53,0,0,1,16,12Z"/></g></g></svg>