<svg xmlns="http://www.w3.org/2000/svg" viewBox="0 0 800 227.3"><defs><style>.cls-1{fill:#d0b787;}.cls-2{fill:#fff;}</style></defs><title>KCB</title><g id="Layer_2" data-name="Layer 2"><g id="Layer_1-2" data-name="Layer 1"><path class="cls-1" d="M800,116.69l-.6-12.37C798.69,90.58,786.18,80,767,71.12c7.52,6.69,11.73,14.11,11.73,21.94,0,29.26-58.47,53-130.6,53-45.08,0-84.82-9.26-108.29-23.35,0,16.55,74.22,71,201.91,41.33a141.94,141.94,0,0,0,39.3-15.81C792.76,141.37,800.6,129.84,800,116.69Z"/><path class="cls-2" d="M509.05,146.5c0-7.83,4.22-15.25,11.73-21.94-19.17,8.86-31.68,19.46-32.35,33.2l-.6,12.37c-.64,13.15,7.2,24.68,18.91,31.51A141.55,141.55,0,0,0,546,217.46c127.69,29.67,201.91-24.78,201.91-41.34-23.47,14.1-63.21,23.36-108.29,23.36C567.52,199.48,509.05,175.76,509.05,146.5Z"/><path class="cls-2" d="M695.73,116.3A135.87,135.87,0,0,0,734,101.68c11.46-6.48,19.33-17.77,19.08-30.94l-.24-12.37c-.27-14.28-14.27-27-33.29-37.35a114.09,114.09,0,0,0-26.52-9.89c-20.12-6.24-45.66-10-73.49-10-29.71,0-56.83,4.27-77.51,11.29l.12-.06-.46.17A114.33,114.33,0,0,0,522.34,21C502.75,31.52,491,45,491.23,59.53c.12,6.38,2.92,14.45,10.37,23C541.9,129.14,647,127.15,695.73,116.3ZM621.52,6.88c58.6,0,106.11,19.07,106.11,42.6s-47.51,42.6-106.11,42.6S515.41,73,515.41,49.48,562.91,6.88,621.52,6.88Z"/><path class="cls-2" d="M248.86,126.84H231.25a16.71,16.71,0,0,0-12.56,5.69L185.06,170.9V126.84h-20.9V225.5h20.9V200a11,11,0,0,1,2.92-7.53h0a11.14,11.14,0,0,1,17.51,1.34l14.36,21.53a22.89,22.89,0,0,0,19.07,10.21H251L213,166.82Z"/><path class="cls-2" d="M324.61,191.08c-4.93,10.45-14.87,16.45-27.29,16.45-17.34,0-29-12.66-29-31.51s11.72-31.35,29.14-31.35c15.26,0,22.8,8.87,25.94,14.17l.31.52,2-.55a13.42,13.42,0,0,0,9.64-10.37,13,13,0,0,0-4.81-13.05c-8.77-6.87-19.92-10.49-32.23-10.49-29.55,0-51,21.44-51,51,0,30.27,21,51.41,51,51.41,21.3,0,39.23-11.72,46.78-30.59l.34-.85-20.53-5.39Z"/><path class="cls-2" d="M413.27,172.62c5.18-2.34,12.44-8.63,12.44-20.16,0-14.61-13-25.62-30.2-25.62H366.28a11.1,11.1,0,0,0-11.1,11.08V225.5h41.16c25.85,0,35.05-14.81,35.05-28.67,0-13.69-9.1-21.37-18.12-24.21m-21.09-6.41H376.07v-18a3.7,3.7,0,0,1,3.7-3.7h12c7.84,0,12.92,4.25,12.92,10.84s-4.8,10.84-12.51,10.84m-16.11,16.17h18.6c9,0,14.87,5.07,14.87,12.92s-5.56,12.5-14.87,12.5h-18.6Z"/><path class="cls-2" d="M306.61,12.13v6.64H323V12.39H313v-.26c0-.89.26-5.35,5.35-5.35H323V.4h-4.67C309.74.4,306.61,7.41,306.61,12.13Z"/><path class="cls-2" d="M35.84,75.87a12,12,0,1,0,12-12A12,12,0,0,0,35.84,75.87Z"/><path class="cls-2" d="M283,17.57a8.79,8.79,0,1,0-8.79-8.78A8.79,8.79,0,0,0,283,17.57Z"/><path class="cls-2" d="M262.32,17.57a8.79,8.79,0,1,0-8.78-8.78A8.78,8.78,0,0,0,262.32,17.57Z"/><path class="cls-2" d="M322.63,30.37a16,16,0,0,0-16,14.77V80.83a8.73,8.73,0,0,1-7.91,7H282.71V30.37a16,16,0,0,0-16,15V87.84H236.39V67.08c0-14.76-9.79-36.74-36.73-36.74s-36.74,22-36.74,36.74c0,2.13-.58,20.76-20.77,20.76H127.77V.14A16,16,0,0,0,111.8,16v87.8h30.35c13.71,0,22.95-5.7,28.75-13.22,5.8,7.52,15,13.22,28.76,13.22h108a16,16,0,0,0,15-16h0V30.35h0ZM220.42,87.84H199.66c-19.52,0-20.72-17.33-20.77-20.71s1.25-20.81,20.77-20.81,20.71,17.34,20.76,20.76Z"/><path class="cls-2" d="M361,0h-1a16,16,0,0,0-15,15.46v61.2h16Z"/><path class="cls-2" d="M379.35,15.64V75.48c-.07,3.72-1.42,12.36-12.29,12.36H345V88a16,16,0,0,0,13.78,15.81h8.29c20.74,0,28.25-16.9,28.25-28.26V0h-1A16,16,0,0,0,379.35,15.64Z"/><path class="cls-2" d="M430.23,0a16,16,0,0,0-15,14.86v89h16V0Z"/><path class="cls-2" d="M76.67,76.66c0,3.12-.86,30.35-30.35,30.35C17.1,107,16,79.73,16,76.66s.85-30.34,30.35-30.34H59.8V44.59A15.66,15.66,0,0,0,45,30.38C9.47,31.09,0,60.84,0,76.66,0,92.69,9.68,123,46.32,123s46.31-30.3,46.31-46.33V30.35h-16Z"/></g></g></svg>