<svg xmlns="http://www.w3.org/2000/svg" viewBox="0 0 693.33 147"><defs><style>.cls-1{fill:#fff;}</style></defs><title>KUWAITCREDTIBANK</title><g id="Layer_2" data-name="Layer 2"><g id="Layer_1-2" data-name="Layer 1"><path class="cls-1" d="M18.93,62.44a3.88,3.88,0,0,0,0,7.76,3.88,3.88,0,0,0,3.84-3.91,3.82,3.82,0,0,0-3.84-3.85"/><path class="cls-1" d="M29.66,62.44a3.88,3.88,0,1,0,0,7.76,3.82,3.82,0,0,0,3.77-3.91,3.76,3.76,0,0,0-3.77-3.85"/><path class="cls-1" d="M75.44,14.72a3.89,3.89,0,0,0,3.85-3.92,3.85,3.85,0,0,0-7.69,0,3.8,3.8,0,0,0,3.84,3.92"/><path class="cls-1" d="M86.18,14.72A3.83,3.83,0,0,0,90,10.8,3.76,3.76,0,0,0,86.18,7a3.88,3.88,0,1,0,0,7.76"/><path class="cls-1" d="M106.27,50.19h-21V21.39H78.63v28.8H61.86V36.48c0-9.94-4.06-15.88-16.17-15.88A71.57,71.57,0,0,0,32.42,22V50.19H26.25c-15.15,0-19.5-5.59-19.5-16.61A31.07,31.07,0,0,1,9.5,21.1L2.39,22.34A32.08,32.08,0,0,0,0,34.38c0,13.78,7.11,21.1,25.46,21.1H39v-29A38.55,38.55,0,0,1,45,25.89c7.32,0,10.3,3.19,10.3,11.46V55.48h57.6V21.39h-6.67Z"/><path class="cls-1" d="M97.86,62.44a3.88,3.88,0,0,0,0,7.76,3.88,3.88,0,0,0,3.84-3.91,3.82,3.82,0,0,0-3.84-3.85"/><path class="cls-1" d="M108.59,62.44a3.88,3.88,0,1,0,0,7.76,3.82,3.82,0,0,0,3.77-3.91,3.77,3.77,0,0,0-3.77-3.85"/><path class="cls-1" d="M216.31,50.19H200.57c-.44-16-6.89-23.65-17.84-28.14L202.45,9.94V3.19L175,20.45v4.93C187.66,29,193.75,36,194,50.19h-38.6V23.13A45.26,45.26,0,0,0,140.8,20.6c-12.41,0-18.28,8.41-18.28,18,0,10.3,5.08,16.9,19,16.9h7.33v1.74c0,8.34-5.95,11.31-13.85,11.31a61.87,61.87,0,0,1-11.61-1.37L123,72.74a69.92,69.92,0,0,0,11.32,1.09c15.59,0,21.1-8.49,21.1-17V55.48H223V4.35h-6.67Zm-67.46,0h-6.39c-9.35,0-13.19-4.07-13.19-12.33,0-7.18,4.06-12,10.8-12a22.51,22.51,0,0,1,8.78,1.67Z"/><rect class="cls-1" x="236.77" y="4.35" width="6.67" height="51.13"/><path class="cls-1" d="M302.77,52.22c0,11.09-4.93,14.72-11.82,14.72-5.73,0-12-3.19-12-15.59a52.87,52.87,0,0,1,2-14.44l-6.89,1.31A53.54,53.54,0,0,0,272.24,52c0,14.87,8.05,20.23,18.06,20.23,12.62,0,19.15-6.81,19.15-20.45V21.39h-6.68Z"/><path class="cls-1" d="M290.73,28.43a4,4,0,1,0-3.91-3.92,3.9,3.9,0,0,0,3.91,3.92"/><path class="cls-1" d="M427,14.72a3.83,3.83,0,0,0,3.77-3.92A3.76,3.76,0,0,0,427,7a3.88,3.88,0,1,0,0,7.76"/><path class="cls-1" d="M416.23,14.72a3.88,3.88,0,0,0,3.84-3.92,3.85,3.85,0,0,0-7.69,0,3.8,3.8,0,0,0,3.85,3.92"/><path class="cls-1" d="M443.94,7c0-1.81,1.38-3,4.06-3a30.45,30.45,0,0,1,3.48.29l.65-4.06A24.13,24.13,0,0,0,448.22,0C441.54,0,439,3.63,439,7.18a3.86,3.86,0,0,0,2,3.48,29.89,29.89,0,0,0-5-.36v4.13h17.55V10.3h-3.92c-4.13,0-5.65-1.38-5.65-3.27"/><path class="cls-1" d="M443.07,50.19h-17V21.39h-6.67v28.8H402.66V37.78c0-11.09-5.08-17.18-16-17.18C375.17,20.6,369,28.86,369,39.52c0,8.56-2.69,10.67-6.39,10.67H329.33V4.35h-6.68V55.48h39.68c4.65,0,8.05-2.17,9.65-6.16,2.25,3.91,6.74,6.16,15.08,6.16h62.68V21.39h-6.67Zm-46.94,0h-8.2c-8.77,0-12.25-3.63-12.25-11.32,0-8.12,4.06-13,10.51-13s9.94,3.63,9.94,13Z"/><polygon class="cls-1" points="477.52 43.66 465.92 3.91 459.24 4.86 470.77 43.66 477.52 43.66"/><polygon class="cls-1" points="484.77 50.19 462.36 50.19 462.36 55.48 491.52 55.48 491.52 4.35 484.77 4.35 484.77 50.19"/><rect class="cls-1" x="505.31" y="4.35" width="6.67" height="51.13"/><path class="cls-1" d="M576.68,21.76h-3.92c-4.13,0-5.66-1.38-5.66-3.27s1.38-3,4.06-3a30.89,30.89,0,0,1,3.49.29l.65-4.06a25.38,25.38,0,0,0-3.92-.29c-6.67,0-9.21,3.62-9.21,7.18a3.86,3.86,0,0,0,2,3.48,30,30,0,0,0-5-.36v4.13h17.55Z"/><path class="cls-1" d="M655,13.63a4,4,0,1,0-3.91-3.91A3.9,3.9,0,0,0,655,13.63"/><path class="cls-1" d="M675.91,21.39v28.8H658.36V21.39h-6.67v28.8H591.4V4.35h-6.67V50.19H567.32c-15.16,0-19.51-5.59-19.51-16.61a31.07,31.07,0,0,1,2.76-12.48l-7.11,1.24a31.81,31.81,0,0,0-2.39,12c0,13.78,7.1,21.1,25.45,21.1H682.59V21.39Z"/><path class="cls-1" d="M674.39,62.44a3.9,3.9,0,0,0-3.91,3.92,3.85,3.85,0,0,0,3.91,3.91,4,4,0,0,0,4-3.91,3.92,3.92,0,0,0-4-3.92"/><polygon class="cls-1" points="36.05 97.32 27.78 97.32 8.34 120.38 8.34 97.32 1.67 97.32 1.67 146.27 8.34 146.27 8.34 122.05 27.71 146.27 36.77 146.27 15.3 120.96 36.05 97.32"/><path class="cls-1" d="M74.78,128.07c0,9.86-4,13.42-12.54,13.42-9.87,0-12.11-5.44-12.11-12.19v-32H43.45v32.49c0,8.7,3,17.19,18.35,17.19,12.77,0,19.51-6.6,19.51-19.44V97.32H74.78Z"/><path class="cls-1" d="M147.17,97.32l-8.48,33.22c-.65,2.61-1.16,5.07-1.67,8H137c-.51-3-1.23-6.09-2-8.7l-9.36-32.49h-7.54L109,129.59a87,87,0,0,0-2,9.07H107a91.48,91.48,0,0,0-2-9.43L96.77,97.32H89.66l12.91,49h8l9.14-32.92a74,74,0,0,0,1.74-8.49h.07c.44,2.76,1.09,5.66,1.81,8.49l9.36,32.92h8.19l12.91-49Z"/><path class="cls-1" d="M171.27,97.32l-17.77,49h6.81l4.07-11.45h20.81l4.06,11.45h7.47l-17.91-49ZM166,129.52l6.6-18.49c.8-2.25,1.45-4.43,2-6.53h.15c.58,2.1,1.23,4.28,2.1,6.67l6.53,18.35Z"/><rect class="cls-1" x="203.55" y="97.32" width="6.67" height="48.95"/><polygon class="cls-1" points="217.69 102.9 231.76 102.9 231.76 146.27 238.44 146.27 238.44 102.9 252.58 102.9 252.58 97.32 217.69 97.32 217.69 102.9"/><path class="cls-1" d="M298.72,140.91c-11.39,0-16.61-7-16.61-19,0-10.74,4.78-19.3,15.95-19.3a34.31,34.31,0,0,1,10.88,1.89L310,98.41a41,41,0,0,0-11.24-1.52c-16.54,0-23.93,11.16-23.93,26.1,0,13.85,6.52,23.86,22.26,23.86a36.11,36.11,0,0,0,13.42-2.61l-1.09-5.8a26.2,26.2,0,0,1-10.73,2.47"/><path class="cls-1" d="M334.48,123.57c7.76-.58,14.36-5.43,14.36-13.78,0-9.35-7-12.76-16.61-12.76-5.37,0-8.92.07-12.26.29v49h6.68v-21.9h.87l16,21.9H352L338.68,128.8c-1.23-1.6-2.75-3.49-4.2-5.23m-7.83-4.28V102.61c1.3-.07,2.75-.14,4.42-.14,7.11,0,10.81,2.32,10.81,8.2,0,5.22-4.06,8.77-11.1,8.77-2,0-3.41-.07-4.13-.15"/><polygon class="cls-1" points="360.88 146.27 386.05 146.27 386.05 140.69 367.56 140.69 367.56 123.72 385.18 123.72 385.18 118.35 367.56 118.35 367.56 102.83 386.05 102.83 386.05 97.32 360.88 97.32 360.88 146.27"/><path class="cls-1" d="M411.88,97.1c-5.37,0-10.88.22-14.65.29v48.88c3.62,0,7.47.29,12.4.29,16,0,27.27-8.55,27.27-25.31s-9.36-24.15-25-24.15m-1.53,43.81a46.56,46.56,0,0,1-6.45-.44V102.76c1.81-.07,4.79-.22,7.32-.22,12.7,0,18.64,6.67,18.64,19.15,0,13.27-8.05,19.22-19.51,19.22"/><rect class="cls-1" x="446.41" y="97.32" width="6.67" height="48.95"/><polygon class="cls-1" points="460.56 102.9 474.62 102.9 474.62 146.27 481.3 146.27 481.3 102.9 495.44 102.9 495.44 97.32 460.56 97.32 460.56 102.9"/><path class="cls-1" d="M542.08,120.38v-.14a11.79,11.79,0,0,0,8.42-11.39c0-7.32-5.15-11.75-15.67-11.75-5.88,0-10.73.15-14.29.22v49c4.79.08,8.92.22,12.48.22,14.5,0,19-8.19,19-14.87a11,11,0,0,0-9.94-11.24m-14.86-17.84c1.88-.07,4.2-.14,6.52-.14,7.47,0,9.79,3.19,9.79,7.54,0,5.37-3.84,8.56-11.89,8.56-1.74,0-3,0-4.42-.08Zm6.23,38.58c-2.1,0-4.93-.21-6.23-.36V123.57c1.16-.07,3.77-.07,4.56-.07,8,0,13.2,2.32,13.2,8.49,0,5.15-3.55,9.13-11.53,9.13"/><path class="cls-1" d="M573.28,97.32l-17.77,49h6.82l4.06-11.45H587.2l4.06,11.45h7.48l-17.92-49Zm-5.22,32.2,6.6-18.49c.79-2.25,1.45-4.43,2-6.53h.14c.58,2.1,1.24,4.28,2.1,6.67l6.53,18.35Z"/><path class="cls-1" d="M638.05,109.79c0,8.49.29,22.2.51,28.29-1.6-3.27-3.48-6.75-5.37-9.94L614.41,97.32h-8.85v49H612V132.64c0-8.34-.23-22.27-.51-27.41a83.15,83.15,0,0,0,5.15,9.64l19,31.4h8.84v-49h-6.45Z"/><polygon class="cls-1" points="671.86 120.96 692.6 97.32 684.33 97.32 664.89 120.38 664.89 97.32 658.22 97.32 658.22 146.27 664.89 146.27 664.89 122.05 684.26 146.27 693.33 146.27 671.86 120.96"/></g></g></svg>