<svg xmlns="http://www.w3.org/2000/svg" viewBox="0 0 28.29 28.28"><defs><style>.cls-1{fill:#002554;}</style></defs><title>login</title><g id="Layer_2" data-name="Layer 2"><g id="Layer_1-2" data-name="Layer 1"><path class="cls-1" d="M.8,15a.87.87,0,0,1-.12-1.72,2.52,2.52,0,0,1,.48,0H17.88l-.28-.3-2.85-2.85A.88.88,0,0,1,14.57,9a.85.85,0,0,1,.94-.43,1,1,0,0,1,.48.26c1.7,1.73,3.4,3.48,5.1,5.22a1.23,1.23,0,0,0,.08.12L16,19.48a.88.88,0,1,1-1.25-1.24l3-3L18,15H1.19A2.54,2.54,0,0,1,.8,15Z"/><path class="cls-1" d="M28.29,26.4a1.75,1.75,0,0,1-1.88,1.88H10.71a1.76,1.76,0,0,1-1.87-1.86V18.55h1.78v6.68c0,.89.39,1.29,1.27,1.29H25.27a1.09,1.09,0,0,0,1.24-1.25q0-11.08,0-22.18c0-.93-.39-1.32-1.31-1.32H11.93c-.92,0-1.31.39-1.31,1.31V9.7H8.84V1.93A1.77,1.77,0,0,1,10.78,0H26.39a1.76,1.76,0,0,1,1.9,1.89Z"/></g></g></svg>