<svg xmlns="http://www.w3.org/2000/svg" viewBox="0 0 600 173.77"><defs><style>.cls-1{fill:#fff;}</style></defs><title>NewKuwait</title><g id="Layer_2" data-name="Layer 2"><g id="Layer_1-2" data-name="Layer 1"><polygon class="cls-1" points="209.67 111.62 201.54 103.64 193.51 111.01 201.46 135.48 209.67 111.62"/><polygon class="cls-1" points="177.97 76.72 172.3 68.26 143.88 72.18 170.32 83.65 177.97 76.72"/><polygon class="cls-1" points="190.92 110.33 187.68 100.37 178.4 101.69 170.38 129.19 190.92 110.33"/><polygon class="cls-1" points="179.45 90.07 170.75 86.29 152.1 103.18 176.64 99.67 179.45 90.07"/><path class="cls-1" d="M182.15,23.1a125.91,125.91,0,0,0-21.5,19.27l22.2,10.08Z"/><path class="cls-1" d="M134.21,132.48l-1.68-14.62,12.61-11.41-16.48,2.35-2.91-3.2c-2.9,8.74-5.54,18.05-8.1,28,5-.5,10.48-.89,16.56-1.1"/><polygon class="cls-1" points="199.89 48.67 184.44 24.61 185.13 53.53 194.19 57.83 199.89 48.67"/><path class="cls-1" d="M183.14,64.5,182.91,55s-23.86-10.88-24-10.72l14.47,21.6Z"/><path class="cls-1" d="M157.38,46a142.73,142.73,0,0,0-16.7,24.35l30.23-4.18Z"/><path class="cls-1" d="M219.33,17.43Q220.47,8.67,221.77,0a235.81,235.81,0,0,0-36.89,21.12l16.33,25.43Z"/><path class="cls-1" d="M166.89,133.09,176,102l-26.83,3.84L134.9,118.75l1.57,13.66c8.46-.22,18.08-.08,29.17.6"/><path class="cls-1" d="M208.21,57.46l7.44-4.14c.72-10.27,1.75-20.44,3-30.53L202.56,48.65Z"/><path class="cls-1" d="M211.45,113.37l-7.94,23.09c5.26.54,6.41.6,11.34,1-1.5-5.28-2.72-13.95-3.4-24.08"/><path class="cls-1" d="M169.28,133.25h.13c10.58.75,20.49,1.79,29.86,2.77l-7.58-23.35Z"/><path class="cls-1" d="M264.61,117.18l9.45-8.62c-1-6.89-1.94-13.86-2.69-20.92l-34.5-12q-2.7,7.09-5,14.54l13.7,19Z"/><path class="cls-1" d="M254.35,137.6l3.15-8L244.13,111,228,104.23a300.87,300.87,0,0,0-6.29,33.89c11.67.83,22.45,1,32.64-.52"/><path class="cls-1" d="M231.06,92.88q-1.32,4.5-2.52,9.14l13.07,5.49Z"/><path class="cls-1" d="M269.29,19.62a181.62,181.62,0,0,0-27.77,44.7L268.85,42.8q-.08-11.41.44-23.18"/><path class="cls-1" d="M265.07,119.81l-17-7.13L260,129.23l-3.11,8a75.23,75.23,0,0,0,20.93-6.81q-1.86-9.48-3.39-19.15Z"/><path class="cls-1" d="M237.67,73.53l33.45,11.65c-1.3-12.86-2.07-26-2.24-39.53l-29.21,23c-.68,1.62-1.36,3.24-2,4.88"/><path class="cls-1" d="M98.64,123c1.44-3.44,2.93-6.83,4.5-10.2l-15.43,3.72Z"/><path class="cls-1" d="M58.75,123.47,55.4,138.59c14.06,2.33,24.62.67,37.76-1.53q2.25-6.17,4.61-12l-13.2-7.84Z"/><path class="cls-1" d="M56.85,121.61l24.95-6-16-9.52L24.63,129.19c11.37,4.67,20.55,7.48,28.54,9Z"/><path class="cls-1" d="M104.36,110.16c2.82-5.88,5.91-11.74,9.38-17.79l-8-8.79L68,104.81l16.93,10Z"/><path class="cls-1" d="M126.46,72,107.79,82.45l7.14,7.87c3.43-5.85,7.22-11.9,11.53-18.36"/><path class="cls-1" d="M139.6,72.77l-.18-.08-.06.12a210.07,210.07,0,0,0-12.79,30.34l3,3.26,18.59-2.66,20.36-18.44Z"/><path class="cls-1" d="M169.16,133.36l.12-.11h-.09Z"/><path class="cls-1" d="M294,141.41c-22.69,14.31-49.53,12.85-81.6,8.79C179.32,146,154.6,144.77,109,172.36c42.21-12.2,63-9.17,103.56-1.26C258,180,283.39,165.85,294,141.41"/><path class="cls-1" d="M0,139.32c60,32.75,115.76.58,155.88,5.73C106.55,153.71,61,205.62,0,139.32"/><path class="cls-1" d="M331.13,49.89c.57,0,1.06-.55,1.49-1.68a6.77,6.77,0,0,0,.44-2.18c0-.71-.56-1.38-1.71-2A16.37,16.37,0,0,1,328,41.69l-.31-.31-.18.4c-1.56,3.47-1.76,4.2-1.76,4.46s.31.95,2.62,2.27,2.6,1.38,2.74,1.38"/><path class="cls-1" d="M335.2,47l3.06,1.67.15-.19A8,8,0,0,0,339.67,46a7.94,7.94,0,0,0,.48-2.07c0-.47-.58-1.15-4.79-3l-.12,0c-.27,0-.59.16-1.38,2.1a8,8,0,0,0-.73,2.08c0,.35.24.88,2.07,1.92"/><path class="cls-1" d="M342.18,56.45c-.32,0-.73.23-1.56,1.86-2.12,3.07-4,5.73-5.67,7.91-2.28-2-3.32-2.92-3.79-3.39.63-.08,1.06-.12,1.32-.14.66,0,.8-.32.8-.55s-.15-.57-1.85-1.53c-.92-.54-1.85-1.06-2.76-1.57-1.66-1.08-1.94-.92-2.08-.85l-.18.15v.17c0,1,0,2.32-.11,4a.54.54,0,0,0,.12.47.82.82,0,0,0,.63.26,23.78,23.78,0,0,0,5.42,6.5,18.64,18.64,0,0,0-2.26,4.36,23.34,23.34,0,0,0-1.47,6.94c0,2.45.92,3.8,2.74,4a1.23,1.23,0,0,0,.27,0c.95,0,2.28-.6,4.05-1.83a10.62,10.62,0,0,0,3.29-3,11.35,11.35,0,0,0,1.27-5.18,10.67,10.67,0,0,0-.51-3.26A12.46,12.46,0,0,0,337,68.07c2.85-3.91,4.53-6.36,5-7.27a7.06,7.06,0,0,0,.74-3.24c0-.28,0-1.11-.59-1.11m-3.84,19.38a.19.19,0,0,1,0,.12,14.67,14.67,0,0,1-2.79,2.23,7.44,7.44,0,0,1-3.53,1.4c-.86,0-1-.38-1-.76a9.58,9.58,0,0,1,1.19-3.6,21.68,21.68,0,0,1,2.23-3.72c3.39,3,3.91,4,3.91,4.33"/><path class="cls-1" d="M385.39,83.38h0a13.68,13.68,0,0,0,3.7-2.81,9.43,9.43,0,0,0,2.54-7.39c-.22-1.72-1.3-3.72-3.22-5.94a36.31,36.31,0,0,1-3.19-3.94,12,12,0,0,0,1.26.06c.79,0,.87-.46.87-.65,0-.38-.32-.83-1-1.41C384.66,60,383.19,59,382,58.18a.65.65,0,0,0-.67-.18c-.36.13-.48.61-.54,1-.19,1.51-.33,2.71-.42,3.61a.54.54,0,0,0,.14.44.94.94,0,0,0,.65.26,22.53,22.53,0,0,0,4.45,7.31,27.77,27.77,0,0,1,3.81,5s.06.49-2.7,2a13.82,13.82,0,0,1-6.07,1.82,5.37,5.37,0,0,1-3.89-2.35,17.26,17.26,0,0,1-3.15-7.83A85,85,0,0,0,371,57.75c-4.25-13-5.15-13-5.64-13a.67.67,0,0,0-.56.34l-.7,4.35,0,.07c1.1,3.58,2.21,6.9,3.3,9.88.57,1.72.95,2.79,1.2,3.51a10.75,10.75,0,0,1,.48,1.53l.62,3.18a25.13,25.13,0,0,1-5.8,7.11c-.82.73-2.14,1.75-3.94,3a33.1,33.1,0,0,1-7.33,3.92,16.45,16.45,0,0,1-4.18,1.21c-2.72,0-4.1-1.16-4.23-3.56-.17-2.61,1.27-6.85,4.25-12.57a4.53,4.53,0,0,0,.63-1.94c0-.46-.26-.62-.51-.62s-.76.2-1.68,1.7c-3.2,5.33-4.82,10.17-4.82,14.36,0,5.49,1.91,8.27,5.68,8.27,3.45,0,7.7-1.79,12.61-5.34,4.19-3,7.19-5.9,8.93-8.51a11.5,11.5,0,0,0,1.29-2.86c1.28,5.17,2.58,8.45,4,10a8.57,8.57,0,0,0,10.8,1.53"/><path class="cls-1" d="M389.2,88.11l-.13,0c-.36,0-.7.36-1.38,2.21-.22.59-.37,1-.47,1.33a.79.79,0,0,0-.09-.26,3.21,3.21,0,0,0-1.43-1.17,9.91,9.91,0,0,1-2.48-1.85l-.31-.31-.17.41C381.21,91.89,381,92.67,381,93s.23.91,2.05,2,2,1.14,2.18,1.14c.62,0,1.11-.69,1.55-2.19.13-.44.23-.81.29-1.11.24.41,1.11,1.2,4.43,3.05l.21.12.16-.19a7.55,7.55,0,0,0,1.26-2.45,7.23,7.23,0,0,0,.51-2.08c0-.48-.52-1.22-4.45-3.16"/><path class="cls-1" d="M472.05,67.54l-.11-.14-.15,0a107.48,107.48,0,0,1-15-3.17c-6-1.6-9.56-2.34-11-2.27a8.29,8.29,0,0,0-6.08,3,10,10,0,0,0-2.42,6.54c0,1,.65,3,2,6.09-1.27.12-2.43.18-3.45.2a5.32,5.32,0,0,1-4-2.35,17.31,17.31,0,0,1-3.16-7.83c-.26-1.41-.48-2.62-.67-3.71a57.09,57.09,0,0,0-1.78-8c-4.24-13-5.15-13-5.63-13a.67.67,0,0,0-.57.35l-.69,4.35,0,.06c1.1,3.58,2.21,6.9,3.29,9.88a33.79,33.79,0,0,1,1.48,5l.64,3.32a25.19,25.19,0,0,1-5.8,7.13c-.82.72-2.14,1.74-3.94,3A33.08,33.08,0,0,1,407.74,80a16.45,16.45,0,0,1-4.18,1.21c-2.72,0-4.1-1.16-4.23-3.56-.16-2.61,1.27-6.84,4.25-12.57a4.58,4.58,0,0,0,.64-1.94c0-.45-.28-.61-.52-.61s-.75.2-1.67,1.69c-3.2,5.34-4.83,10.17-4.83,14.37,0,5.48,1.92,8.27,5.69,8.27,3.45,0,7.69-1.8,12.6-5.35,4.19-3,7.2-5.9,8.93-8.51a11.15,11.15,0,0,0,1.29-2.86c1.17,4.64,2.56,8.16,4,10,3.55,4.61,8.6,3.43,11,2.86l.54-.12a5.9,5.9,0,0,1,.18,1.34,1.63,1.63,0,0,0,.2,1.28.69.69,0,0,0,.52.22c.44,0,.69-.53.77-.7a5.42,5.42,0,0,0,.57-2.53,70.33,70.33,0,0,0,16.08-6.07c5.43-2.69,9-4,10.64-3.92.4,0,.76-.35,1.38-2.44s.55-2.36.46-2.51M460.62,71a67.77,67.77,0,0,1-18.11,6.07,63.6,63.6,0,0,0-2.82-6,.6.6,0,0,1,0-.21,3.2,3.2,0,0,1,1.15-2,3.72,3.72,0,0,1,2.1-1.26,20.55,20.55,0,0,1,2.08-.11,30.08,30.08,0,0,1,8.72,1.61c3.14,1,5.45,1.62,6.91,1.91"/><path class="cls-1" d="M457.62,89.07c-1.41-.69-2.48-1.19-3.14-1.45l-.6-.39-.13,0c-.37-.06-.62.25-.72.86-.37,1.5-.69,2.65-.95,3.43l0,.06v.07a2.66,2.66,0,0,0,.24,1c.08.14.29.36,1.87,1.17a6.85,6.85,0,0,0,2.55,1c.53,0,.91-.63,1.22-2.06.11-.77.24-1.54.38-2.3.06-.24.19-.87-.23-1.08a3.43,3.43,0,0,0-.48-.19"/><path class="cls-1" d="M499.69,65.57h0C502,67,502.25,67,502.39,67c.6,0,1.09-.55,1.5-1.68a7.38,7.38,0,0,0,.44-2.21c0-.71-.56-1.37-1.72-2a15.52,15.52,0,0,1-3.29-2.34l-.31-.33-.19.42c-1.75,4.07-1.75,4.32-1.75,4.45,0,.38.31,1,2.62,2.34"/><path class="cls-1" d="M506.49,64.48h0c.92.52,1.84,1,2.77,1.52l.19.11.16-.16A6.37,6.37,0,0,0,511,63.48a6.69,6.69,0,0,0,.52-2c0-.51-.59-1.22-4.86-3l-.11,0c-.34,0-.66.33-1.35,2a8.51,8.51,0,0,0-.76,2.14c0,.35.25.85,2.09,1.92"/><path class="cls-1" d="M542.35,85.61l-.14,0c-.35,0-.69.36-1.38,2.21-.21.59-.36,1-.46,1.33a.65.65,0,0,0-.09-.26,3.19,3.19,0,0,0-1.44-1.17,10.06,10.06,0,0,1-2.47-1.85l-.31-.31-.18.4c-1.53,3.46-1.72,4.24-1.72,4.53s.23.91,2.05,2c1.67,1,2,1.14,2.18,1.14.61,0,1.11-.7,1.55-2.19.13-.45.23-.82.29-1.12.27.48,1.25,1.29,4.43,3.06l.21.12.16-.19a7.61,7.61,0,0,0,1.26-2.46,7.11,7.11,0,0,0,.51-2.07c0-.48-.52-1.23-4.45-3.16"/><path class="cls-1" d="M540.35,81.69a13.37,13.37,0,0,0,3.7-2.82,9.43,9.43,0,0,0,2.55-7.39c-.22-1.72-1.3-3.72-3.23-5.94a39.27,39.27,0,0,1-3.19-3.93c.38,0,.8.06,1.27.06.78,0,.87-.46.87-.66,0-.38-.32-.82-1-1.4-1.69-1.26-3.16-2.32-4.34-3.13a.65.65,0,0,0-.66-.18c-.37.13-.48.61-.54,1-.2,1.51-.33,2.71-.43,3.61a.64.64,0,0,0,.14.45.94.94,0,0,0,.66.25,22.43,22.43,0,0,0,4.45,7.31,27.09,27.09,0,0,1,3.8,5s.06.48-2.69,2A14.17,14.17,0,0,1,536,77.75a6.9,6.9,0,0,1-3.38-1.26c-1.37-.94-2-1.91-1.86-2.89a31,31,0,0,0,.25-3.1.89.89,0,0,0-.28-.72,1,1,0,0,0-.88-.16L518,74.2c-7.55,2.63-14.25,4-19.91,4-5,0-9-.8-11.78-2.36a7.69,7.69,0,0,1-4.35-6.94,10.05,10.05,0,0,1,1.35-5,.69.69,0,0,0-.16-1,.58.58,0,0,0-.47-.14.72.72,0,0,0-.48.34,14.8,14.8,0,0,0-1.82,4.15,16.09,16.09,0,0,0-.79,4.52,10.28,10.28,0,0,0,5,9.21c3,1.91,7.26,2.87,12.62,2.87a56.43,56.43,0,0,0,17-3.12,92.74,92.74,0,0,0,14.4-6q-.06.66-.06,1.29c0,2.87.95,5,2.82,6.18a6,6,0,0,0,3.13,1,10.68,10.68,0,0,0,5.92-1.48"/><path class="cls-1" d="M597.52,22.39c-6.25-1.51-27.7,10-35.5,15.17-.42.32-.83.59-1.22.84-1.93,1.28-3.23,2.15-3.44,5.67h0c-.27.09-.44.39-.57,1.07a26,26,0,0,0,.18,3.49c0,.23.11.59.83.65,1.39,2.46,5.63,6.4,12.92,12,8.82,6.78,10.95,8.95,11.2,9.56,0,.12-.23.86-5,3.77-3.92,2.38-7.29,3.59-10,3.59h0l-1.42,0a13.47,13.47,0,0,0-3.23-5.09c-1.58-1.63-2.86-2.42-3.89-2.42-1.43,0-2.8.93-4.08,2.76a10.06,10.06,0,0,0-1.93,5.76,3.83,3.83,0,0,0,1,2.37,4.64,4.64,0,0,0,1.81,1.47c1.14.48,3.87.72,8.33.73a5.85,5.85,0,0,1,.37,1.18c-.08.26-1.06,1.67-10.65,8.26-4.13,2.84-11.27,6.26-15.07,8.16-1.78.88-2.38,1.3-2.58,1.4-.49.33.07.48.9.15,7.44-3.11,10.94-3.67,12.56-3.6h.12c3.83,0,13.06-8.33,13.47-8.71,1.68-1.85,2.58-2.93,3.07-5.47.12-.63.21-1.09.26-1.39.51,0,1.72-.09,1.72-.09v0c2.42-.21,5.34-1.39,8.71-3.57,3.06-2,4.89-3.45,5.58-4.53a12.08,12.08,0,0,0,1.24-9.24c-.67-2.09-4.54-5.2-10.56-9.53S564,50.41,563,49.45l.94.13a1.52,1.52,0,0,0,1.11-.23.5.5,0,0,0,.16-.36c0-.31-.27-.68-1.59-1.43-.74-.36-1.46-.69-2.16-1A18.43,18.43,0,0,1,558.84,45a.54.54,0,0,1,.06-.11c2-3.47,31-16.3,34.7-17.35,2-.67,3.43-.76,3.94-.26.28.28.3.79.06,1.52-.38,1.19-5,8.74-7.6,12.85-.07.12-.47.69-.3.87s.66-.3.73-.4C591.65,40.39,600,28.5,600,25.89c.08-2.13-.74-3.28-2.47-3.5M556,77.68a1,1,0,0,1,.38-.82,1.69,1.69,0,0,1,1.18-.31,2.07,2.07,0,0,1,1.68,1l.42.6a12.17,12.17,0,0,1-3.66-.47"/><path class="cls-1" d="M326.55,139.07V106.32H333a201.87,201.87,0,0,0,14.34,23.4,37.51,37.51,0,0,1-.19-4.08V106.32h6.21v32.75h-6.54a172.4,172.4,0,0,1-14.28-21.52c.14,1.82.18,3.69.18,5.57v15.95Z"/><polygon class="cls-1" points="378.76 139.07 358.27 139.07 358.27 106.31 378.76 106.31 378.76 112.03 364.99 112.03 364.99 119.61 376.74 119.61 376.74 125.31 364.99 125.31 364.99 133.36 378.76 133.36 378.76 139.07"/><path class="cls-1" d="M419.7,106.31h6.86c-1.79,10.91-4.89,23.78-8.89,32.76H410.3a140.51,140.51,0,0,1-6.11-20.4,141.49,141.49,0,0,1-6.16,20.4h-7.38c-3.76-9-7.1-21.85-8.84-32.76h6.82c1.46,9.88,4.09,21,6,26.45a137.7,137.7,0,0,0,6.53-26.45h6a137.6,137.6,0,0,0,6.54,26.45,169.69,169.69,0,0,0,6-26.45"/><path class="cls-1" d="M440.33,126.07a42.22,42.22,0,0,1-3.67,2.14v10.86h-6.72V106.31h6.72v15.22c6.25-3.84,9.92-8.71,11.33-15.22h6.72a29.39,29.39,0,0,1-9.4,16.06l11.32,16.7h-7.71Z"/><path class="cls-1" d="M458,106.31h6.72v19.28c0,5.34,2.07,8.15,6.35,8.15s6.3-2.81,6.3-8.15V106.31H484v19.76c0,8.74-4.57,13.57-13,13.57S458,134.81,458,126.07Z"/><path class="cls-1" d="M525.06,106.31h6.86c-1.78,10.91-4.89,23.78-8.88,32.76h-7.38a141.77,141.77,0,0,1-6.11-20.4,141.49,141.49,0,0,1-6.16,20.4H496c-3.77-9-7.1-21.85-8.84-32.76H494c1.46,9.88,4.09,21,6,26.45a137.7,137.7,0,0,0,6.53-26.45h6a137.7,137.7,0,0,0,6.53,26.45,169.69,169.69,0,0,0,6-26.45"/><path class="cls-1" d="M550,131.87H537.85c-.71,2.39-1.37,4.82-2,7.21H529c3-11,7.24-23.92,11.42-32.76h7c4.18,8.84,8.46,21.76,11.47,32.76h-6.91c-.66-2.39-1.32-4.82-2-7.21m-10.48-5.71h8.79a113.91,113.91,0,0,0-4.38-12.73,115,115,0,0,0-4.41,12.73"/><rect class="cls-1" x="561.99" y="106.31" width="6.73" height="32.76"/><polygon class="cls-1" points="587.66 112.03 587.66 139.07 580.93 139.07 580.93 112.03 572.19 112.03 572.19 106.32 596.4 106.32 596.4 112.03 587.66 112.03"/></g></g></svg>