<svg xmlns="http://www.w3.org/2000/svg" 
    xmlns:xlink="http://www.w3.org/1999/xlink" viewBox="0 0 283.46 283.46">
    <defs>
        <style>

        *:hover .slide-top {
                -webkit-animation: slide-top 0.8s cubic-bezier(0.250, 0.460, 0.450, 0.940) infinite alternate both;
                animation: slide-top 0.8s cubic-bezier(0.250, 0.460, 0.450, 0.940) infinite alternate both;
            }
            @-webkit-keyframes slide-top {
                0% {
                    -webkit-transform: translateY(0);
                    transform: translateY(0);
                }

                100% {
                    -webkit-transform: translateY(5px);
                    transform: translateY(5px);
                }
            }

            @keyframes slide-top {
                0% {
                    -webkit-transform: translateY(0);
                    transform: translateY(0);
                }

                100% {
                    -webkit-transform: translateY(5px);
                    transform: translateY(5px);
                }
            }
            .circle {
                opacity: 0;
                -webkit-transform: scale(0.5);
                transform: scale(0.5);
                transform-origin: 50% 50%;
            }

            *:hover .scale-down-center {
                -webkit-animation: scale-down-center 0.5s cubic-bezier(0.250, 0.460, 0.450, 0.940) alternate both;
                animation: scale-down-center 0.5s cubic-bezier(0.250, 0.460, 0.450, 0.940) alternate both;
            }

            @-webkit-keyframes scale-down-center {
                100% {
                    opacity: 1;
                    -webkit-transform: scale(1);
                    transform: scale(1);
                    transform-origin: 50% 100%;
                }

                0% {
                    opacity: 0;
                    -webkit-transform: scale(0.5);
                    transform: scale(0.5);
                    transform-origin: 50% 100%;
                }
            }

            @keyframes scale-down-center {
                100% {
                    opacity: 1;
                    -webkit-transform: scale(1);
                    transform: scale(1);
                    transform-origin: 50% 100%;
                }

                0% {
                    opacity: 0;
                    -webkit-transform: scale(0.5);
                    transform: scale(0.5);
                    transform-origin: 50% 100%;
                }
            }



            .cls-1 {
                fill: #002554;
            }

            .cls-2 {
                isolation: isolate;
            }

            .cls-3,
            .cls-64 {
                fill: #fff;
            }

            .cls-4,
            .cls-69 {
                opacity: 0.1;
            }

            .cls-5 {
                fill: #6cc9cc;
            }

            .cls-6 {
                fill: #6e7798;
            }

            .cls-7 {
                fill: #43527a;
            }

            .cls-8 {
                fill: #11102b;
            }

            .cls-14,
            .cls-70,
            .cls-8 {
                opacity: 0.2;
            }

            .cls-16,
            .cls-9 {
                fill: #c0b8c7;
            }

            .cls-10,
            .cls-14,
            .cls-15 {
                fill: #dfdae0;
            }

            .cls-11 {
                fill: #2d406b;
            }

            .cls-12 {
                fill: url(#linear-gradient);
            }

            .cls-13 {
                fill: url(#linear-gradient-2);
            }

            .cls-14,
            .cls-15,
            .cls-58 {
                mix-blend-mode: multiply;
            }

            .cls-16 {
                opacity: 0.4;
            }

            .cls-17 {
                clip-path: url(#clip-path);
            }

            .cls-18 {
                fill: #ac842e;
            }

            .cls-19,
            .cls-63 {
                fill: #697395;
            }

            .cls-20 {
                fill: #7e86a4;
                opacity: 0.65;
            }

            .cls-21 {
                fill: url(#linear-gradient-3);
            }

            .cls-22,
            .cls-64,
            .cls-70 {
                mix-blend-mode: screen;
            }

            .cls-23 {
                opacity: 0;
            }

            .cls-24 {
                fill: #07080c;
                opacity: 0.06;
            }

            .cls-25 {
                fill: #0e1118;
                opacity: 0.13;
            }

            .cls-26 {
                fill: #151924;
                opacity: 0.19;
            }

            .cls-27 {
                fill: #1c2131;
                opacity: 0.25;
            }

            .cls-28 {
                fill: #232a3d;
                opacity: 0.31;
            }

            .cls-29 {
                fill: #2a3249;
                opacity: 0.38;
            }

            .cls-30 {
                fill: #313a55;
                opacity: 0.44;
            }

            .cls-31 {
                fill: #384361;
                opacity: 0.5;
            }

            .cls-32 {
                fill: #3e4b6d;
                opacity: 0.56;
            }

            .cls-33 {
                fill: #455379;
                opacity: 0.63;
            }

            .cls-34 {
                fill: #4c5b85;
                opacity: 0.69;
            }

            .cls-35 {
                fill: #536492;
                opacity: 0.75;
            }

            .cls-36 {
                fill: #5a6c9e;
                opacity: 0.81;
            }

            .cls-37 {
                fill: #6174aa;
                opacity: 0.88;
            }

            .cls-38 {
                fill: #687db6;
                opacity: 0.94;
            }

            .cls-39 {
                fill: #6f85c2;
            }

            .cls-40 {
                fill: #758ac5;
            }

            .cls-41 {
                fill: #7a8fc7;
            }

            .cls-42 {
                fill: #8094ca;
            }

            .cls-43 {
                fill: #8699cd;
            }

            .cls-44 {
                fill: #8c9ecf;
            }

            .cls-45 {
                fill: #92a3d2;
            }

            .cls-46 {
                fill: #97a8d4;
            }

            .cls-47 {
                fill: #9dadd7;
            }

            .cls-48 {
                fill: #a3b2da;
            }

            .cls-49 {
                fill: #a9b7dc;
            }

            .cls-50 {
                fill: #aebcdf;
            }

            .cls-51 {
                fill: #b4c1e2;
            }

            .cls-52 {
                fill: #bac6e4;
            }

            .cls-53 {
                fill: #c0cbe7;
            }

            .cls-54 {
                fill: #c5d0e9;
            }

            .cls-55 {
                fill: #cbd5ec;
            }

            .cls-56 {
                fill: #213764;
            }

            .cls-57 {
                fill: #7a87c2;
            }

            .cls-58,
            .cls-72 {
                fill: #b1b5c8;
            }

            .cls-59 {
                fill: #a1a6bc;
            }

            .cls-60 {
                fill: #606b8e;
            }

            .cls-61 {
                fill: #1a3360;
            }

            .cls-62 {
                fill: #4b5ea9;
            }

            .cls-63 {
                opacity: 0.74;
            }

            .cls-65 {
                fill: #cdc8d2;
            }

            .cls-66 {
                fill: url(#_ÂÁ_Ï_ÌÌ_È_ËÂÌÚ_815);
            }

            .cls-67 {
                fill: #f5f3f6;
            }

            .cls-68 {
                fill: #cac5ce;
            }

            .cls-69,
            .cls-70 {
                fill: #cfd4d4;
            }

            .cls-71 {
                fill: #7b94cb;
                opacity: 0.57;
            }

            .cls-72 {
                opacity: 0.48;
            }

        </style>
        <linearGradient id="linear-gradient" x1="213.58" y1="247.27" x2="75.83" y2="154.61" gradientUnits="userSpaceOnUse">
            <stop offset="0" stop-color="#d4d7e1" />
            <stop offset="1" stop-color="#2b3e6a" />
        </linearGradient>
        <linearGradient id="linear-gradient-2" x1="207.13" y1="245.08" x2="12.2" y2="103.95" xlink:href="#linear-gradient" />
        <clipPath id="clip-path">
            <path class="cls-1" d="M181.49,232.91l-5.34,2.38c-.62.28-1.12.11-1.12-.37a1.82,1.82,0,0,1,1.13-1.37l5.34-2.38c.62-.28,1.12-.11,1.12.37A1.81,1.81,0,0,1,181.49,232.91Z" />
        </clipPath>
        <linearGradient id="linear-gradient-3" x1="2961.12" y1="510.58" x2="2972.57" y2="530.41" gradientTransform="matrix(-1, 0, 0, 1, 3078.15, -421.8)" xlink:href="#linear-gradient" />
        <linearGradient id="_ÂÁ_Ï_ÌÌ_È_ËÂÌÚ_815" x1="-254.04" y1="-5180.88" x2="-244.82" y2="-5180.88" gradientTransform="matrix(-0.5, -0.87, 0.87, -0.5, 4399.17, -2710.1)" gradientUnits="userSpaceOnUse">
            <stop offset="0" stop-color="#c0b8c7" />
            <stop offset="1" stop-color="#f5f3f6" />
        </linearGradient>
    </defs>
    <title>6</title>
    <g class="cls-2">
        <g id="Layer_2" data-name="Layer 2">
            <g id="Layer_1-2" data-name="Layer 1">
                <g class="circle scale-down-center">
                    <path class="cls-3" d="M141.73,253.32c-23.4,0-46.8-5.33-64.62-16C59.79,227,50.24,213.13,50.24,198.42s9.55-28.52,26.87-38.89c35.63-21.33,93.61-21.33,129.24,0,17.33,10.38,26.87,24.19,26.87,38.9s-9.54,28.52-26.87,38.89h0C188.54,248,165.13,253.32,141.73,253.32Zm0-109.09c-23.28,0-46.56,5.3-64.28,15.91C60.35,170.38,50.93,184,50.93,198.42s9.42,28,26.52,38.29c35.45,21.22,93.12,21.22,128.56,0h0c17.11-10.24,26.53-23.84,26.53-38.28s-9.42-28-26.53-38.28C188.29,149.53,165,144.23,141.73,144.23Z" />
                    <path class="cls-3" d="M141.74,283.46c-36.26,0-72.51-8.26-100.12-24.78C14.78,242.61,0,221.21,0,198.42s14.78-44.18,41.62-60.25c55.2-33,145-33,200.22,0,26.84,16.07,41.62,37.47,41.62,60.26s-14.78,44.18-41.62,60.25h0C214.25,275.2,178,283.46,141.74,283.46Zm0-169c-36.07,0-72.13,8.21-99.58,24.65C15.65,155,1.06,176.05,1.06,198.42s14.59,43.44,41.09,59.31c54.91,32.87,144.26,32.87,199.17,0h0c26.5-15.87,41.09-36.93,41.09-59.3s-14.6-43.44-41.1-59.31C213.86,122.68,177.79,114.47,141.73,114.47Z" />
                </g>
                <g class="slide-top">
                    <polygon class="cls-5" points="214.23 244.87 201.39 239.13 201.39 250.61 214.23 256.35 227.07 250.61 227.07 239.13 214.23 244.87" />
                    <polygon class="cls-6" points="214.23 256.35 201.39 250.61 201.39 239.13 214.23 244.87 214.23 256.35" />
                    <polygon class="cls-7" points="227.07 250.61 214.23 256.35 214.23 244.87 227.07 239.13 227.07 250.61" />
                    <polygon class="cls-6" points="214.23 244.87 201.39 239.13 214.23 233.4 227.07 239.13 214.23 244.87" />
                    <polygon class="cls-3" points="214.23 244.87 201.39 239.13 201.39 239.63 214.23 245.37 227.07 239.63 227.07 239.13 214.23 244.87" />
                </g>
                <g class="slide-top">
                    <polygon class="cls-5" points="25.71 244 12.87 238.27 12.87 249.74 25.71 255.48 38.55 249.74 38.55 238.27 25.71 244" />
                    <polygon class="cls-6" points="25.71 255.48 12.87 249.74 12.87 238.27 25.71 244 25.71 255.48" />
                    <polygon class="cls-7" points="38.55 249.74 25.71 255.48 25.71 244 38.55 238.27 38.55 249.74" />
                    <polygon class="cls-6" points="25.71 244 12.87 238.27 25.71 232.53 38.55 238.27 25.71 244" />
                    <polygon class="cls-3" points="25.71 244 12.87 238.27 12.87 238.76 25.71 244.5 38.55 238.76 38.55 238.27 25.71 244" />
                </g>
                <g class="cls-2">
                    <path class="cls-9" d="M145,43.55a3.17,3.17,0,0,1,1.74.25l132.84,59.35-1,.15L145.8,44a3,3,0,0,0-1.74-.25Z" />
                    <path class="cls-9" d="M251.49,199.3l29.16-91.8,1-.15-29.16,91.79a2.6,2.6,0,0,1-2.12,1.83l-1,.16A2.64,2.64,0,0,0,251.49,199.3Z" />
                    <path class="cls-10" d="M278.63,103.3l1-.15a3.57,3.57,0,0,1,2,4.2l-1,.15A3.58,3.58,0,0,0,278.63,103.3Z" />
                    <path class="cls-1" d="M112.78,137.33l29.16-91.79A2.73,2.73,0,0,1,145.8,44L278.63,103.3a3.58,3.58,0,0,1,2,4.2l-29.16,91.8a2.74,2.74,0,0,1-3.86,1.58L114.8,141.53A3.57,3.57,0,0,1,112.78,137.33Z" />
                    <polygon class="cls-11" points="118.5 130.3 145.07 46.66 277.71 105.92 251.1 189.54 118.5 130.3" />
                </g>
                <g class="cls-2">
                    <path class="cls-12" d="M249,199.65v2.85c0,.48-.41,1-1.22,1.32L154.48,245.5a8.25,8.25,0,0,1-5.87,0l-132-59.35c-.8-.36-1.2-.83-1.21-1.3V182Z" />
                    <path class="cls-13" d="M16.66,180.67,109.94,139a8.19,8.19,0,0,1,5.85,0l132,59.35c1.61.72,1.61,1.9,0,2.62l-93.28,41.67a8.14,8.14,0,0,1-5.87,0l-132-59.34C15,182.58,15,181.4,16.66,180.67Z" />
                </g>
                <path class="cls-9" d="M124.07,152.24l-5.19,2.32a3,3,0,0,1-2.17,0l-6.18-2.76c-.35-.15-.47-.36-.42-.56a.49.49,0,0,1,0-.17.43.43,0,0,1,0-.16c0-.2.07-.41.42-.57l5.19-2.32a3,3,0,0,1,2.18,0l6.17,2.76c.35.16.47.37.42.57a.43.43,0,0,1,0,.16.49.49,0,0,1,0,.17C124.54,151.88,124.42,152.09,124.07,152.24Zm-9.55-5a.43.43,0,0,0,0-.16.49.49,0,0,0,0-.17c0-.2-.07-.41-.42-.56l-6.18-2.76a3,3,0,0,0-2.17,0l-5.19,2.32c-.35.15-.47.36-.42.56a.49.49,0,0,0,0,.17.43.43,0,0,0,0,.16c0,.2.07.41.42.57l6.17,2.76a3,3,0,0,0,2.18,0l5.19-2.32C114.45,147.63,114.57,147.42,114.52,147.22Zm19.94,8.91a.43.43,0,0,0,0-.16.49.49,0,0,0,0-.17c0-.2-.07-.41-.42-.56l-6.17-2.76a3,3,0,0,0-2.18,0l-5.19,2.32c-.35.15-.47.36-.41.56a.25.25,0,0,0,0,.17.22.22,0,0,0,0,.16c-.06.2.06.41.41.57l6.18,2.76a3,3,0,0,0,2.17,0L134,156.7C134.39,156.54,134.51,156.33,134.46,156.13Zm75,49.66a.43.43,0,0,0,0-.16.43.43,0,0,0,0-.16c0-.2-.07-.41-.42-.57l-6.17-2.76a3,3,0,0,0-2.18,0l-5.19,2.32c-.35.16-.47.37-.42.57a.43.43,0,0,0,0,.16.49.49,0,0,0,0,.17c-.05.2.07.41.42.56l6.18,2.76a3,3,0,0,0,2.17,0l5.19-2.32C209.42,206.21,209.54,206,209.49,205.79Zm-21.77-25.91a.22.22,0,0,0,0-.16.25.25,0,0,0,0-.17c.06-.2-.07-.41-.41-.56l-6.18-2.76a3,3,0,0,0-2.17,0l-5.2,2.32c-.35.15-.47.36-.41.56a.25.25,0,0,0,0,.17.22.22,0,0,0,0,.16c-.06.2.06.41.41.57l6.18,2.76a3.12,3.12,0,0,0,2.17,0l5.2-2.32C187.65,180.29,187.78,180.08,187.72,179.88ZM167.78,171a.43.43,0,0,0,0-.16.49.49,0,0,0,0-.17c.05-.2-.07-.41-.42-.57l-6.17-2.75a3,3,0,0,0-2.18,0l-5.19,2.32c-.35.15-.47.36-.42.56a.49.49,0,0,0,0,.17.43.43,0,0,0,0,.16c-.05.2.07.41.42.57l6.17,2.76a3.14,3.14,0,0,0,2.18,0l5.19-2.32C167.71,171.38,167.83,171.17,167.78,171Zm-19.95-8.91a.22.22,0,0,0,0-.16.25.25,0,0,0,0-.17c.06-.2-.06-.41-.41-.57L138,157a3,3,0,0,0-2.18,0l-5.19,2.32c-.35.15-.47.36-.42.57a.43.43,0,0,0,0,.16.43.43,0,0,0,0,.16c-.05.21.07.42.42.57l9.39,4.2a3.12,3.12,0,0,0,2.17,0l5.2-2.32C147.77,162.47,147.89,162.26,147.83,162.06Zm10,4.45a.22.22,0,0,0,0-.16.22.22,0,0,0,0-.16c.06-.21-.06-.41-.41-.57l-6.18-2.76a3,3,0,0,0-2.17,0l-5.19,2.32c-.35.16-.47.37-.42.57a.43.43,0,0,0,0,.16.43.43,0,0,0,0,.16c-.05.21.07.42.42.57L150,169.4a3,3,0,0,0,2.18,0l5.19-2.32C157.74,166.93,157.86,166.72,157.8,166.51Zm19.95,8.91a.43.43,0,0,0,0-.16.43.43,0,0,0,0-.16c.05-.21-.07-.41-.42-.57l-6.17-2.76a3,3,0,0,0-2.18,0l-5.19,2.32c-.35.16-.47.37-.41.57a.22.22,0,0,0,0,.16.22.22,0,0,0,0,.16c-.06.21.06.42.41.57l6.18,2.76a3,3,0,0,0,2.17,0l5.19-2.32C177.68,175.84,177.8,175.63,177.75,175.42Zm-42.42-10.77a.22.22,0,0,0,0-.16.22.22,0,0,0,0-.16c.06-.21-.07-.42-.41-.57L128.74,161a3,3,0,0,0-2.17,0l-5.2,2.32c-.35.15-.47.36-.41.57a.22.22,0,0,0,0,.16.22.22,0,0,0,0,.16c-.06.2.06.41.41.57l6.18,2.76a3,3,0,0,0,2.17,0l5.2-2.32C135.26,165.06,135.39,164.85,135.33,164.65Zm79.78,35.64a.43.43,0,0,0,0-.16.43.43,0,0,0,0-.16c0-.21-.07-.42-.42-.57l-6.18-2.76a3,3,0,0,0-2.17,0L201.15,199c-.35.15-.47.36-.42.57a.43.43,0,0,0,0,.16.43.43,0,0,0,0,.16c0,.21.07.41.42.57l6.17,2.76a3,3,0,0,0,2.18,0l5.19-2.32C215,200.7,215.16,200.49,215.11,200.29ZM145.3,169.11a.25.25,0,0,0,0-.17.22.22,0,0,0,0-.16c.06-.2-.06-.41-.41-.57l-6.18-2.76a3.12,3.12,0,0,0-2.17,0l-5.2,2.32c-.34.16-.47.37-.41.57a.22.22,0,0,0,0,.16.25.25,0,0,0,0,.17c-.06.2.07.41.41.56l6.18,2.76a3,3,0,0,0,2.17,0l5.2-2.32C145.24,169.52,145.36,169.31,145.3,169.11Zm10,4.45a.22.22,0,0,0,0-.16.22.22,0,0,0,0-.16c.06-.21-.06-.42-.41-.57l-6.18-2.76a3,3,0,0,0-2.17,0l-5.19,2.32c-.35.15-.47.36-.42.57a.43.43,0,0,0,0,.16.43.43,0,0,0,0,.16c-.05.21.07.41.42.57l6.17,2.76a3,3,0,0,0,2.18,0l5.19-2.32C155.21,174,155.33,173.76,155.27,173.56Zm10,4.46a.49.49,0,0,0,0-.17.43.43,0,0,0,0-.16c.05-.2-.07-.41-.42-.57l-6.17-2.76a3.14,3.14,0,0,0-2.18,0l-5.19,2.32c-.35.16-.47.37-.42.57a.43.43,0,0,0,0,.16.49.49,0,0,0,0,.17c-.05.2.07.41.42.56l6.17,2.76a3,3,0,0,0,2.18,0l5.19-2.32C165.18,178.43,165.3,178.22,165.25,178Zm39.88,17.82a.25.25,0,0,0,0-.17.22.22,0,0,0,0-.16c.06-.2-.06-.41-.41-.57l-6.18-2.76a3.12,3.12,0,0,0-2.17,0l-5.19,2.32c-.35.16-.47.37-.42.57a.43.43,0,0,0,0,.16.49.49,0,0,0,0,.17c0,.2.07.41.42.57l6.17,2.75a3,3,0,0,0,2.17,0l5.2-2.32C205.07,196.25,205.19,196,205.13,195.84Zm-10-4.46a.22.22,0,0,0,0-.16.22.22,0,0,0,0-.16c.06-.21-.07-.42-.41-.57-8.49-3.79-5.9-3.85-13.55-.44-.34.15-.47.36-.41.57a.22.22,0,0,0,0,.16.22.22,0,0,0,0,.16c-.06.21.07.41.41.57l6.18,2.76a3,3,0,0,0,2.17,0l5.2-2.32C195.09,191.79,195.22,191.58,195.16,191.38Zm-10-4.45a.49.49,0,0,0,0-.17.43.43,0,0,0,0-.16c.05-.2-.07-.41-.41-.57l-6.18-2.76a3.12,3.12,0,0,0-2.17,0l-5.2,2.32c-.35.16-.47.37-.41.57a.22.22,0,0,0,0,.16.25.25,0,0,0,0,.17c-.06.2.06.41.41.56l6.18,2.76a3,3,0,0,0,2.17,0l5.2-2.32C185.12,187.34,185.24,187.13,185.19,186.93Zm-10-4.46a.43.43,0,0,0,0-.16.43.43,0,0,0,0-.16c.05-.21-.07-.42-.42-.57l-6.17-2.76a3,3,0,0,0-2.18,0l-5.19,2.32c-.35.15-.47.36-.41.57a.22.22,0,0,0,0,.16.22.22,0,0,0,0,.16c-.06.21.06.41.41.57l6.18,2.76c1.38.62,2.27,0,7.36-2.32C175.15,182.88,175.27,182.67,175.22,182.47ZM193,213l9.39,4.2a3.12,3.12,0,0,0,2.17,0l5.2-2.32c.34-.16.47-.37.41-.57a.22.22,0,0,0,0-.16.25.25,0,0,0,0-.17c.06-.2-.07-.41-.41-.56l-9.39-4.2a3,3,0,0,0-2.18,0L193,211.51c-.35.16-.47.37-.42.57a.43.43,0,0,0,0,.16.43.43,0,0,0,0,.16C192.53,212.61,192.65,212.82,193,213Zm12.5-2.59,6.18,2.76a3,3,0,0,0,2.17,0l5.19-2.32c.35-.16.47-.37.42-.57a.43.43,0,0,0,0-.16.49.49,0,0,0,0-.17c0-.2-.07-.41-.42-.56l-6.17-2.76a3,3,0,0,0-2.18,0l-5.19,2.32c-.35.15-.47.36-.41.56a.25.25,0,0,0,0,.17.22.22,0,0,0,0,.16C205,210,205.15,210.22,205.5,210.38Zm-7.81-26a.22.22,0,0,0,0-.16.22.22,0,0,0,0-.16c.06-.21-.07-.41-.41-.57l-6.18-2.76a3,3,0,0,0-2.17,0l-5.2,2.32c-.34.16-.47.37-.41.57a.22.22,0,0,0,0,.16.22.22,0,0,0,0,.16c-.06.21.07.42.41.57,8.65,3.86,6.06,3.78,13.55.44C197.62,184.75,197.75,184.54,197.69,184.33ZM93.2,168.45l6.18,2.76a3,3,0,0,0,2.17,0l5.2-2.32c.35-.15.47-.36.41-.57a.22.22,0,0,0,0-.16.22.22,0,0,0,0-.16c.06-.2-.06-.41-.41-.57l-6.18-2.76a3,3,0,0,0-2.17,0L93.2,167c-.34.16-.46.37-.41.57a.43.43,0,0,0,0,.16.49.49,0,0,0,0,.17C92.74,168.09,92.86,168.3,93.2,168.45Zm117.92,36.43,9.39,4.19a3,3,0,0,0,2.17,0l5.2-2.32c.35-.15.47-.36.41-.57a.22.22,0,0,0,0-.16.22.22,0,0,0,0-.16c.06-.21-.06-.41-.41-.57l-9.39-4.2a3.14,3.14,0,0,0-2.18,0l-5.19,2.32c-.35.16-.47.37-.42.57a.43.43,0,0,0,0,.16.49.49,0,0,0,0,.17C210.65,204.51,210.77,204.72,211.12,204.88Zm-3.46-16.09a.22.22,0,0,0,0-.16.25.25,0,0,0,0-.17c.06-.2-.06-.41-.41-.56l-6.18-2.76a3,3,0,0,0-2.17,0l-5.19,2.32c-.35.15-.47.36-.42.56a.49.49,0,0,0,0,.17.43.43,0,0,0,0,.16c0,.2.07.41.42.57l6.17,2.76a3.14,3.14,0,0,0,2.18,0l5.19-2.32C207.6,189.2,207.72,189,207.66,188.79Zm10,4.45a.43.43,0,0,0,0-.16.43.43,0,0,0,0-.16c.05-.2-.07-.41-.42-.57L211,189.59a3,3,0,0,0-2.17,0l-5.19,2.32c-.35.16-.47.37-.42.57a.43.43,0,0,0,0,.16.43.43,0,0,0,0,.16c0,.21.07.42.42.57l6.17,2.76a3,3,0,0,0,2.18,0l5.19-2.32C217.57,193.66,217.69,193.45,217.64,193.24Zm6,9L229.8,205a3,3,0,0,0,2.17,0l5.19-2.32c.35-.15.47-.36.42-.57a.43.43,0,0,0,0-.16.43.43,0,0,0,0-.16c0-.2-.07-.41-.42-.57L231,198.5a3,3,0,0,0-2.17,0l-5.2,2.32c-.35.16-.47.37-.41.57a.22.22,0,0,0,0,.16.25.25,0,0,0,0,.17C223.15,201.92,223.27,202.13,223.62,202.28Zm4-4.58a.43.43,0,0,0,0-.16.49.49,0,0,0,0-.17c0-.2-.07-.41-.42-.56L221,194.05a3,3,0,0,0-2.18,0l-5.19,2.32c-.35.15-.47.36-.42.56a.49.49,0,0,0,0,.17.43.43,0,0,0,0,.16c0,.2.07.41.42.57l6.18,2.76a3.12,3.12,0,0,0,2.17,0l5.19-2.32C227.54,198.11,227.66,197.9,227.61,197.7ZM63.73,162.89a.43.43,0,0,0,0,.16c0,.2.07.41.41.57l6.18,2.76a3.12,3.12,0,0,0,2.17,0l5.2-2.33c.35-.15.47-.36.41-.56a.25.25,0,0,0,0-.17.22.22,0,0,0,0-.16c.06-.2-.06-.41-.41-.57l-6.18-2.76a3.12,3.12,0,0,0-2.17,0l-5.2,2.33c-.34.15-.46.36-.41.56A.49.49,0,0,0,63.73,162.89ZM102.84,172a.22.22,0,0,0,0,.16.25.25,0,0,0,0,.17c-.06.2.06.41.41.57l6.18,2.75a3,3,0,0,0,2.17,0l5.2-2.32c.34-.15.47-.36.41-.56a.25.25,0,0,0,0-.17.22.22,0,0,0,0-.16c.06-.2-.07-.41-.41-.57l-6.18-2.76a3.12,3.12,0,0,0-2.17,0l-5.2,2.32C102.9,171.57,102.78,171.78,102.84,172Zm-20-8.88a.25.25,0,0,0,0,.17.22.22,0,0,0,0,.16c-.06.2.07.41.41.57l6.18,2.76a3,3,0,0,0,2.17,0l5.2-2.32c.34-.16.47-.37.41-.57a.22.22,0,0,0,0-.16.25.25,0,0,0,0-.17c.06-.2-.07-.41-.41-.56l-6.18-2.76a3,3,0,0,0-2.17,0l-5.2,2.32C82.89,162.69,82.76,162.9,82.82,163.1Zm40,17.79a.49.49,0,0,0,0,.17.43.43,0,0,0,0,.16c0,.2.07.41.42.57l6.17,2.75a3,3,0,0,0,2.18,0l5.19-2.32c.35-.15.47-.36.41-.56a.25.25,0,0,0,0-.17.22.22,0,0,0,0-.16c.06-.2-.06-.41-.41-.57L130.56,178a3.12,3.12,0,0,0-2.17,0l-5.19,2.32C122.85,180.48,122.73,180.69,122.78,180.89Zm-36-22.37-6.17-2.76a3,3,0,0,0-2.17,0l-5.2,2.32c-.35.16-.47.37-.41.57a.22.22,0,0,0,0,.16.25.25,0,0,0,0,.17c-.06.2.06.41.41.56l6.18,2.76a3,3,0,0,0,2.17,0L86.8,160c.35-.15.47-.36.42-.57a.43.43,0,0,0,0-.16.43.43,0,0,0,0-.16C87.27,158.89,87.15,158.68,86.8,158.52Zm75.87,40.19a.25.25,0,0,0,0,.17.22.22,0,0,0,0,.16c-.06.2.07.41.41.57l6.18,2.76a3.12,3.12,0,0,0,2.17,0l5.2-2.33c.34-.15.47-.36.41-.56a.25.25,0,0,0,0-.17.22.22,0,0,0,0-.16c.06-.2-.07-.41-.41-.57l-6.18-2.76a3.12,3.12,0,0,0-2.17,0l-5.2,2.33C162.74,198.3,162.61,198.51,162.67,198.71Zm-19.95-8.91a.49.49,0,0,0,0,.17.43.43,0,0,0,0,.16c-.05.2.07.41.42.57l6.18,2.76a3.12,3.12,0,0,0,2.17,0l5.19-2.33c.35-.15.47-.36.42-.56a.49.49,0,0,0,0-.17.43.43,0,0,0,0-.16c.05-.2-.07-.41-.42-.57l-6.17-2.76a3.14,3.14,0,0,0-2.18,0l-5.19,2.33C142.79,189.39,142.67,189.6,142.72,189.8Zm10,4.46a.22.22,0,0,0,0,.16.22.22,0,0,0,0,.16c-.06.21.06.42.41.57l6.18,2.76a3,3,0,0,0,2.17,0l5.19-2.32c.35-.16.47-.37.42-.57a.43.43,0,0,0,0-.16.43.43,0,0,0,0-.16c.05-.21-.07-.42-.42-.57l-6.17-2.76a3,3,0,0,0-2.17,0l-5.2,2.32C152.76,193.85,152.64,194.05,152.7,194.26Zm19.94,8.91a.43.43,0,0,0,0,.16.43.43,0,0,0,0,.16c0,.21.07.42.41.57l6.18,2.76a3,3,0,0,0,2.17,0l5.2-2.32c.35-.16.47-.37.41-.57a.22.22,0,0,0,0-.16.22.22,0,0,0,0-.16c.06-.21-.06-.42-.41-.57l-6.18-2.76a3,3,0,0,0-2.17,0l-5.2,2.32C172.71,202.76,172.59,203,172.64,203.17Zm10,4.45a.49.49,0,0,0,0,.17.43.43,0,0,0,0,.16c-.05.2.07.41.42.57l6.17,2.76a3.14,3.14,0,0,0,2.18,0l5.19-2.33c.35-.15.47-.36.41-.56a.25.25,0,0,0,0-.17.22.22,0,0,0,0-.16c.06-.2-.06-.41-.41-.57l-6.18-2.76a3.12,3.12,0,0,0-2.17,0L183,207.06C182.68,207.21,182.56,207.42,182.61,207.62Zm-49.86-22.27a.43.43,0,0,0,0,.16.43.43,0,0,0,0,.16c-.05.21.07.42.42.57l6.17,2.76a3,3,0,0,0,2.18,0l5.19-2.32c.35-.16.47-.37.42-.57a.43.43,0,0,0,0-.16.43.43,0,0,0,0-.16c.05-.21-.07-.42-.42-.57l-6.18-2.76a3,3,0,0,0-2.17,0l-5.19,2.32C132.82,184.94,132.7,185.14,132.75,185.35Zm-19.94-8.91a.22.22,0,0,0,0,.16.22.22,0,0,0,0,.16c-.06.21.07.42.41.57l6.18,2.76a3,3,0,0,0,2.17,0l5.2-2.32c.34-.16.47-.37.41-.57a.22.22,0,0,0,0-.16.22.22,0,0,0,0-.16c.06-.21-.07-.42-.41-.57l-6.18-2.76a3,3,0,0,0-2.17,0l-5.2,2.32C112.88,176,112.75,176.23,112.81,176.44Zm54.25,32.21a.25.25,0,0,0,0,.17.22.22,0,0,0,0,.16c-.06.2.07.41.41.57l6.18,2.76a3.12,3.12,0,0,0,2.17,0L181,210c.34-.16.47-.37.41-.57a.22.22,0,0,0,0-.16.25.25,0,0,0,0-.17c.06-.2-.07-.41-.41-.57l-6.18-2.75a3,3,0,0,0-2.17,0l-5.2,2.32C167.13,208.24,167,208.45,167.06,208.65Zm-10-4.45a.22.22,0,0,0,0,.16.22.22,0,0,0,0,.16c-.06.21.06.42.41.57l6.18,2.76a3,3,0,0,0,2.17,0l5.2-2.32c.34-.16.46-.36.41-.57a.43.43,0,0,0,0-.16.43.43,0,0,0,0-.16c0-.21-.07-.42-.41-.57l-6.18-2.76a3,3,0,0,0-2.17,0l-5.2,2.32C157.15,203.79,157,204,157.09,204.2ZM177,213.11a.43.43,0,0,0,0,.16.43.43,0,0,0,0,.16c-.05.21.07.42.42.57l6.17,2.76a3,3,0,0,0,2.17,0l5.2-2.32c.35-.15.47-.36.41-.57a.22.22,0,0,0,0-.16.22.22,0,0,0,0-.16c.06-.21-.06-.41-.41-.57l-6.18-2.76a3,3,0,0,0-2.17,0l-5.19,2.32C177.1,212.7,177,212.91,177,213.11Zm10,4.45a.49.49,0,0,0,0,.17.43.43,0,0,0,0,.16c-.05.2.07.41.42.57l6.17,2.76a3.14,3.14,0,0,0,2.18,0L201,218.9c.35-.16.47-.37.42-.57a.43.43,0,0,0,0-.16.49.49,0,0,0,0-.17c.05-.2-.07-.41-.42-.57l-6.18-2.75a3,3,0,0,0-2.17,0L187.42,217C187.07,217.15,187,217.36,187,217.56ZM112.12,168a.49.49,0,0,0,0,.17.43.43,0,0,0,0,.16c-.05.2.07.41.42.57l9.39,4.19a3,3,0,0,0,2.17,0l5.2-2.32c.35-.15.47-.36.41-.57a.22.22,0,0,0,0-.16.22.22,0,0,0,0-.16c.06-.2-.06-.41-.41-.57l-9.39-4.2a3.14,3.14,0,0,0-2.18,0l-5.19,2.33C112.19,167.54,112.07,167.75,112.12,168Zm-18,8.11a.43.43,0,0,0,0,.16.43.43,0,0,0,0,.16c0,.21.07.42.42.57l9.39,4.2a3,3,0,0,0,2.17,0l5.19-2.32c.35-.16.47-.37.42-.57a.43.43,0,0,0,0-.16.49.49,0,0,0,0-.17c0-.2-.07-.41-.42-.56l-9.39-4.2a3,3,0,0,0-2.17,0l-5.19,2.32C94.17,175.65,94.05,175.86,94.1,176.06Zm-20.4-8.88a.43.43,0,0,0,0,.16.43.43,0,0,0,0,.16c0,.21.07.42.42.57l6.17,2.76a3,3,0,0,0,2.18,0l5.19-2.32c.35-.16.47-.37.41-.57a.22.22,0,0,0,0-.16.22.22,0,0,0,0-.16c.06-.21-.06-.42-.41-.57l-6.18-2.76a3,3,0,0,0-2.17,0l-5.19,2.32C73.77,166.77,73.65,167,73.7,167.18Zm10,4.45a.49.49,0,0,0,0,.17.43.43,0,0,0,0,.16c0,.2.07.41.42.57l6.18,2.76a3.12,3.12,0,0,0,2.17,0L97.63,173c.35-.15.47-.36.42-.56a.49.49,0,0,0,0-.17.43.43,0,0,0,0-.16c0-.2-.07-.41-.42-.57l-6.17-2.76a3.14,3.14,0,0,0-2.18,0l-5.19,2.33C83.74,171.22,83.62,171.43,83.67,171.63Zm23.39,10.3a.43.43,0,0,0,0,.16.49.49,0,0,0,0,.17c0,.2.07.41.42.56l46.18,20.64a3.12,3.12,0,0,0,2.17,0l5.2-2.33c.35-.15.47-.36.41-.56a.25.25,0,0,0,0-.17.22.22,0,0,0,0-.16c.06-.2-.06-.41-.41-.57L114.85,179a3,3,0,0,0-2.18,0l-5.19,2.32C107.13,181.52,107,181.73,107.06,181.93Zm38.19.82a.49.49,0,0,0,0,.17.43.43,0,0,0,0,.16c-.05.2.07.41.42.57l6.18,2.76a3.12,3.12,0,0,0,2.17,0l5.19-2.32c.35-.16.47-.37.42-.57a.43.43,0,0,0,0-.16.49.49,0,0,0,0-.17c.05-.2-.07-.41-.42-.56L153,179.87a3,3,0,0,0-2.18,0l-5.19,2.32C145.32,182.34,145.2,182.55,145.25,182.75Zm10,4.46a.22.22,0,0,0,0,.16.25.25,0,0,0,0,.17c-.06.2.06.41.41.56l6.18,2.76a3,3,0,0,0,2.17,0l5.2-2.32c.34-.15.46-.36.41-.57a.43.43,0,0,0,0-.16.43.43,0,0,0,0-.16c.05-.2-.07-.41-.41-.57L163,184.32a3,3,0,0,0-2.17,0l-5.2,2.32C155.29,186.8,155.17,187,155.23,187.21Zm-19.95-8.91a.43.43,0,0,0,0,.16.49.49,0,0,0,0,.17c-.05.2.07.41.42.56l6.17,2.76a3,3,0,0,0,2.18,0l5.19-2.32c.35-.15.47-.36.42-.57a.43.43,0,0,0,0-.16.43.43,0,0,0,0-.16c.05-.2-.07-.41-.42-.57l-6.18-2.76a3,3,0,0,0-2.17,0l-5.19,2.32C135.35,177.89,135.23,178.1,135.28,178.3ZM105,150.39l-6.18-2.76a3,3,0,0,0-2.17,0L91.46,150c-.34.16-.47.37-.41.57a.22.22,0,0,0,0,.16.22.22,0,0,0,0,.16c-.06.21.07.42.41.57l6.18,2.76a3,3,0,0,0,2.17,0l5.2-2.32c.34-.16.47-.37.41-.57a.22.22,0,0,0,0-.16.22.22,0,0,0,0-.16C105.48,150.75,105.35,150.54,105,150.39Zm20.3,23.45a.49.49,0,0,0,0,.17.43.43,0,0,0,0,.16c0,.2.07.41.42.57l6.17,2.76a3.14,3.14,0,0,0,2.18,0l5.19-2.32c.35-.16.47-.37.41-.57a.22.22,0,0,0,0-.16.25.25,0,0,0,0-.17c.06-.2-.06-.41-.41-.56L133.09,171a3,3,0,0,0-2.17,0l-5.19,2.32C125.38,173.43,125.26,173.64,125.31,173.84Zm39.89,17.82a.25.25,0,0,0,0,.17.22.22,0,0,0,0,.16c-.06.2.07.41.41.57l6.18,2.76a3,3,0,0,0,2.17,0l5.2-2.32c.34-.16.47-.37.41-.57a.22.22,0,0,0,0-.16.25.25,0,0,0,0-.17c.06-.2-.07-.41-.41-.56L173,188.78a3,3,0,0,0-2.17,0l-5.2,2.32C165.27,191.25,165.14,191.46,165.2,191.66Zm19.94,8.91a.49.49,0,0,0,0,.17.43.43,0,0,0,0,.16c0,.2.07.41.42.57l6.17,2.76a3,3,0,0,0,2.18,0l5.19-2.32c.35-.16.47-.37.42-.57a.43.43,0,0,0,0-.16.49.49,0,0,0,0-.17c0-.2-.07-.41-.42-.56l-6.18-2.76a3,3,0,0,0-2.17,0L185.56,200C185.21,200.16,185.09,200.37,185.14,200.57Zm-10-4.45a.43.43,0,0,0,0,.16.49.49,0,0,0,0,.17c0,.2.07.41.42.56l6.17,2.76a3,3,0,0,0,2.17,0l5.2-2.32c.35-.15.47-.36.41-.57a.22.22,0,0,0,0-.16.22.22,0,0,0,0-.16c.06-.2-.06-.41-.41-.57L183,193.23a3,3,0,0,0-2.17,0l-5.19,2.32C175.24,195.71,175.12,195.92,175.17,196.12Z" />
                <path class="cls-1" d="M223.62,200.61l5.2-2.32a3,3,0,0,1,2.17,0l6.17,2.76c.6.27.6.7,0,1L232,204.34a3,3,0,0,1-2.17,0l-6.18-2.76C223,201.31,223,200.88,223.62,200.61Zm-10-3.48,6.18,2.75a3,3,0,0,0,2.17,0l5.19-2.32c.6-.26.6-.7,0-1L221,193.83a3.14,3.14,0,0,0-2.18,0l-5.19,2.32C213.05,196.42,213.05,196.86,213.65,197.13Zm-10-4.46,6.17,2.76a3,3,0,0,0,2.18,0l5.19-2.32c.6-.27.6-.7,0-1L211,189.38a3,3,0,0,0-2.17,0l-5.19,2.32C203.08,192,203.08,192.4,203.68,192.67Zm-10-4.46,6.17,2.76a3,3,0,0,0,2.18,0l5.19-2.32c.6-.26.6-.7,0-1l-6.18-2.76a3.12,3.12,0,0,0-2.17,0l-5.19,2.32C193.11,187.51,193.11,188,193.71,188.21Zm-10-4.45,6.18,2.76a3,3,0,0,0,2.17,0l5.2-2.32c.6-.27.6-.7,0-1l-6.18-2.76a3,3,0,0,0-2.17,0l-5.2,2.32C183.13,183.06,183.13,183.49,183.73,183.76Zm-10-4.46,6.18,2.76a3,3,0,0,0,2.17,0l5.2-2.32c.6-.26.6-.7,0-1L181.13,176a3.12,3.12,0,0,0-2.17,0l-5.2,2.32C173.16,178.6,173.16,179,173.76,179.3Zm-10-4.45,6.18,2.76a3,3,0,0,0,2.17,0l5.19-2.32c.6-.27.6-.7,0-1l-6.17-2.76a3,3,0,0,0-2.18,0l-5.19,2.32C163.19,174.15,163.19,174.58,163.79,174.85Zm-10-4.46,6.17,2.76a3,3,0,0,0,2.18,0l5.19-2.32c.6-.26.6-.7,0-1l-6.17-2.76a3.14,3.14,0,0,0-2.18,0l-5.19,2.32C153.22,169.69,153.22,170.13,153.82,170.39Zm-10-4.45L150,168.7a3,3,0,0,0,2.18,0l5.19-2.32c.6-.27.6-.7,0-1l-6.18-2.76a3,3,0,0,0-2.17,0L143.85,165C143.25,165.24,143.25,165.67,143.85,165.94Zm-13.19-5.89,9.39,4.19a3,3,0,0,0,2.17,0l5.2-2.32c.6-.26.6-.7,0-1L138,156.76a3,3,0,0,0-2.18,0l-5.19,2.32C130.06,159.35,130.06,159.78,130.66,160.05Zm-37.46,7.7,6.18,2.76a3,3,0,0,0,2.17,0l5.2-2.32c.6-.27.6-.7,0-1l-6.18-2.76a3,3,0,0,0-2.17,0l-5.2,2.32C92.6,167.05,92.6,167.48,93.2,167.75Zm-10-4.45,6.18,2.76a3.12,3.12,0,0,0,2.17,0l5.2-2.33c.6-.26.6-.7,0-1L90.6,160a3.12,3.12,0,0,0-2.17,0l-5.2,2.33C82.63,162.59,82.63,163,83.23,163.3Zm-10-4.46,6.18,2.76a3,3,0,0,0,2.17,0l5.19-2.32c.6-.27.6-.7,0-1l-6.17-2.76a3,3,0,0,0-2.17,0l-5.2,2.32C72.66,158.14,72.66,158.57,73.26,158.84Zm10.83,13,6.18,2.76a3,3,0,0,0,2.17,0l5.19-2.32c.6-.27.6-.7,0-1l-6.17-2.76a3,3,0,0,0-2.18,0l-5.19,2.32C83.49,171.12,83.49,171.56,84.09,171.82Zm-10-4.45,6.17,2.76a3,3,0,0,0,2.18,0l5.19-2.32c.6-.27.6-.71,0-1l-6.18-2.76a3,3,0,0,0-2.17,0l-5.19,2.32C73.52,166.67,73.52,167.1,74.12,167.37Zm-10-4.46,6.18,2.76a3,3,0,0,0,2.17,0l5.2-2.32c.6-.27.6-.7,0-1l-6.18-2.76a3,3,0,0,0-2.17,0l-5.2,2.32C63.54,162.21,63.54,162.65,64.14,162.91Zm147,41.26,9.39,4.2a3,3,0,0,0,2.17,0l5.2-2.32c.6-.27.6-.7,0-1l-9.39-4.2a3,3,0,0,0-2.18,0l-5.19,2.32C210.52,203.47,210.52,203.91,211.12,204.17Zm-10-4.45,6.17,2.76a3,3,0,0,0,2.18,0l5.19-2.32c.6-.27.6-.71,0-1l-6.18-2.76a3,3,0,0,0-2.17,0l-5.19,2.32C200.55,199,200.55,199.45,201.15,199.72Zm-10-4.46,6.17,2.76a3,3,0,0,0,2.17,0l5.2-2.32c.6-.27.6-.7,0-1L198.54,192a3,3,0,0,0-2.17,0l-5.19,2.32C190.58,194.56,190.58,195,191.18,195.26Zm-10-4.45,6.18,2.76a3,3,0,0,0,2.17,0l5.2-2.32c.6-.27.6-.71,0-1l-6.18-2.76a3,3,0,0,0-2.17,0l-5.2,2.32C180.6,190.11,180.6,190.54,181.2,190.81Zm-10-4.46,6.18,2.76a3,3,0,0,0,2.17,0l5.2-2.32c.6-.27.6-.7,0-1l-6.18-2.76a3,3,0,0,0-2.17,0l-5.2,2.32C170.63,185.65,170.63,186.09,171.23,186.35Zm-10-4.45,6.18,2.76a3,3,0,0,0,2.17,0l5.19-2.32c.6-.27.6-.71,0-1l-6.17-2.76a3,3,0,0,0-2.18,0l-5.19,2.32C160.66,181.2,160.66,181.63,161.26,181.9Zm-10-4.46,6.17,2.76a3,3,0,0,0,2.18,0l5.19-2.32c.6-.27.6-.7,0-1l-6.17-2.76a3,3,0,0,0-2.18,0l-5.19,2.32C150.69,176.74,150.69,177.17,151.29,177.44Zm-10-4.45,6.17,2.76a3,3,0,0,0,2.18,0l5.19-2.32c.6-.27.6-.71,0-1l-6.18-2.76a3,3,0,0,0-2.17,0L141.32,172C140.72,172.29,140.72,172.72,141.32,173Zm-10-4.46,6.18,2.76a3,3,0,0,0,2.17,0l5.2-2.32c.6-.27.6-.7,0-1l-6.18-2.76a3,3,0,0,0-2.17,0l-5.2,2.32C130.74,167.83,130.74,168.26,131.34,168.53Zm-10-4.45,6.18,2.76a3,3,0,0,0,2.17,0l5.2-2.32c.6-.27.6-.71,0-1l-6.18-2.76a3,3,0,0,0-2.17,0l-5.2,2.32C120.77,163.38,120.77,163.81,121.37,164.08Zm84.13,45.6,6.18,2.76a3.12,3.12,0,0,0,2.17,0l5.19-2.33c.6-.26.6-.7,0-1l-6.17-2.76a3.14,3.14,0,0,0-2.18,0l-5.19,2.32C204.9,209,204.9,209.41,205.5,209.68Zm-10-4.46,6.18,2.76a3,3,0,0,0,2.17,0l5.19-2.32c.6-.27.6-.7,0-1l-6.17-2.76a3,3,0,0,0-2.18,0l-5.19,2.32C194.93,204.52,194.93,205,195.53,205.22Zm-10-4.45,6.17,2.75a3,3,0,0,0,2.18,0l5.19-2.32c.6-.26.6-.7,0-1l-6.18-2.76a3.12,3.12,0,0,0-2.17,0l-5.19,2.32C185,200.06,185,200.5,185.56,200.77Zm-10-4.46,6.17,2.76a3,3,0,0,0,2.17,0l5.2-2.32c.6-.27.6-.7,0-1L183,193a3,3,0,0,0-2.17,0l-5.19,2.32C175,195.61,175,196,175.59,196.31Zm11.83,21.44,6.17,2.76a3,3,0,0,0,2.18,0l5.19-2.32c.6-.26.6-.7,0-1l-6.18-2.76a3.12,3.12,0,0,0-2.17,0l-5.19,2.32C186.82,217.05,186.82,217.49,187.42,217.75Zm-10-4.45,6.17,2.76a3,3,0,0,0,2.17,0l5.2-2.32c.6-.27.6-.7,0-1L184.81,210a3,3,0,0,0-2.17,0l-5.19,2.32C176.85,212.6,176.85,213,177.45,213.3Zm-10-4.46,6.18,2.76a3,3,0,0,0,2.17,0l5.2-2.32c.6-.26.6-.7,0-1l-6.18-2.76a3,3,0,0,0-2.17,0l-5.2,2.32C166.87,208.14,166.87,208.58,167.47,208.84Zm-10-4.45,6.18,2.76a3,3,0,0,0,2.17,0l5.2-2.32c.6-.27.6-.7,0-1l-6.18-2.76a3,3,0,0,0-2.17,0l-5.2,2.32C156.9,203.69,156.9,204.12,157.5,204.39Zm-63-28.14,9.39,4.2a3.12,3.12,0,0,0,2.17,0l5.19-2.33c.6-.26.6-.7,0-1L101.88,173a3,3,0,0,0-2.17,0l-5.19,2.32C93.91,175.55,93.91,176,94.52,176.25Zm71.09,15.61,6.18,2.75a3,3,0,0,0,2.17,0l5.2-2.32c.6-.26.6-.7,0-1L173,188.56a3.12,3.12,0,0,0-2.17,0l-5.2,2.32C165,191.15,165,191.59,165.61,191.86Zm-10-4.46,6.18,2.76a3,3,0,0,0,2.17,0l5.2-2.32c.6-.27.6-.7,0-1L163,184.11a3,3,0,0,0-2.17,0l-5.2,2.32C155,186.7,155,187.13,155.64,187.4Zm-10-4.45,6.18,2.75a3,3,0,0,0,2.17,0l5.19-2.32c.6-.26.6-.7,0-1L153,179.65a3.14,3.14,0,0,0-2.18,0L145.67,182C145.07,182.24,145.07,182.68,145.67,183Zm-10-4.46,6.17,2.76a3,3,0,0,0,2.18,0l5.19-2.32c.6-.27.6-.7,0-1l-6.18-2.76a3,3,0,0,0-2.17,0l-5.19,2.32C135.1,177.79,135.1,178.22,135.7,178.49Zm-10-4.45,6.17,2.75a3,3,0,0,0,2.18,0l5.19-2.32c.6-.26.6-.7,0-1l-6.18-2.76a3.12,3.12,0,0,0-2.17,0l-5.19,2.32C125.13,173.33,125.13,173.77,125.73,174Zm-13.19-5.9,9.39,4.2a3,3,0,0,0,2.17,0l5.2-2.32c.6-.27.6-.7,0-1l-9.39-4.2a3,3,0,0,0-2.18,0l-5.19,2.32C111.94,167.44,111.94,167.88,112.54,168.14ZM193,212.27l9.39,4.19a3,3,0,0,0,2.17,0l5.2-2.32c.6-.26.6-.7,0-1L200.37,209a3,3,0,0,0-2.18,0L193,211.3C192.4,211.57,192.4,212,193,212.27Zm-10-4.46,6.17,2.76a3,3,0,0,0,2.18,0l5.19-2.32c.6-.27.6-.7,0-1l-6.18-2.76a3,3,0,0,0-2.17,0L183,206.84C182.43,207.11,182.43,207.55,183,207.81Zm-10-4.45,6.18,2.76a3,3,0,0,0,2.17,0l5.2-2.32c.6-.27.6-.71,0-1l-6.18-2.76a3,3,0,0,0-2.17,0l-5.2,2.32C172.45,202.66,172.45,203.09,173.05,203.36Zm-10-4.46,6.18,2.76a3,3,0,0,0,2.17,0l5.2-2.32c.6-.27.6-.7,0-1l-6.18-2.76a3,3,0,0,0-2.17,0l-5.2,2.32C162.48,198.2,162.48,198.64,163.08,198.9Zm-10-4.45,6.18,2.76a3,3,0,0,0,2.17,0l5.19-2.32c.6-.27.6-.71,0-1l-6.17-2.76a3,3,0,0,0-2.17,0l-5.2,2.32C152.51,193.75,152.51,194.18,153.11,194.45Zm-45.63-12.33,46.18,20.63a3,3,0,0,0,2.17,0l5.2-2.32c.6-.27.6-.7,0-1l-46.18-20.63a3,3,0,0,0-2.18,0l-5.19,2.32C106.88,181.42,106.88,181.85,107.48,182.12ZM143.14,190l6.18,2.76a3,3,0,0,0,2.17,0l5.19-2.32c.6-.27.6-.7,0-1l-6.17-2.76a3,3,0,0,0-2.18,0L143.14,189C142.54,189.29,142.54,189.73,143.14,190Zm-10-4.45,6.17,2.76a3,3,0,0,0,2.18,0l5.19-2.32c.6-.27.6-.71,0-1l-6.18-2.76a3,3,0,0,0-2.17,0l-5.19,2.32C132.57,184.84,132.57,185.27,133.17,185.54Zm-10-4.46,6.17,2.76a3,3,0,0,0,2.18,0l5.19-2.32c.6-.27.6-.7,0-1l-6.18-2.76a3,3,0,0,0-2.17,0l-5.19,2.32C122.6,180.38,122.6,180.82,123.2,181.08Zm-10-4.45,6.18,2.76a3,3,0,0,0,2.17,0l5.2-2.32c.6-.27.6-.71,0-1l-6.18-2.76a3,3,0,0,0-2.17,0l-5.2,2.32C112.62,175.93,112.62,176.36,113.22,176.63Zm-10-4.46,6.18,2.76a3,3,0,0,0,2.17,0l5.2-2.32c.6-.27.6-.7,0-1l-6.18-2.76a3,3,0,0,0-2.17,0l-5.2,2.32C102.65,171.47,102.65,171.91,103.25,172.17Zm17.25-16.61,6.18,2.76a3.12,3.12,0,0,0,2.17,0L134,156c.6-.27.6-.71,0-1l-6.17-2.76a3.14,3.14,0,0,0-2.18,0l-5.19,2.33C119.9,154.85,119.9,155.29,120.5,155.56Zm-10-4.46,6.18,2.76a3,3,0,0,0,2.17,0l5.19-2.32c.6-.27.6-.7,0-1l-6.17-2.76a3,3,0,0,0-2.18,0l-5.19,2.32C109.93,150.4,109.93,150.83,110.53,151.1Zm-10-4.45,6.17,2.76a3.14,3.14,0,0,0,2.18,0l5.19-2.32c.6-.27.6-.71,0-1l-6.18-2.76a3.12,3.12,0,0,0-2.17,0l-5.19,2.33C100,145.94,100,146.38,100.56,146.65Zm-9.1,4.06,6.18,2.76a3,3,0,0,0,2.17,0l5.2-2.32c.6-.27.6-.7,0-1l-6.18-2.76a3,3,0,0,0-2.17,0l-5.2,2.32C90.86,150,90.86,150.44,91.46,150.71Z" />
                <path class="cls-14" d="M64.8,199.43l45.82,20.47a5.21,5.21,0,0,0,3.73,0l30.37-13.57c1-.46,1-1.2,0-1.66L98.9,184.2a5.21,5.21,0,0,0-3.73,0L64.8,197.76C63.77,198.22,63.77,199,64.8,199.43Z" />
                <path class="cls-15" d="M144.72,205.09,98.9,184.62a5.21,5.21,0,0,0-3.73,0L64.8,198.19a1.3,1.3,0,0,0-.72.62c-.15-.37.09-.76.72-1.05L95.17,184.2a5.21,5.21,0,0,1,3.73,0l45.82,20.47c.64.28.88.67.73,1A1.33,1.33,0,0,0,144.72,205.09Z" />
                <path class="cls-16" d="M109.94,142.23l.21.09,129.78,58,4.43-2-.21-.09-129.78-58Zm.56,0,3.87-1.73L243.8,198.32l-3.87,1.73Z" />
                <path class="cls-9" d="M99.74,155.27l6.84-3.06a3.81,3.81,0,0,1,2.7,0l15.65,7c.42.19.58.44.53.69a.43.43,0,0,1,0,.16.49.49,0,0,1,0,.17c.05.24-.11.49-.53.68L111.29,167a3.81,3.81,0,0,1-2.7,0l-26-11.6c-.42-.19-.58-.44-.52-.69a.22.22,0,0,1,0-.16.22.22,0,0,1,0-.16c-.06-.25.1-.5.52-.69l5.08-2.27a2.51,2.51,0,0,1,1.79,0l8.72,3.84A2.15,2.15,0,0,0,99.74,155.27Z" />
                <path class="cls-1" d="M82.63,153.49l5.08-2.27a2.51,2.51,0,0,1,1.79,0l8.72,3.84a2.21,2.21,0,0,0,1.52,0l6.84-3.06a3.81,3.81,0,0,1,2.7,0l15.65,7c.75.34.75.88,0,1.21l-13.64,6.09a3.7,3.7,0,0,1-2.7,0l-26-11.59C81.88,154.36,81.88,153.82,82.63,153.49Z" />
                <path class="cls-1" d="M181.49,232.91l-5.34,2.38c-.62.28-1.12.11-1.12-.37a1.82,1.82,0,0,1,1.13-1.37l5.34-2.38c.62-.28,1.12-.11,1.12.37A1.81,1.81,0,0,1,181.49,232.91Z" />
                <g class="cls-17">
                    <path class="cls-18" d="M174.12,233.57l-.74.33,2.64,1.18.74-.34Zm1.64-.73-.74.33,2.63,1.18.74-.34Zm1.63-.73-.74.33,2.64,1.18.74-.34Zm1.64-.73-.75.33,2.64,1.18.74-.34Z" />
                </g>
                <polygon class="cls-19" points="252.84 99.31 239.53 187.65 103.92 127.06 117.2 38.72 252.84 99.31" />
                <polygon class="cls-20" points="227.97 98.83 227.97 185.76 89.33 123.82 89.33 36.89 227.97 98.83" />
                <polygon class="cls-1" points="89.33 123.82 89.33 37.31 133.43 57.02 133.43 143.53 89.33 123.82" />
                <path class="cls-21" d="M109.14,88.25c2.06.61,4.53,2.23,7.56,5,5.77,5.24,7.72,16.91-2.84,17.93l-.09,0c-.2-.09-.27-.36-.1-.37,10.29-1,8.37-12.3,2.86-17.3-3-2.68-5.35-4.26-7.33-4.84C109,88.55,108.89,88.18,109.14,88.25Zm-5.94,6c-.18.08.1.45.28.37,2.62-1.29,1.7-6.22,7.23-3.34a16.81,16.81,0,0,1,6.81,5.87c.15.26.46.18.3-.08a17.53,17.53,0,0,0-7.08-6.13C104.91,87.87,105.72,93,103.2,94.21ZM113.75,105c1.86-1.86,2.14-4.1.83-6.64-.13-.26-.46-.22-.33,0,1.25,2.41,1,4.46-.82,6.26-.06.06,0,.18.06.27a.35.35,0,0,0,.1.08A.15.15,0,0,0,113.75,105Zm-.17-7.89c.18.24.45.11.27-.13a6.9,6.9,0,0,0-4.61-3.07c-.95-.06-1.55.82-2.18,1.75a11.39,11.39,0,0,1-1,1.28c-.13.14.2.47.33.33a10.67,10.67,0,0,0,1-1.3c.6-.89,1.17-1.72,2-1.66A6.24,6.24,0,0,1,113.58,97.14Zm3.49,4.59c0,.22.37.42.39.2.22-2.55-.77-5-3.41-7.35-1.61-1.42-4-2.92-5.71-2.89-.23,0,0,.4.17.4,1.64,0,3.85,1.39,5.38,2.73C116.12,96.79,117.31,99.06,117.07,101.73ZM116,108.12c-.11.06,0,.28.14.36.39.17,4.78-3.34,2.76-9.19-.08-.26-.45-.3-.36,0A7.5,7.5,0,0,1,116,108.12Zm5.43-13.9a32.67,32.67,0,0,0-8.66-7.91c-.25-.15-.32.16-.07.32a31.8,31.8,0,0,1,9,8.49.53.53,0,0,0,.14.12l.15,0C122.27,95.27,121.51,94.34,121.42,94.22Zm-8,18.44a11.5,11.5,0,0,0,1.65.38,9,9,0,0,0,4-1c3.52-2,5.68-5.62,4.35-10.8-1.68-6.53-9.7-15.32-17.11-15.18-4.58.08-4,4-6.07,4.27a4,4,0,0,1-1.15-.1l-.06.36a5,5,0,0,0,1.41.13c2.33-.27,1.5-4.18,6.05-4.27,7.22-.13,14.95,8.46,16.56,14.71,1.29,5-.83,8.61-4.26,10.51A10.14,10.14,0,0,1,113.41,112.66Zm-8.6-28.19a4.3,4.3,0,0,0-4,3.07c-.06.2.32.44.37.24A4.13,4.13,0,0,1,105,84.86a14.26,14.26,0,0,1,6.21,1.08c.25.09.22-.27,0-.37A14.59,14.59,0,0,0,104.81,84.47Zm6.62,14.88a4.21,4.21,0,0,1-3.17,3.78c-.14.05-.06.29.12.37.76.34,5.16-3.1,2.75-5.12-1.17-1-1.73.1-2.1,1-.68,1.73-1.54,3.87-8.77-.71-.25-.16-.33.15-.08.31,10.23,6.48,8.38-.14,10.12-.58C110.69,98.23,111.44,99,111.43,99.35Zm1.82,2.18c.69-2.22-1.23-4.67-2.9-5.07-3-.72-1.66,4-5.26,3.28-.25,0-.14.35.1.39,3.73.7,2.64-3.92,5.24-3.29a3.82,3.82,0,0,1,2.45,4.44,7.07,7.07,0,0,1-4,3.65c-.14,0-.06.29.12.37C109.47,105.5,112.62,103.56,113.25,101.53Zm-7,6.78.46.43c5.47.4,9.53-1.71,10.56-5.65.06-.21-.32-.45-.37-.24C116,106.09,112.42,108.87,106.23,108.31Zm-1.53-1.59.36.41a25.11,25.11,0,0,0,4.69,0,5.49,5.49,0,0,0,3.25-1.36c.06,0,0-.17,0-.27s-.21-.12-.27-.07a5.31,5.31,0,0,1-3.13,1.31A24.42,24.42,0,0,1,104.7,106.72Zm-2.58-3.51.27.44a31.42,31.42,0,0,0,3.6.76c.24,0,.12-.36-.12-.39A29.61,29.61,0,0,1,102.12,103.21Zm1.25,1.86.32.42a15,15,0,0,0,4.37.11c.21,0,0-.42-.22-.39A15,15,0,0,1,103.37,105.07ZM98.88,92.93c0,.12,0,.25,0,.37a6.49,6.49,0,0,0,3.63,1.51c.22,0,0-.4-.18-.39A6.3,6.3,0,0,1,98.88,92.93Zm1.79,7.54.24.52a16.18,16.18,0,0,0,6.44,2.56c.24,0,.13-.35-.12-.39A15.76,15.76,0,0,1,100.67,100.47Zm7.7,9.62.53.38c3.08-.18,4.54-.51,6.25-1.37.17-.09-.1-.46-.28-.37C113.13,109.61,111.65,109.93,108.37,110.09Zm-8.72-14a12.54,12.54,0,0,0,4.15,2.05,2.47,2.47,0,0,0,2-.3c.16-.11-.13-.47-.3-.36a2.17,2.17,0,0,1-1.78.28,11.78,11.78,0,0,1-3.94-1.95C99.53,95.61,99.41,95.89,99.65,96.07Zm.36,1.45a21.68,21.68,0,0,0,3.85,2.21c.27.11.23-.28,0-.36a21.53,21.53,0,0,1-3.74-2.15C99.85,97.05,99.76,97.36,100,97.52Zm-.5-2.64c2.08,1.39,4.66,2.2,5.81.94a6.86,6.86,0,0,0,1-1.64,7.3,7.3,0,0,1,.78-1.4c.2-.27.38-.29.17-.51s-.38,0-.51.19a7.47,7.47,0,0,0-.8,1.44,6.3,6.3,0,0,1-.94,1.59c-1,1.16-3.45.38-5.38-.91C99.35,94.42,99.26,94.72,99.51,94.88Zm11.32,16.74a10.43,10.43,0,0,0,2.15-.29c.2,0,0-.43-.24-.38a12.59,12.59,0,0,1-2.61.29C110.36,111.37,110.59,111.5,110.83,111.62Zm-8-19.37c1.15-1.67,2.31-3.91,4.92-3.86.24,0,.07-.39-.16-.39-4.83-.1-4.2,6.51-7.84,3.88-.25-.18-.36.11-.11.29C101.11,93.24,102.32,93,102.82,92.25Z" />
                <g class="cls-22">
                    <path class="cls-23" d="M127.37,108.13c1.21.54,2.2.22,2.2-.72a3.58,3.58,0,0,0-2.2-2.68L95.24,90.38c-1.21-.54-2.2-.22-2.2.72a3.58,3.58,0,0,0,2.2,2.68Z" />
                    <path class="cls-24" d="M127.23,108c1.16.52,2.1.21,2.1-.68a3.38,3.38,0,0,0-2.1-2.56L95.38,90.52c-1.16-.52-2.1-.21-2.1.68a3.4,3.4,0,0,0,2.1,2.56Z" />
                    <path class="cls-25" d="M127.09,107.85c1.1.49,2,.2,2-.65a3.24,3.24,0,0,0-2-2.43L95.52,90.66c-1.1-.49-2-.2-2,.65a3.24,3.24,0,0,0,2,2.43Z" />
                    <path class="cls-26" d="M127,107.71c1,.47,1.89.19,1.89-.62a3.08,3.08,0,0,0-1.89-2.31l-31.3-14c-1-.47-1.9-.19-1.9.62a3.09,3.09,0,0,0,1.9,2.31Z" />
                    <path class="cls-27" d="M126.82,107.57c1,.44,1.79.18,1.79-.59a2.92,2.92,0,0,0-1.79-2.18l-31-13.86c-1-.44-1.79-.18-1.79.58a2.91,2.91,0,0,0,1.79,2.19Z" />
                    <path class="cls-28" d="M126.68,107.43c.93.41,1.69.17,1.69-.55a2.73,2.73,0,0,0-1.69-2.06L95.93,91.08c-.93-.42-1.68-.17-1.68.55a2.72,2.72,0,0,0,1.68,2.06Z" />
                    <path class="cls-29" d="M126.54,107.29c.88.39,1.59.16,1.59-.52a2.57,2.57,0,0,0-1.59-1.94L96.07,91.22c-.87-.39-1.58-.16-1.58.52a2.57,2.57,0,0,0,1.58,1.94Z" />
                    <path class="cls-30" d="M126.4,107.15c.82.36,1.49.15,1.49-.49a2.42,2.42,0,0,0-1.49-1.81L96.21,91.36c-.82-.36-1.48-.15-1.48.49a2.41,2.41,0,0,0,1.48,1.81Z" />
                    <path class="cls-31" d="M126.26,107c.77.34,1.39.13,1.39-.46a2.23,2.23,0,0,0-1.39-1.68L96.35,91.5c-.76-.34-1.38-.14-1.38.45a2.25,2.25,0,0,0,1.38,1.69Z" />
                    <path class="cls-32" d="M126.12,106.87c.71.31,1.29.12,1.29-.42a2.09,2.09,0,0,0-1.29-1.57L96.49,91.64c-.71-.31-1.28-.13-1.28.42a2.08,2.08,0,0,0,1.28,1.57Z" />
                    <path class="cls-33" d="M126,106.73c.65.29,1.17.11,1.17-.39A1.91,1.91,0,0,0,126,104.9L96.63,91.78c-.65-.29-1.18-.11-1.18.39a1.92,1.92,0,0,0,1.18,1.44Z" />
                    <path class="cls-34" d="M125.85,106.58c.59.27,1.07.11,1.07-.35a1.73,1.73,0,0,0-1.07-1.31l-29.08-13c-.6-.26-1.08-.1-1.08.36a1.72,1.72,0,0,0,1.08,1.31Z" />
                    <path class="cls-35" d="M125.71,106.44c.54.24,1,.1,1-.32a1.58,1.58,0,0,0-1-1.19L96.9,92.06c-.53-.24-1-.09-1,.32a1.6,1.6,0,0,0,1,1.2Z" />
                    <path class="cls-36" d="M125.57,106.3c.48.22.87.09.87-.28a1.42,1.42,0,0,0-.87-1.07L97,92.21c-.48-.22-.87-.09-.87.28A1.43,1.43,0,0,0,97,93.56Z" />
                    <path class="cls-37" d="M125.43,106.16c.43.19.77.08.77-.25a1.24,1.24,0,0,0-.77-.94L97.18,92.35c-.43-.19-.77-.08-.77.25a1.24,1.24,0,0,0,.77.94Z" />
                    <path class="cls-38" d="M125.29,106c.37.17.67.07.67-.22a1.11,1.11,0,0,0-.67-.82l-28-12.49c-.37-.17-.67-.07-.67.22a1.11,1.11,0,0,0,.67.82Z" />
                    <path class="cls-39" d="M97.46,93.51l27.69,12.37c.32.14.57.06.57-.18a.91.91,0,0,0-.57-.7L97.46,92.63c-.32-.14-.57-.06-.57.18A.91.91,0,0,0,97.46,93.51Z" />
                    <path class="cls-40" d="M97.52,93.52l27.6,12.33c.3.13.54.05.54-.18a.88.88,0,0,0-.54-.67L97.52,92.68c-.3-.14-.54-.06-.54.17A.87.87,0,0,0,97.52,93.52Z" />
                    <path class="cls-41" d="M97.59,93.53l27.49,12.28c.29.13.52,0,.52-.17a.85.85,0,0,0-.52-.64L97.59,92.72c-.29-.13-.52,0-.52.17A.83.83,0,0,0,97.59,93.53Z" />
                    <path class="cls-42" d="M97.66,93.54,125,105.78c.28.12.5,0,.5-.17a.79.79,0,0,0-.5-.6L97.66,92.77c-.28-.12-.5,0-.5.16A.79.79,0,0,0,97.66,93.54Z" />
                    <path class="cls-43" d="M97.72,93.55,125,105.74c.26.12.47.05.47-.15A.76.76,0,0,0,125,105L97.72,92.82c-.26-.12-.47,0-.47.15A.75.75,0,0,0,97.72,93.55Z" />
                    <path class="cls-44" d="M97.79,93.56,125,105.71c.25.11.45,0,.45-.15A.73.73,0,0,0,125,105L97.79,92.87c-.25-.11-.45-.05-.45.14A.71.71,0,0,0,97.79,93.56Z" />
                    <path class="cls-45" d="M97.85,93.57l27.08,12.1c.24.11.43,0,.43-.14a.7.7,0,0,0-.43-.52L97.85,92.92c-.23-.11-.42,0-.42.13A.67.67,0,0,0,97.85,93.57Z" />
                    <path class="cls-46" d="M97.92,93.59l27,12c.22.1.4,0,.4-.13a.65.65,0,0,0-.4-.5L97.92,93c-.22-.1-.4,0-.4.13A.65.65,0,0,0,97.92,93.59Z" />
                    <path class="cls-47" d="M98,93.6l26.87,12c.21.1.38,0,.38-.12a.61.61,0,0,0-.38-.46L98,93c-.21-.09-.38,0-.38.12A.62.62,0,0,0,98,93.6Z" />
                    <path class="cls-48" d="M98.05,93.61l26.77,12c.2.08.36,0,.36-.12a.58.58,0,0,0-.36-.43l-26.77-12c-.19-.09-.35,0-.35.11A.58.58,0,0,0,98.05,93.61Z" />
                    <path class="cls-49" d="M98.12,93.62l26.67,11.91c.18.08.33,0,.33-.11a.54.54,0,0,0-.33-.4L98.12,93.11c-.18-.08-.33,0-.33.11A.54.54,0,0,0,98.12,93.62Z" />
                    <path class="cls-50" d="M98.18,93.63l26.57,11.87c.17.07.31,0,.31-.1a.52.52,0,0,0-.31-.38L98.18,93.15c-.17-.07-.3,0-.3.11A.49.49,0,0,0,98.18,93.63Z" />
                    <path class="cls-51" d="M98.25,93.64l26.46,11.82c.16.07.28,0,.28-.09a.45.45,0,0,0-.28-.35L98.25,93.2c-.16-.07-.28,0-.28.1A.44.44,0,0,0,98.25,93.64Z" />
                    <path class="cls-52" d="M98.32,93.65l26.36,11.78c.14.06.25,0,.25-.09a.4.4,0,0,0-.25-.31L98.32,93.25c-.15-.06-.26,0-.26.09A.39.39,0,0,0,98.32,93.65Z" />
                    <path class="cls-53" d="M98.38,93.66l26.26,11.73c.13.06.23,0,.23-.07a.38.38,0,0,0-.23-.29L98.38,93.3c-.13-.06-.23,0-.23.08A.37.37,0,0,0,98.38,93.66Z" />
                    <path class="cls-54" d="M98.45,93.67l26.15,11.69c.12,0,.21,0,.21-.07a.33.33,0,0,0-.21-.26L98.45,93.35c-.12-.06-.21,0-.21.07A.32.32,0,0,0,98.45,93.67Z" />
                    <path class="cls-55" d="M98.51,93.68l26.05,11.64c.11.05.19,0,.19-.06a.3.3,0,0,0-.19-.23l-26-11.64c-.1,0-.18,0-.18.07A.28.28,0,0,0,98.51,93.68Z" />
                </g>
                <path class="cls-56" d="M96.63,119.49v-3.65l12.69,5.67v3.75L97,119.77Z" />
                <polygon class="cls-57" points="108.94 125.09 124.89 132.22 124.89 128.47 108.94 121.34 108.94 125.09" />
                <polygon class="cls-58" points="227.97 92.71 227.97 100.19 89.33 38.26 89.33 30.77 227.97 92.71" />
                <polygon class="cls-1" points="160.37 111.43 197.48 128.01 197.48 95.45 160.37 78.87 160.37 111.43" />
                <path class="cls-59" d="M184.54,108.14a51.44,51.44,0,0,0-11.06-5,8.56,8.56,0,0,0-.5,3.87s5.38,4.25,5.49,4.3,4.23.12,4.35.14A9.65,9.65,0,0,0,184,110s2.05.13,2.05.13Z" />
                <path class="cls-60" d="M183.37,103.46v4c-1.43,2.53-8.34-.82-8.34-3.72V98.49Z" />
                <path class="cls-59" d="M172.72,95.45c0,3.44,3,9.63,6.61,11.26s6.61-1.91,6.61-5.35-3-7.55-6.61-9.18S172.72,92,172.72,95.45Z" />
                <path class="cls-57" d="M167.89,101.94l5.59,1.24c.36,4.38,8.64,8.73,11.09,5l5.27,3.55a9.09,9.09,0,0,1,2.88,3.06,25.44,25.44,0,0,1,2.84,12.43l-4.25-1.89-24.57-11-4.28-1.91c0-6.07,1.51-8.71,2.74-9.85A3,3,0,0,1,167.89,101.94Z" />
                <path class="cls-61" d="M177.58,90.91c-3.45-1.2-4.72.4-4.94,1.42a11.76,11.76,0,0,0,.84,6.82c-.18-1.16-.37-3.62.08-4.29a1,1,0,0,1,1-.29,41.74,41.74,0,0,1,6.47,2c1.55.61,3.29,1.28,4,3.2a8.46,8.46,0,0,1,0,5s2.09-1.93.48-7.32a5.05,5.05,0,0,0-.88-1.64,5.12,5.12,0,0,0-.71-.76,9.67,9.67,0,0,1-.86-.62C182.2,92.93,180.05,91.78,177.58,90.91Z" />
                <path class="cls-62" d="M160.12,111.76l-.24-.11V78.22l37.84,16.91.24.1v33.43Zm.73-32.25v31.71L197,127.37V95.66Z" />
                <path class="cls-3" d="M155.82,123.6l44.35,19.81c2.28,1,4.13.41,4.13-1.35s-1.85-4-4.13-5.05L155.82,117.2c-2.28-1-4.13-.42-4.13,1.35S153.54,122.58,155.82,123.6Z" />
                <path class="cls-3" d="M155.82,134.76l44.35,19.81c2.28,1,4.13.42,4.13-1.35s-1.85-4-4.13-5.05l-44.35-19.81c-2.28-1-4.13-.41-4.13,1.36S153.54,133.74,155.82,134.76Z" />
                <path class="cls-19" d="M168.48,151.68l12.58,5.62c2.28,1,4.13.42,4.13-1.35s-1.85-4-4.13-5l-12.58-5.63c-2.29-1-4.14-.41-4.14,1.36S166.19,150.66,168.48,151.68Z" />
                <g class="slide-top">
                    <polygon class="cls-63" points="215.84 61.22 283.46 91.43 283.46 166.81 215.76 136.56 215.84 61.22" />
                    <polygon class="cls-58" points="215.84 53.58 283.46 83.79 283.46 92.24 215.84 62.03 215.84 53.58" />

                    <path class="cls-64" d="M231.09,96.34V112c0,2.58,2.7,5.86,6,7.35l28.58,12.77c3.32,1.48,6,.6,6-2V114.49c0-2.34-2.22-5.24-5.11-6.87v-6.44c0-6.59-6.94-15.05-15.46-18.86s-15.45-1.54-15.45,5.06v6.5C233.06,93.2,231.09,94.15,231.09,96.34ZM263,99.57v6.36L239.3,95.35V89c0-5,5.31-6.79,11.84-3.87S263,94.52,263,99.57Zm-14.87,8.5c0-1.41,1.47-1.89,3.29-1.08s3.29,2.61,3.29,4c0,1-.83,1.58-2,1.44v7.63l-2.58-1.15V111.3A4.66,4.66,0,0,1,248.11,108.07Z" />
                    <path class="cls-3" d="M252.08,136.68l-5.26-2.35v-1l5.26,2.35Zm6.75,9.74L254,144.25v1l3.36,1.5,9.69,4.33v-1l-8.18-3.66Zm-3.15-4.28,2.7,1.2v-1l-2.7-1.2-4.1-1.83v1Zm4.62,2.06,6.73,3v-1l-6.73-3Zm-3.47-5.4L267,143.34v-1l-8.12-3.63L254,136.57v1l2.83,1.26Zm8-.29,2.14,1v-1l-2.14-1-6.62-3v1l6.62,3Zm-13.22-5.9,4.67,2.08v-1l-4-1.78-2.81-1.25v1l2.13,1Zm-4.8,9.4,5.26,2.35v-1L246.78,141Zm-15.57-6.95,4.9,2.19v-1l-4.9-2.19Zm.07-11.52,2.95,1.32v-1l-2.95-1.32Zm4.87,2.18,2.54,1.13v-1l-2.54-1.13Zm-4.91,1.65,4.83,2.16v-1l-4.83-2.16Zm7.25,7.09,2.06.92v-1l-2.06-.92Zm-1.93-1.83-5.37-2.4v1l5.37,2.4Zm-12.95-1,2.1.94v-1l-2.1-.94Zm.07-11.52,2.95,1.32v-1l-2.95-1.32Zm-.05,3.83,2,.91v-1l-2-.91Zm0,2.86v1l2.57,1.15v-1Zm50.7,26.5-2.18-1v1l2.18,1Zm.07-11.52-1.33-.59v1l1.33.59Zm-.05,3.83-2.24-1v1l2.24,1Zm-1.75,3.07v1l1.71.76v-1Z" />
                </g>
                <path class="cls-65" d="M192.53,147.13a1.72,1.72,0,0,1,1.06,1.31c0,.46-.47.62-1.06.36a1.71,1.71,0,0,1-1.05-1.3C191.48,147,192,146.87,192.53,147.13Zm-5.39-1.57a1.71,1.71,0,0,0,1.05,1.3c.58.26,1.05.1,1.05-.36a1.72,1.72,0,0,0-1.05-1.31C187.61,144.93,187.14,145.1,187.14,145.56Zm-4.34-1.94a1.71,1.71,0,0,0,1,1.3c.58.26,1.05.1,1.05-.36a1.72,1.72,0,0,0-1.05-1.31C183.27,143,182.8,143.15,182.8,143.62Zm-4.35-1.94a1.71,1.71,0,0,0,1.05,1.3c.59.26,1.06.1,1.06-.36a1.7,1.7,0,0,0-1.06-1.31C178.92,141.05,178.45,141.21,178.45,141.68Zm-4.34-2a1.71,1.71,0,0,0,1,1.31c.58.26,1.05.1,1.05-.37a1.71,1.71,0,0,0-1.05-1.3C174.58,139.11,174.11,139.27,174.11,139.73Zm-4.34-1.94a1.72,1.72,0,0,0,1,1.31c.58.26,1.05.1,1.05-.37a1.71,1.71,0,0,0-1.05-1.3C170.24,137.17,169.77,137.33,169.77,137.79Zm-4.35-1.94a1.72,1.72,0,0,0,1.05,1.31c.59.26,1.06.09,1.06-.37a1.7,1.7,0,0,0-1.06-1.3C165.89,135.23,165.42,135.39,165.42,135.85Zm-4.34-1.94a1.72,1.72,0,0,0,1,1.31c.58.26,1.05.09,1.05-.37a1.71,1.71,0,0,0-1.05-1.3C161.55,133.29,161.08,133.45,161.08,133.91Z" />
                <path class="cls-65" d="M195.06,137.35a1.69,1.69,0,0,1,1.06,1.3c0,.46-.47.62-1.06.36a1.71,1.71,0,0,1-1.05-1.3C194,137.25,194.48,137.09,195.06,137.35Zm-5.39-1.58a1.71,1.71,0,0,0,1.05,1.3c.58.26,1.05.1,1.05-.36a1.72,1.72,0,0,0-1.05-1.31C190.14,135.15,189.67,135.31,189.67,135.77Zm-4.34-1.94a1.71,1.71,0,0,0,1,1.3c.58.26,1.05.1,1.05-.36a1.72,1.72,0,0,0-1.05-1.31C185.8,133.2,185.33,133.37,185.33,133.83ZM181,131.89a1.71,1.71,0,0,0,1.05,1.3c.59.26,1.06.1,1.06-.36a1.72,1.72,0,0,0-1.06-1.31C181.45,131.26,181,131.43,181,131.89ZM176.64,130a1.71,1.71,0,0,0,1.05,1.3c.58.26,1.05.1,1.05-.36a1.72,1.72,0,0,0-1.05-1.31C177.11,129.32,176.64,129.49,176.64,130ZM172.3,128a1.71,1.71,0,0,0,1,1.3c.58.26,1.05.1,1.05-.36a1.72,1.72,0,0,0-1.05-1.31C172.77,127.38,172.3,127.55,172.3,128ZM168,126.07a1.71,1.71,0,0,0,1.05,1.3c.58.26,1.06.1,1.06-.36A1.74,1.74,0,0,0,169,125.7C168.42,125.44,168,125.61,168,126.07Zm-4.34-1.94a1.71,1.71,0,0,0,1,1.3c.58.26,1.05.1,1.05-.36a1.72,1.72,0,0,0-1.05-1.31C164.08,123.5,163.61,123.67,163.61,124.13Z" />
                <g class="slide-top">
                    <polygon class="cls-63" points="68.57 7.66 126.6 33.58 126.6 77.4 68.49 51.44 68.57 7.66" />
                    <polygon class="cls-58" points="68.57 0 126.6 25.93 126.6 34.38 68.56 8.46 68.57 0" />

                    <path class="cls-3" d="M99.67,52.39l-4.51-2v-.84l4.51,2Zm5.79,8.36-4.18-1.86v.83L104.16,61l8.32,3.71v-.83l-7-3.14Zm-2.7-3.68,2.31,1v-.83l-2.31-1-3.53-1.57v.83Zm4,1.78,5.78,2.58v-.84L106.72,58Zm-3-4.64,8.72,3.9v-.84l-7-3.11-4.17-1.86v.83l2.42,1.08Zm6.84-.25,1.84.82V54l-1.84-.82-5.68-2.54v.83L110.58,54ZM99.23,48.89l4,1.79v-.83l-3.43-1.53-2.41-1.08v.84l1.82.81ZM95.12,57l4.51,2v-.83l-4.51-2ZM81.76,51,86,52.88V52l-4.21-1.88Zm.06-9.89,2.53,1.13v-.83l-2.53-1.13ZM86,43l2.18,1v-.83l-2.18-1ZM81.78,44.4l4.15,1.85v-.83l-4.15-1.85ZM88,50.48l1.77.79v-.83L88,49.65Zm-1.65-1.57-4.61-2.06v.84l4.61,2.05Zm-11.11-.83,1.8.81v-.84l-1.8-.8Zm.06-9.88,2.52,1.13v-.84L75.3,37.37Zm0,3.28,1.75.78v-.83l-1.75-.78Zm0,2.46v.83l2.2,1v-.83Zm43.51,22.74-1.87-.84v.84l1.87.83Zm.06-9.88-1.15-.52v.84l1.15.51Zm-.05,3.28-1.92-.86v.83l1.92.86Zm-1.5,2.63v.83l1.47.66v-.83Z" />
                    <path class="cls-64" d="M77,26.05l.06.06L81,29.36a1.81,1.81,0,0,0,.43.27,1.27,1.27,0,0,0,.43.12l1.17.08.69,0,.57,0a1.4,1.4,0,0,1,.67.27l1,.73.39.28c.52.36,1,.69,1.18.8a2,2,0,0,0,.48.18l1.11.28a2.92,2.92,0,0,1,.82.31l.76.62.23.14a.94.94,0,0,0,.22.07l2,.34a2.1,2.1,0,0,1,.81.35c.56.4,1.52,1.13,1.78,1.25s.72.34,1.34.61l1.32.56,1.22.52.46.2a1.81,1.81,0,0,1,.66.48l1.4,1.63a1,1,0,0,0,.34.25l2.43,1.08a16.63,16.63,0,0,0,7.57,6.84c4.78,2.13,8.64.86,8.64-2.84s-3.88-8.42-8.66-10.55c-3-1.36-5.72-1.32-7.25-.16l-2.06-.92a1.62,1.62,0,0,0-1.11-.14l-.26.09A2.65,2.65,0,0,1,99.91,33L80.75,24.41a1.64,1.64,0,0,0-1-.17l-2.93.46a.32.32,0,0,0-.23.14C76.38,25.09,76.51,25.61,77,26.05ZM114,41.72c0-1.12,1.16-1.5,2.6-.86s2.6,2.06,2.6,3.18-1.16,1.49-2.6.85S114,42.83,114,41.72Z" />
                </g>
                <path class="cls-1" d="M17.3,71.2,51.8,86.61a1.55,1.55,0,0,1,1,1.36v65.92c0,1.21-.79,3.07-3.83,2.58L17.07,142.41a13.35,13.35,0,0,1-6.1-5.08,7.54,7.54,0,0,1-1-2.68L9.9,72.91C9.9,70.31,14.39,69.9,17.3,71.2Z" />
                <path class="cls-66" d="M11.35,70.47a5.71,5.71,0,0,1,4.63.35L47,84.68c3.59,1.61,6.51,5.51,6.5,8.71l0,63.82a3.34,3.34,0,0,1-1.9,3.24l2.8-1.27a3.31,3.31,0,0,0,1.9-3.23l0-63.82c0-3.21-2.9-7.1-6.5-8.71L18.79,69.55a5.77,5.77,0,0,0-4.64-.35Z" />
                <path class="cls-1" d="M9.44,73.7l0,63.82c0,3.2,2.9,7.1,6.5,8.71L47,160.1c3.6,1.61,6.53.31,6.54-2.89l0-63.82c0-3.2-2.91-7.1-6.5-8.71L16,70.82C12.39,69.21,9.46,70.5,9.44,73.7Zm.87-.49c0-1.79,2.5-2.9,4.49-2L21.08,74a1.62,1.62,0,0,1,.42.28l4.72,4.46a1.57,1.57,0,0,0,.37.24l9.53,4.25a1.09,1.09,0,0,0,.67.07l3.11-.63a1.3,1.3,0,0,1,.78.09l4.47,2c4.49,2,7.25,5.71,7.25,9.71V154c0,.67-.94,1.1-1.7.76l-10.33-4.61-19.15-8.55-9.17-4.1a2.67,2.67,0,0,1-1.74-2.33Z" />
                <path class="cls-1" d="M26.63,147v1.41a3,3,0,0,0,1.84,2.27L32,152.23a2.54,2.54,0,0,0,1,.23,1,1,0,0,0,1.18-1V150a2.94,2.94,0,0,0-1.84-2.27l-3.49-1.56a2.54,2.54,0,0,0-1-.23A1,1,0,0,0,26.63,147Z" />
                <path class="cls-1" d="M28.88,150.51A3,3,0,0,1,27,148.22V146.8a1,1,0,0,1,.41-.79,1.59,1.59,0,0,1,.38-.06,2.65,2.65,0,0,1,1,.24l3.5,1.57A3,3,0,0,1,34.19,150v1.43a.93.93,0,0,1-.41.78,1.59,1.59,0,0,1-.38.06,2.48,2.48,0,0,1-1-.24Z" />
                <path class="cls-1" d="M27.85,78.34l5.59,2.49c.35.16.64.07.64-.21a1.07,1.07,0,0,0-.64-.79l-5.59-2.49c-.35-.16-.64-.06-.64.21A1,1,0,0,0,27.85,78.34Z" />
                <path class="cls-67" d="M54.8,104.28a1.44,1.44,0,0,0-.32.38,1,1,0,0,0-.14.47v5.31a.42.42,0,0,0,.24.4l.58.26a.4.4,0,0,1-.23-.4v-5.31a1,1,0,0,1,.14-.47,1.57,1.57,0,0,1,.31-.38,1.69,1.69,0,0,1,.36-.23l.22-.1a.69.69,0,0,1,.57,0l-.58-.26a.71.71,0,0,0-.58,0l-.22.1A1.41,1.41,0,0,0,54.8,104.28Z" />
                <path class="cls-68" d="M54.93,105.39v5.31c0,.4.36.56.81.36L56,111a1.35,1.35,0,0,0,.81-1.08v-5.31c0-.4-.37-.56-.81-.36l-.22.1A1.37,1.37,0,0,0,54.93,105.39Z" />
                <path class="cls-67" d="M54.8,96.19a1.44,1.44,0,0,0-.32.38.94.94,0,0,0-.14.47v5.3a.42.42,0,0,0,.24.41l.58.26a.42.42,0,0,1-.23-.4V97.3a1,1,0,0,1,.14-.47,1.4,1.4,0,0,1,.31-.38,1.38,1.38,0,0,1,.36-.23l.22-.1a.69.69,0,0,1,.57,0L56,95.81a.76.76,0,0,0-.58,0l-.22.09A1.21,1.21,0,0,0,54.8,96.19Z" />
                <path class="cls-68" d="M54.93,97.3v5.31c0,.4.36.56.81.35l.22-.1a1.34,1.34,0,0,0,.81-1.08v-5.3c0-.4-.37-.56-.81-.36l-.22.1A1.35,1.35,0,0,0,54.93,97.3Z" />
                <path class="cls-1" d="M36.12,80.9A1.35,1.35,0,0,1,36.93,82c0,.4-.37.56-.81.36a1.35,1.35,0,0,1-.81-1.08C35.31,80.86,35.68,80.7,36.12,80.9Z" />
                <path class="cls-69" d="M36.71,81.87a1,1,0,0,0-.62-.79c-.33-.14-.59,0-.58.28a1,1,0,0,0,.62.79C36.46,82.29,36.72,82.16,36.71,81.87Z" />
                <path class="cls-69" d="M36.43,81.77a.55.55,0,0,0-.34-.42c-.18-.08-.33,0-.32.15a.58.58,0,0,0,.34.43C36.29,82,36.43,81.93,36.43,81.77Z" />
                <path class="cls-70" d="M36.22,81.69a.21.21,0,0,0-.13-.16c-.06,0-.12,0-.11.06a.18.18,0,0,0,.12.15C36.17,81.77,36.22,81.75,36.22,81.69Z" />
                <polygon class="cls-71" points="43.37 98.75 43.37 154.87 0 135.49 0 79.37 43.37 98.75" />
                <polygon class="cls-72" points="0 79.59 43.37 98.96 43.37 92.77 0 73.39 0 79.59" />
                <path class="cls-3" d="M28.4,113.52c.58.52.78,1.19.44,1.49s-1.08.13-1.67-.4-.78-1.19-.45-1.49S27.81,113,28.4,113.52Zm-5.87-2.28c-.34.31-.14,1,.44,1.5s1.34.7,1.68.4.13-1-.45-1.5S22.86,110.94,22.53,111.24Zm-4.2-1.87c-.34.3-.14,1,.45,1.49s1.33.7,1.67.4.14-1-.45-1.49S18.67,109.07,18.33,109.37Zm-4.2-1.88c-.34.3-.14,1,.45,1.5s1.33.7,1.67.4.14-1-.45-1.5S14.47,107.19,14.13,107.49Zm-4.2-1.87c-.34.3-.13,1,.45,1.49s1.34.7,1.67.4.14-1-.44-1.49S10.27,105.31,9.93,105.62Zm-4.2-1.88c-.33.3-.13,1,.45,1.5s1.34.7,1.68.4.13-1-.45-1.5S6.07,103.44,5.73,103.74Z" />
            </g>
        </g>
    </g>
</svg>
