<svg width="100" height="100" viewBox="0 0 100 100" fill="none" xmlns="http://www.w3.org/2000/svg">
<path d="M2.87277 53.046C2.13089 52.9975 1.43175 52.6816 0.904893 52.1567C0.37804 51.6319 0.0592002 50.9338 0.00745646 50.1918C-0.0442872 49.4497 0.174574 48.7141 0.623483 48.1212C1.07239 47.5282 1.72091 47.1182 2.44887 46.9671C3.01278 46.9131 3.58056 46.9131 4.14447 46.9671H63.208L62.2189 45.9068L52.1513 35.8341C51.5868 35.3535 51.2126 34.687 51.096 33.9547C50.9794 33.2224 51.1281 32.4725 51.5154 31.8403C51.825 31.257 52.318 30.7921 52.9182 30.5174C53.5185 30.2427 54.1925 30.1735 54.836 30.3206C55.4754 30.4636 56.0625 30.7818 56.5316 31.2395C62.5368 37.3538 68.5421 43.5388 74.5474 49.6885C74.6332 49.8353 74.7275 49.9769 74.83 50.1126L56.5669 68.8797C56.2793 69.1697 55.9374 69.4003 55.5607 69.5582C55.184 69.7161 54.7799 69.7982 54.3716 69.7998C53.9632 69.8015 53.5585 69.7226 53.1805 69.5678C52.8026 69.4129 52.4588 69.1851 52.1689 68.8973C51.879 68.6096 51.6485 68.2675 51.4907 67.8906C51.3329 67.5138 51.2509 67.1095 51.2492 66.7009C51.2476 66.2923 51.3264 65.8874 51.4812 65.5093C51.6359 65.1311 51.8636 64.7872 52.1513 64.4971L62.7488 53.8943L63.6319 53.046H4.25045C3.7919 53.0814 3.33132 53.0814 2.87277 53.046V53.046Z" fill="#002554"/>
<path d="M99.981 93.337C100.05 94.2272 99.9254 95.1217 99.6161 95.9592C99.3067 96.7966 98.8198 97.5571 98.1888 98.1885C97.5578 98.8198 96.7977 99.3069 95.9606 99.6164C95.1236 99.926 94.2295 100.05 93.3398 99.9815H37.8795C37.0003 100.038 36.1192 99.9072 35.2945 99.5973C34.4698 99.2875 33.7203 98.8058 33.0957 98.1842C32.4711 97.5627 31.9856 96.8154 31.6715 95.9919C31.3574 95.1684 31.2218 94.2876 31.2737 93.4077V65.5928H37.5615V89.2019C37.5615 92.3474 38.9392 93.7611 42.0478 93.7611H89.3128C89.912 93.8522 90.5243 93.8005 91.0998 93.6101C91.6753 93.4197 92.1978 93.0961 92.6247 92.6656C93.0516 92.235 93.3708 91.7097 93.5565 91.1324C93.7421 90.5551 93.7889 89.9421 93.6931 89.3433C93.6931 63.2367 93.6931 37.1065 93.6931 10.9527C93.6931 7.66581 92.3154 6.28744 89.0655 6.28744H42.1891C38.9392 6.28744 37.5615 7.66581 37.5615 10.9174V34.3144H31.2737V6.85293C31.1854 5.93213 31.3023 5.00322 31.6161 4.13308C31.9298 3.26294 32.4324 2.47323 33.0879 1.82084C33.7433 1.16844 34.5352 0.669598 35.4065 0.360232C36.2778 0.0508648 37.2069 -0.0613242 38.1267 0.0317444H93.2692C94.1663 -0.0425944 95.0689 0.0788844 95.9146 0.387783C96.7602 0.696682 97.5287 1.18563 98.167 1.82083C98.8052 2.45603 99.2979 3.22233 99.6111 4.06674C99.9243 4.91116 100.051 5.81356 99.981 6.71155V93.337Z" fill="#002554"/>
</svg>
