<svg width="100" height="101" viewBox="0 0 100 101" fill="none" xmlns="http://www.w3.org/2000/svg">
<path d="M62.5859 0.405221C62.5684 0.276805 62.5684 0.14694 62.5859 0.0185233C63.7096 -0.0699307 64.836 0.159906 65.8075 0.675909C66.9735 1.29167 68.0928 1.97634 69.1581 2.72541C72.9949 5.47067 76.6255 8.44186 80.0258 11.6195L82.0447 13.7463C82.6516 14.4353 83.0849 15.2348 83.3149 16.0894C83.5448 16.944 83.5657 17.8334 83.3763 18.696H67.4828C66.8889 18.7205 66.2977 18.6092 65.7645 18.3725C65.2312 18.1359 64.7731 17.7816 64.433 17.3426C63.195 15.885 62.5031 14.1112 62.457 12.2768C62.5429 8.33252 62.5859 4.38821 62.5859 0.405221Z" fill="#002554"/>
<path d="M92.0537 76.082C85.2668 82.1918 78.4369 88.3016 71.6929 94.4501C69.8985 96.2712 67.5792 97.6096 64.9919 98.3171C62.7152 98.9358 60.3956 99.5158 58.0761 100.019C56.6156 100.367 55.9283 99.7865 56.1431 98.4331C56.4086 97.0449 56.7818 95.6753 57.2599 94.3341C57.7584 92.7564 58.3608 91.2069 59.064 89.6937C59.4495 88.9611 59.9726 88.2939 60.6104 87.7216L82.9901 67.5746L83.2479 67.3426L92.5262 75.7339L92.0537 76.082Z" fill="#002554"/>
<path d="M99.6133 69.0827C98.6683 70.2042 97.5944 71.2482 96.4346 72.4083L87.1133 63.7463C87.7576 63.2436 88.5738 62.6249 89.304 61.9675C89.6726 61.5404 90.1366 61.1877 90.666 60.9321C91.1955 60.6765 91.7786 60.5237 92.3777 60.4836C92.9769 60.4435 93.5787 60.517 94.1443 60.6993C94.7099 60.8817 95.2267 61.1688 95.6614 61.5421C96.8427 62.1463 97.8479 62.9941 98.5946 64.0159C99.3413 65.0376 99.8082 66.2042 99.9569 67.4199C100.043 67.993 99.9222 68.5757 99.6133 69.0827V69.0827Z" fill="#002554"/>
<path d="M82.646 24.9991H67.268C65.7498 25.0389 64.2414 24.7671 62.8571 24.2044C61.4728 23.6416 60.249 22.8025 59.2784 21.7508C56.8165 19.1739 55.5007 15.8681 55.5842 12.4701C55.5842 8.60312 55.5842 4.73614 55.5842 0.869167V0.0184326H13.1443C12.3027 0.026423 11.4655 0.13037 10.6529 0.327791C8.30196 0.999522 6.19509 2.22835 4.55326 3.88541C3.16277 5.04442 2.04367 6.44196 1.26174 7.9959C0.479811 9.54984 0.0508253 11.2288 0 12.9341C0 35.5946 0 58.2551 0 80.9156C0.0300129 82.2521 0.366364 83.5685 0.987973 84.7825C2.51542 87.6794 4.94882 90.1119 7.98969 91.7818C10.2775 93.1177 12.9519 93.8171 15.6787 93.7926C25.2148 93.7926 34.7079 93.7926 44.244 93.7926C44.4774 93.8079 44.7116 93.7739 44.9279 93.6933C45.1441 93.6128 45.3365 93.4879 45.4897 93.3286L65.6787 74.419L66.0223 74.071C64.7533 74.6266 63.3517 74.8922 61.9416 74.8444H21.4777H20.232C19.0832 74.7825 17.9704 74.4602 16.9969 73.9076C16.0235 73.3549 15.221 72.5897 14.6639 71.6832C14.1068 70.7766 13.8132 69.758 13.8104 68.722C13.8076 67.6859 14.0956 66.666 14.6478 65.757C15.2269 64.6877 16.1423 63.7951 17.2801 63.1901C18.418 62.5851 19.7283 62.2944 21.0481 62.3541H62.6289C63.8018 62.3743 64.95 62.6612 65.9668 63.1881C66.9836 63.7149 67.8359 64.4646 68.4445 65.3675C69.0531 66.2704 69.3983 67.2971 69.448 68.3523C69.4976 69.4075 69.2501 70.4568 68.7285 71.4028V71.8282L69.0722 71.5575C73.7543 67.1878 78.4794 62.8181 83.1186 58.4098C83.377 58.1577 83.5157 57.8246 83.5052 57.4817C83.5052 46.8862 83.5052 36.2907 83.5052 25.6952V24.9991H82.646ZM68.7285 46.4221C68.2199 47.4919 67.3763 48.4052 66.3008 49.0507C65.2253 49.6962 63.9644 50.0459 62.6718 50.0571H21.0481C19.7301 50.1357 18.4161 49.8572 17.2754 49.2576C16.1347 48.6581 15.2196 47.7648 14.6478 46.6928C14.0953 45.7669 13.8121 44.7302 13.8248 43.6792C13.8374 42.6282 14.1454 41.5973 14.72 40.6823C15.2946 39.7674 16.1172 38.9984 17.111 38.4468C18.1049 37.8953 19.2376 37.5792 20.4038 37.5281C23.4536 37.5281 26.5034 37.5281 29.5103 37.5281H62.2423C63.3364 37.4979 64.4233 37.699 65.4154 38.1154C66.4076 38.5318 67.2775 39.1518 67.9553 39.9256C68.7786 40.8205 69.2909 41.9138 69.4284 43.0691C69.5659 44.2244 69.3225 45.3906 68.7285 46.4221Z" fill="#002554"/>
</svg>
